%TF.GenerationSoftware,KiCad,Pcbnew,(6.0.0)*%
%TF.CreationDate,2022-01-21T17:49:12+00:00*%
%TF.ProjectId,molly-the-mermaid,6d6f6c6c-792d-4746-9865-2d6d65726d61,rev?*%
%TF.SameCoordinates,Original*%
%TF.FileFunction,Soldermask,Top*%
%TF.FilePolarity,Negative*%
%FSLAX46Y46*%
G04 Gerber Fmt 4.6, Leading zero omitted, Abs format (unit mm)*
G04 Created by KiCad (PCBNEW (6.0.0)) date 2022-01-21 17:49:12*
%MOMM*%
%LPD*%
G01*
G04 APERTURE LIST*
G04 Aperture macros list*
%AMRoundRect*
0 Rectangle with rounded corners*
0 $1 Rounding radius*
0 $2 $3 $4 $5 $6 $7 $8 $9 X,Y pos of 4 corners*
0 Add a 4 corners polygon primitive as box body*
4,1,4,$2,$3,$4,$5,$6,$7,$8,$9,$2,$3,0*
0 Add four circle primitives for the rounded corners*
1,1,$1+$1,$2,$3*
1,1,$1+$1,$4,$5*
1,1,$1+$1,$6,$7*
1,1,$1+$1,$8,$9*
0 Add four rect primitives between the rounded corners*
20,1,$1+$1,$2,$3,$4,$5,0*
20,1,$1+$1,$4,$5,$6,$7,0*
20,1,$1+$1,$6,$7,$8,$9,0*
20,1,$1+$1,$8,$9,$2,$3,0*%
G04 Aperture macros list end*
%ADD10C,2.200000*%
%ADD11RoundRect,0.250000X-0.350000X-0.450000X0.350000X-0.450000X0.350000X0.450000X-0.350000X0.450000X0*%
%ADD12R,1.700000X1.000000*%
%ADD13O,1.700000X1.700000*%
%ADD14R,1.700000X1.700000*%
%ADD15RoundRect,0.250000X-0.530373X-0.163796X-0.011260X-0.554976X0.530373X0.163796X0.011260X0.554976X0*%
%ADD16RoundRect,0.250000X-0.552211X0.056458X-0.227211X-0.506458X0.552211X-0.056458X0.227211X0.506458X0*%
%ADD17RoundRect,0.250000X-0.450000X0.325000X-0.450000X-0.325000X0.450000X-0.325000X0.450000X0.325000X0*%
%ADD18RoundRect,0.250000X-0.325000X-0.450000X0.325000X-0.450000X0.325000X0.450000X-0.325000X0.450000X0*%
%ADD19RoundRect,0.250000X0.450000X-0.325000X0.450000X0.325000X-0.450000X0.325000X-0.450000X-0.325000X0*%
%ADD20RoundRect,0.250000X0.182206X-0.524334X0.555031X0.008115X-0.182206X0.524334X-0.555031X-0.008115X0*%
%ADD21RoundRect,0.250000X-0.008115X-0.555031X0.524334X-0.182206X0.008115X0.555031X-0.524334X0.182206X0*%
%ADD22R,1.500000X1.000000*%
%ADD23RoundRect,0.250000X-0.337500X-0.475000X0.337500X-0.475000X0.337500X0.475000X-0.337500X0.475000X0*%
%ADD24RoundRect,0.250000X0.337500X0.475000X-0.337500X0.475000X-0.337500X-0.475000X0.337500X-0.475000X0*%
G04 APERTURE END LIST*
D10*
%TO.C,H2*%
X240030000Y-53848000D03*
%TD*%
%TO.C,H1*%
X203454000Y-53848000D03*
%TD*%
D11*
%TO.C,R11*%
X198898000Y-116332000D03*
X200898000Y-116332000D03*
%TD*%
D12*
%TO.C,A*%
X238404000Y-102494000D03*
X244704000Y-102494000D03*
X238404000Y-106294000D03*
X244704000Y-106294000D03*
%TD*%
%TO.C,B*%
X239116000Y-113406000D03*
X232816000Y-113406000D03*
X239116000Y-109606000D03*
X232816000Y-109606000D03*
%TD*%
%TO.C,Down*%
X203860000Y-113416000D03*
X210160000Y-113416000D03*
X203860000Y-117216000D03*
X210160000Y-117216000D03*
%TD*%
%TO.C,Right*%
X211226000Y-105796000D03*
X217526000Y-105796000D03*
X211226000Y-109596000D03*
X217526000Y-109596000D03*
%TD*%
%TO.C,Up*%
X203860000Y-97922000D03*
X210160000Y-97922000D03*
X203860000Y-101722000D03*
X210160000Y-101722000D03*
%TD*%
%TO.C,Left*%
X196494000Y-105796000D03*
X202794000Y-105796000D03*
X196494000Y-109596000D03*
X202794000Y-109596000D03*
%TD*%
D13*
%TO.C,SAO*%
X241147600Y-62077600D03*
X241147600Y-59537600D03*
X238607600Y-62077600D03*
X238607600Y-59537600D03*
X236067600Y-62077600D03*
D14*
X236067600Y-59537600D03*
%TD*%
D15*
%TO.C,D16*%
X239973399Y-91585140D03*
X241610601Y-92818860D03*
%TD*%
D16*
%TO.C,D15*%
X246629500Y-98426324D03*
X247654500Y-100201676D03*
%TD*%
D17*
%TO.C,D14*%
X249174000Y-107687000D03*
X249174000Y-109737000D03*
%TD*%
D18*
%TO.C,D13*%
X234941000Y-123190000D03*
X236991000Y-123190000D03*
%TD*%
%TO.C,D12*%
X227312000Y-117094000D03*
X229362000Y-117094000D03*
%TD*%
%TO.C,D11*%
X213859000Y-117094000D03*
X215909000Y-117094000D03*
%TD*%
%TO.C,D10*%
X207781000Y-122428000D03*
X205731000Y-122428000D03*
%TD*%
D19*
%TO.C,D9*%
X193294000Y-109737000D03*
X193294000Y-107687000D03*
%TD*%
D20*
%TO.C,D8*%
X195246084Y-100661631D03*
X196421916Y-98982369D03*
%TD*%
D21*
%TO.C,D7*%
X201843369Y-93805916D03*
X203522631Y-92630084D03*
%TD*%
D22*
%TO.C,D6*%
X246544000Y-123774000D03*
X246544000Y-120574000D03*
X241644000Y-123774000D03*
X241644000Y-120574000D03*
%TD*%
%TO.C,D5*%
X235114000Y-87960000D03*
X235114000Y-84760000D03*
X230214000Y-87960000D03*
X230214000Y-84760000D03*
%TD*%
%TO.C,D4*%
X225462000Y-89484000D03*
X225462000Y-86284000D03*
X220562000Y-89484000D03*
X220562000Y-86284000D03*
%TD*%
%TO.C,D3*%
X215556000Y-88214000D03*
X215556000Y-85014000D03*
X210656000Y-88214000D03*
X210656000Y-85014000D03*
%TD*%
%TO.C,D2*%
X200824000Y-123850000D03*
X200824000Y-120650000D03*
X195924000Y-123850000D03*
X195924000Y-120650000D03*
%TD*%
D23*
%TO.C,C5*%
X244580500Y-116078000D03*
X246655500Y-116078000D03*
%TD*%
%TO.C,C4*%
X230864500Y-80518000D03*
X232939500Y-80518000D03*
%TD*%
%TO.C,C3*%
X220450500Y-82296000D03*
X222525500Y-82296000D03*
%TD*%
%TO.C,C2*%
X211814500Y-80772000D03*
X213889500Y-80772000D03*
%TD*%
D24*
%TO.C,C1*%
X195855500Y-116332000D03*
X193780500Y-116332000D03*
%TD*%
M02*
