%TF.GenerationSoftware,KiCad,Pcbnew,(6.0.0)*%
%TF.CreationDate,2022-01-21T17:49:11+00:00*%
%TF.ProjectId,molly-the-mermaid,6d6f6c6c-792d-4746-9865-2d6d65726d61,rev?*%
%TF.SameCoordinates,Original*%
%TF.FileFunction,Copper,L2,Bot*%
%TF.FilePolarity,Positive*%
%FSLAX46Y46*%
G04 Gerber Fmt 4.6, Leading zero omitted, Abs format (unit mm)*
G04 Created by KiCad (PCBNEW (6.0.0)) date 2022-01-21 17:49:11*
%MOMM*%
%LPD*%
G01*
G04 APERTURE LIST*
G04 Aperture macros list*
%AMRoundRect*
0 Rectangle with rounded corners*
0 $1 Rounding radius*
0 $2 $3 $4 $5 $6 $7 $8 $9 X,Y pos of 4 corners*
0 Add a 4 corners polygon primitive as box body*
4,1,4,$2,$3,$4,$5,$6,$7,$8,$9,$2,$3,0*
0 Add four circle primitives for the rounded corners*
1,1,$1+$1,$2,$3*
1,1,$1+$1,$4,$5*
1,1,$1+$1,$6,$7*
1,1,$1+$1,$8,$9*
0 Add four rect primitives between the rounded corners*
20,1,$1+$1,$2,$3,$4,$5,0*
20,1,$1+$1,$4,$5,$6,$7,0*
20,1,$1+$1,$6,$7,$8,$9,0*
20,1,$1+$1,$8,$9,$2,$3,0*%
G04 Aperture macros list end*
%TA.AperFunction,SMDPad,CuDef*%
%ADD10R,1.600200X3.200400*%
%TD*%
%TA.AperFunction,SMDPad,CuDef*%
%ADD11R,3.200400X1.600200*%
%TD*%
%TA.AperFunction,SMDPad,CuDef*%
%ADD12RoundRect,0.250000X0.350000X0.450000X-0.350000X0.450000X-0.350000X-0.450000X0.350000X-0.450000X0*%
%TD*%
%TA.AperFunction,ComponentPad*%
%ADD13O,1.700000X1.700000*%
%TD*%
%TA.AperFunction,ComponentPad*%
%ADD14R,1.700000X1.700000*%
%TD*%
%TA.AperFunction,SMDPad,CuDef*%
%ADD15R,1.100000X1.100000*%
%TD*%
%TA.AperFunction,SMDPad,CuDef*%
%ADD16RoundRect,0.250000X0.250000X1.500000X-0.250000X1.500000X-0.250000X-1.500000X0.250000X-1.500000X0*%
%TD*%
%TA.AperFunction,SMDPad,CuDef*%
%ADD17RoundRect,0.250001X0.499999X1.449999X-0.499999X1.449999X-0.499999X-1.449999X0.499999X-1.449999X0*%
%TD*%
%TA.AperFunction,ViaPad*%
%ADD18C,0.800000*%
%TD*%
%TA.AperFunction,Conductor*%
%ADD19C,0.508000*%
%TD*%
%TA.AperFunction,Conductor*%
%ADD20C,0.304800*%
%TD*%
%TA.AperFunction,Conductor*%
%ADD21C,0.254000*%
%TD*%
G04 APERTURE END LIST*
D10*
%TO.P,U1,D3,SWDIO*%
%TO.N,unconnected-(U1-PadD3)*%
X217385900Y-101152960D03*
%TO.P,U1,D2,GND*%
%TO.N,GND*%
X219925900Y-101152960D03*
%TO.P,U1,D1,SWCLK*%
%TO.N,unconnected-(U1-PadD1)*%
X222465900Y-101152960D03*
D11*
%TO.P,U1,40,VBUS*%
%TO.N,unconnected-(U1-Pad40)*%
X210235800Y-52324000D03*
%TO.P,U1,39,VSYS*%
%TO.N,Net-(D1-Pad1)*%
X210235800Y-54864000D03*
%TO.P,U1,38,GND*%
%TO.N,GND*%
X210235800Y-57404000D03*
%TO.P,U1,37,3V3_EN*%
%TO.N,unconnected-(U1-Pad37)*%
X210235800Y-59944000D03*
%TO.P,U1,36,3V3OUT*%
%TO.N,+3V3*%
X210235800Y-62484000D03*
%TO.P,U1,35,ADC_VREF*%
%TO.N,unconnected-(U1-Pad35)*%
X210235800Y-65024000D03*
%TO.P,U1,34,ADC2/GP28*%
%TO.N,unconnected-(U1-Pad34)*%
X210235800Y-67564000D03*
%TO.P,U1,33,AGND/GND*%
%TO.N,GND*%
X210235800Y-70104000D03*
%TO.P,U1,32,I2C1_SCL/ADC1/GP27*%
%TO.N,unconnected-(U1-Pad32)*%
X210235800Y-72644000D03*
%TO.P,U1,31,I2C1_SDA/ADC0/GP26*%
%TO.N,unconnected-(U1-Pad31)*%
X210235800Y-75184000D03*
%TO.P,U1,30,RUN*%
%TO.N,unconnected-(U1-Pad30)*%
X210235800Y-77724000D03*
%TO.P,U1,29,GP22*%
%TO.N,/LED_DATA_1*%
X210235800Y-80264000D03*
%TO.P,U1,28,GND*%
%TO.N,GND*%
X210235800Y-82804000D03*
%TO.P,U1,27,I2C0_SCL/GP21*%
%TO.N,Net-(SW2-Pad1)*%
X210235800Y-85344000D03*
%TO.P,U1,26,I2C0_SDA/GP20*%
%TO.N,Net-(SW1-Pad1)*%
X210235800Y-87884000D03*
%TO.P,U1,25,I2C1_SCL/SPI0_TX/GP19*%
%TO.N,Net-(SW4-Pad1)*%
X210235800Y-90424000D03*
%TO.P,U1,24,I2C1_SDA/SPI0_SCK/GP18*%
%TO.N,Net-(SW3-Pad1)*%
X210235800Y-92964000D03*
%TO.P,U1,23,GND*%
%TO.N,GND*%
X210235800Y-95504000D03*
%TO.P,U1,22,UART0_RX/I2C0_SCL/SPI0_CSn/GP17*%
%TO.N,Net-(SW5-Pad1)*%
X210235800Y-98044000D03*
%TO.P,U1,21,UART0_TX/I2C0_SDA/SPI0_RX/GP16*%
%TO.N,Net-(SW6-Pad1)*%
X210235800Y-100584000D03*
%TO.P,U1,20,I2C1_SCL/SPI1_TX/GP15*%
%TO.N,Net-(R10-Pad2)*%
X229616000Y-100584000D03*
%TO.P,U1,19,I2C1_SDA/SPI1_SCK/GP14*%
%TO.N,Net-(R1-Pad2)*%
X229616000Y-98044000D03*
%TO.P,U1,18,GND*%
%TO.N,GND*%
X229616000Y-95504000D03*
%TO.P,U1,17,UART0_RX/I2C0_SCL/SPI1_CSn/GP13*%
%TO.N,unconnected-(U1-Pad17)*%
X229616000Y-92964000D03*
%TO.P,U1,16,UART0_TX/I2C0_SDA/GPI1_RX/GP12*%
%TO.N,unconnected-(U1-Pad16)*%
X229616000Y-90424000D03*
%TO.P,U1,15,I2C1_SCL/SPI1_TX/GP11*%
%TO.N,unconnected-(U1-Pad15)*%
X229616000Y-87884000D03*
%TO.P,U1,14,I2C1_SDA/SPI1_SCK/GP10*%
%TO.N,unconnected-(U1-Pad14)*%
X229616000Y-85344000D03*
%TO.P,U1,13,GND*%
%TO.N,GND*%
X229616000Y-82804000D03*
%TO.P,U1,12,UART1_RX/I2C0_SCL/SPI1_CSn/GP9*%
%TO.N,unconnected-(U1-Pad12)*%
X229616000Y-80264000D03*
%TO.P,U1,11,UART1_TX/I2C0_SDA/SPI1_RX/GP8*%
%TO.N,unconnected-(U1-Pad11)*%
X229616000Y-77724000D03*
%TO.P,U1,10,I2C1_SCL/SPI0_TX/GP7*%
%TO.N,unconnected-(U1-Pad10)*%
X229616000Y-75184000D03*
%TO.P,U1,9,I2C1_SDA/SPI0_SCK/GP6*%
%TO.N,unconnected-(U1-Pad9)*%
X229616000Y-72644000D03*
%TO.P,U1,8,GND*%
%TO.N,GND*%
X229616000Y-70104000D03*
%TO.P,U1,7,UART1_RX/I2C0_SCL/SPI0_CSn/GP5*%
%TO.N,/SCL*%
X229616000Y-67564000D03*
%TO.P,U1,6,UART1_TX/I2C0_SDA/SPI0_RX/GP4*%
%TO.N,/SDA*%
X229616000Y-65024000D03*
%TO.P,U1,5,I2C1_SCL/SPI0_TX/GP3*%
%TO.N,unconnected-(U1-Pad5)*%
X229616000Y-62484000D03*
%TO.P,U1,4,I2C1_SDA/SPI0_SCK/GP2*%
%TO.N,unconnected-(U1-Pad4)*%
X229616000Y-59944000D03*
%TO.P,U1,3,GND*%
%TO.N,GND*%
X229616000Y-57404000D03*
%TO.P,U1,2,UART0_RX/I2C0_SCL/GPI0_CSn/GP1*%
%TO.N,/SAO2*%
X229616000Y-54864000D03*
%TO.P,U1,1,UART0_TX/I2C0_SDA/SPI0_RX/GP0*%
%TO.N,/SAO1*%
X229616000Y-52324000D03*
%TD*%
D12*
%TO.P,R10,1*%
%TO.N,Net-(D16-Pad2)*%
X242808000Y-102616000D03*
%TO.P,R10,2*%
%TO.N,Net-(R10-Pad2)*%
X240808000Y-102616000D03*
%TD*%
%TO.P,R9,1*%
%TO.N,Net-(D15-Pad2)*%
X242792000Y-106172000D03*
%TO.P,R9,2*%
%TO.N,Net-(R10-Pad2)*%
X240792000Y-106172000D03*
%TD*%
%TO.P,R8,1*%
%TO.N,Net-(D14-Pad2)*%
X242808000Y-109982000D03*
%TO.P,R8,2*%
%TO.N,Net-(R10-Pad2)*%
X240808000Y-109982000D03*
%TD*%
%TO.P,R7,1*%
%TO.N,Net-(D13-Pad2)*%
X242808000Y-113792000D03*
%TO.P,R7,2*%
%TO.N,Net-(R10-Pad2)*%
X240808000Y-113792000D03*
%TD*%
%TO.P,R6,1*%
%TO.N,Net-(D12-Pad2)*%
X242808000Y-117602000D03*
%TO.P,R6,2*%
%TO.N,Net-(R10-Pad2)*%
X240808000Y-117602000D03*
%TD*%
%TO.P,R5,1*%
%TO.N,Net-(D11-Pad2)*%
X207756000Y-120904000D03*
%TO.P,R5,2*%
%TO.N,Net-(R1-Pad2)*%
X205756000Y-120904000D03*
%TD*%
%TO.P,R4,1*%
%TO.N,Net-(D10-Pad2)*%
X207756000Y-117348000D03*
%TO.P,R4,2*%
%TO.N,Net-(R1-Pad2)*%
X205756000Y-117348000D03*
%TD*%
%TO.P,R3,1*%
%TO.N,Net-(D9-Pad2)*%
X199898000Y-98044000D03*
%TO.P,R3,2*%
%TO.N,Net-(R1-Pad2)*%
X197898000Y-98044000D03*
%TD*%
%TO.P,R2,1*%
%TO.N,Net-(D8-Pad2)*%
X204708000Y-98044000D03*
%TO.P,R2,2*%
%TO.N,Net-(R1-Pad2)*%
X202708000Y-98044000D03*
%TD*%
%TO.P,R1,1*%
%TO.N,Net-(D7-Pad2)*%
X204724000Y-94742000D03*
%TO.P,R1,2*%
%TO.N,Net-(R1-Pad2)*%
X202724000Y-94742000D03*
%TD*%
D13*
%TO.P,SAO,6,Pin_6*%
%TO.N,/SAO2*%
X241147600Y-62077600D03*
%TO.P,SAO,5,Pin_5*%
%TO.N,/SAO1*%
X241147600Y-59537600D03*
%TO.P,SAO,4,Pin_4*%
%TO.N,/SCL*%
X238607600Y-62077600D03*
%TO.P,SAO,3,Pin_3*%
%TO.N,/SDA*%
X238607600Y-59537600D03*
%TO.P,SAO,2,Pin_2*%
%TO.N,GND*%
X236067600Y-62077600D03*
D14*
%TO.P,SAO,1,Pin_1*%
%TO.N,+3V3*%
X236067600Y-59537600D03*
%TD*%
D15*
%TO.P,D1,1,K*%
%TO.N,Net-(D1-Pad1)*%
X214252000Y-108712000D03*
%TO.P,D1,2,A*%
%TO.N,+BATT*%
X211452000Y-108712000D03*
%TD*%
D16*
%TO.P,Battery,1,+*%
%TO.N,+BATT*%
X201914000Y-104338000D03*
%TO.P,Battery,2,-*%
%TO.N,GND*%
X199914000Y-104338000D03*
D17*
%TO.P,Battery,MP*%
X204264000Y-110088000D03*
X197564000Y-110088000D03*
%TD*%
D18*
%TO.N,+3V3*%
X212902800Y-60756800D03*
%TO.N,GND*%
X203962000Y-118364000D03*
X209042000Y-118872000D03*
X205486000Y-100584000D03*
X199898000Y-94234000D03*
X211836000Y-95504000D03*
X220218000Y-108204000D03*
X220726000Y-99060000D03*
X195834000Y-126238000D03*
%TO.N,Net-(SW1-Pad1)*%
X207264000Y-105156000D03*
%TO.N,Net-(SW5-Pad1)*%
X208280000Y-103378000D03*
%TO.N,Net-(SW3-Pad1)*%
X218694000Y-105918000D03*
X218694000Y-98806000D03*
X211582000Y-93726000D03*
%TO.N,Net-(SW4-Pad1)*%
X211836000Y-90424000D03*
X225044000Y-99568000D03*
X221742000Y-105156000D03*
%TO.N,/LED_DATA_1*%
X205740000Y-103378000D03*
%TO.N,Net-(D2-Pad2)*%
X215392000Y-86360000D03*
X212090000Y-113538000D03*
%TO.N,Net-(SW2-Pad1)*%
X207899000Y-85471000D03*
%TO.N,Net-(D12-Pad2)*%
X242062000Y-117094000D03*
%TO.N,Net-(D13-Pad2)*%
X244602000Y-119380000D03*
%TO.N,Net-(D14-Pad2)*%
X247650000Y-109982000D03*
%TO.N,Net-(D15-Pad2)*%
X248666000Y-102616000D03*
%TO.N,Net-(D16-Pad2)*%
X242824000Y-94742000D03*
%TO.N,Net-(D5-Pad2)*%
X248158000Y-120650000D03*
X234950000Y-101600000D03*
%TO.N,Net-(SW6-Pad1)*%
X211836000Y-101346000D03*
%TO.N,GND*%
X226822000Y-84328000D03*
X206502000Y-82042000D03*
X237236000Y-82042000D03*
%TO.N,Net-(D9-Pad2)*%
X198628000Y-100584000D03*
%TO.N,Net-(D8-Pad2)*%
X202184000Y-99822000D03*
%TO.N,Net-(D7-Pad2)*%
X204724000Y-92710000D03*
%TO.N,Net-(D10-Pad2)*%
X207772000Y-123698000D03*
%TO.N,Net-(D11-Pad2)*%
X215900000Y-118872000D03*
%TO.N,+3V3*%
X211387534Y-112208466D03*
X195580000Y-114300000D03*
X212852000Y-79248000D03*
%TD*%
D19*
%TO.N,GND*%
X220040200Y-99060000D02*
X219925900Y-99174300D01*
X219925900Y-99174300D02*
X219925900Y-101152960D01*
X220726000Y-99060000D02*
X220040200Y-99060000D01*
D20*
%TO.N,/SDA*%
X235114803Y-60739512D02*
G75*
G03*
X234407697Y-61032405I-3J-999993D01*
G01*
X236991475Y-60739510D02*
G75*
G03*
X237698581Y-60446617I3J999993D01*
G01*
X236991475Y-60739511D02*
X235114803Y-60739511D01*
X234407696Y-61032404D02*
X230416100Y-65024000D01*
X238607600Y-59537600D02*
X237698582Y-60446618D01*
D21*
%TO.N,/SAO2*%
X233112558Y-54864000D02*
G75*
G02*
X237355199Y-56621360I0J-5999999D01*
G01*
X240170493Y-61100493D02*
G75*
G02*
X239877600Y-60393386I707106J707106D01*
G01*
X239584707Y-58850868D02*
G75*
G02*
X239877600Y-59557975I-707106J-707106D01*
G01*
X239877600Y-59557975D02*
X239877600Y-60393386D01*
X237355199Y-56621360D02*
X239584707Y-58850868D01*
X240170493Y-61100493D02*
X241147600Y-62077600D01*
X229616000Y-54864000D02*
X233112558Y-54864000D01*
D20*
%TO.N,/SCL*%
X234878560Y-65806640D02*
G75*
G02*
X230635919Y-67564000I-4242641J4242639D01*
G01*
X234878560Y-65806640D02*
X238607600Y-62077600D01*
X229616000Y-67564000D02*
X230635919Y-67564000D01*
D21*
%TO.N,/SAO1*%
X231448719Y-52324000D02*
G75*
G02*
X235691360Y-54081360I0J-5999999D01*
G01*
X235691360Y-54081360D02*
X241147600Y-59537600D01*
X229616000Y-52324000D02*
X231448719Y-52324000D01*
D19*
%TO.N,+3V3*%
X211175600Y-62484000D02*
X212902800Y-60756800D01*
X210235800Y-62484000D02*
X211175600Y-62484000D01*
D21*
%TO.N,Net-(D12-Pad2)*%
X242300000Y-117094000D02*
X242808000Y-117602000D01*
X242062000Y-117094000D02*
X242300000Y-117094000D01*
D20*
%TO.N,Net-(D10-Pad2)*%
X207096973Y-123022973D02*
G75*
G02*
X206804080Y-122315866I707106J707106D01*
G01*
X206804081Y-118714134D02*
G75*
G02*
X207096974Y-118007028I999993J3D01*
G01*
%TO.N,Net-(R1-Pad2)*%
X214767320Y-112130680D02*
G75*
G03*
X215646000Y-110009359I-2121325J2121323D01*
G01*
X205756000Y-116570000D02*
X205756000Y-117348000D01*
X206170213Y-116155787D02*
X205756000Y-116570000D01*
X209256932Y-115570000D02*
X207584427Y-115570000D01*
X214767320Y-112130680D02*
X212792466Y-114105534D01*
X215646000Y-100617165D02*
X215646000Y-110009359D01*
X206170213Y-116155787D02*
G75*
G02*
X207584427Y-115570000I1414214J-1414213D01*
G01*
X209256932Y-115570000D02*
G75*
G03*
X212792466Y-114105534I1J4999998D01*
G01*
X229616000Y-98044000D02*
X218219165Y-98044000D01*
X215646001Y-100617165D02*
G75*
G02*
X216231787Y-99202953I1999999J0D01*
G01*
X216804951Y-98629787D02*
X216231786Y-99202952D01*
X216804951Y-98629787D02*
G75*
G02*
X218219165Y-98044000I1414214J-1414213D01*
G01*
D21*
%TO.N,Net-(D2-Pad2)*%
X212382893Y-112483107D02*
G75*
G03*
X212090000Y-113190214I707106J-707106D01*
G01*
X214845107Y-110020893D02*
G75*
G03*
X215138000Y-109313786I-707106J707106D01*
G01*
X215138000Y-109313786D02*
X215138000Y-86614000D01*
X212382893Y-112483107D02*
X214845107Y-110020893D01*
X212090000Y-113538000D02*
X212090000Y-113190214D01*
X215138000Y-86614000D02*
X215392000Y-86360000D01*
D20*
%TO.N,Net-(D7-Pad2)*%
X204724000Y-92710000D02*
X204724000Y-94742000D01*
%TO.N,Net-(R1-Pad2)*%
X194310000Y-116453146D02*
G75*
G03*
X195481573Y-119281573I3999999J0D01*
G01*
X198760854Y-120904000D02*
G75*
G02*
X195932427Y-119732427I0J3999999D01*
G01*
X194310000Y-116453146D02*
X194310000Y-108243068D01*
X195932427Y-119732427D02*
X195481573Y-119281573D01*
X205756000Y-120904000D02*
X198760854Y-120904000D01*
D21*
%TO.N,Net-(SW1-Pad1)*%
X207264000Y-104394000D02*
X207264000Y-105156000D01*
X208142679Y-88474841D02*
G75*
G03*
X207264000Y-90596161I2121319J-2121319D01*
G01*
X208733520Y-87884000D02*
X208142679Y-88474841D01*
X207264000Y-90596161D02*
X207264000Y-104394000D01*
X210235800Y-87884000D02*
X208733520Y-87884000D01*
%TO.N,Net-(SW5-Pad1)*%
X208572893Y-98513107D02*
G75*
G03*
X208280000Y-99220214I707106J-707106D01*
G01*
X208572893Y-98513107D02*
X209042000Y-98044000D01*
X208280000Y-103378000D02*
X208280000Y-99220214D01*
X209042000Y-98044000D02*
X210235800Y-98044000D01*
%TO.N,Net-(SW3-Pad1)*%
X218694000Y-98806000D02*
X218694000Y-105918000D01*
X210997800Y-93726000D02*
X211582000Y-93726000D01*
X210235800Y-92964000D02*
X210997800Y-93726000D01*
%TO.N,Net-(SW4-Pad1)*%
X225043999Y-103725786D02*
G75*
G02*
X224751106Y-104432892I-999993J-3D01*
G01*
X224320893Y-104863107D02*
G75*
G02*
X223613786Y-105156000I-707106J707106D01*
G01*
X211836000Y-90424000D02*
X210235800Y-90424000D01*
X225044000Y-103725786D02*
X225044000Y-99568000D01*
X224320893Y-104863107D02*
X224751107Y-104432893D01*
X221742000Y-105156000D02*
X223613786Y-105156000D01*
%TO.N,/LED_DATA_1*%
X206755999Y-101533573D02*
G75*
G02*
X206170213Y-102947785I-1999999J0D01*
G01*
X206756001Y-89138905D02*
G75*
G02*
X207341788Y-87724692I1999999J0D01*
G01*
X210566000Y-80264000D02*
X210235800Y-80264000D01*
X212162511Y-81860511D02*
X210566000Y-80264000D01*
X212162511Y-86470611D02*
X212162511Y-81860511D01*
X212019122Y-86614000D02*
X212162511Y-86470611D01*
X208452478Y-86614000D02*
X212019122Y-86614000D01*
X207341787Y-87724691D02*
X208452478Y-86614000D01*
X206756000Y-101533573D02*
X206756000Y-89138905D01*
X205740000Y-103378000D02*
X206170214Y-102947786D01*
%TO.N,Net-(SW2-Pad1)*%
X210108800Y-85471000D02*
X210235800Y-85344000D01*
X207899000Y-85471000D02*
X210108800Y-85471000D01*
%TO.N,Net-(D13-Pad2)*%
X244602000Y-116828641D02*
G75*
G03*
X243723321Y-114707321I-2999998J1D01*
G01*
X244602000Y-116828641D02*
X244602000Y-119380000D01*
X242808000Y-113792000D02*
X243723321Y-114707321D01*
%TO.N,Net-(D14-Pad2)*%
X242808000Y-109982000D02*
X247650000Y-109982000D01*
%TO.N,Net-(D15-Pad2)*%
X245988680Y-105293320D02*
G75*
G02*
X243867359Y-106172000I-2121323J2121325D01*
G01*
X245988680Y-105293320D02*
X248666000Y-102616000D01*
X242792000Y-106172000D02*
X243867359Y-106172000D01*
%TO.N,Net-(D16-Pad2)*%
X242808000Y-94758000D02*
X242824000Y-94742000D01*
X242808000Y-102616000D02*
X242808000Y-94758000D01*
%TO.N,Net-(D5-Pad2)*%
X238760000Y-107481068D02*
G75*
G03*
X237295534Y-103945534I-4999998J1D01*
G01*
X239659321Y-119771321D02*
G75*
G03*
X241780641Y-120650000I2121319J2121319D01*
G01*
X239638680Y-119750680D02*
G75*
G02*
X238760000Y-117629359I2121325J2121323D01*
G01*
X241780641Y-120650000D02*
X248158000Y-120650000D01*
X238760000Y-107481068D02*
X238760000Y-117629359D01*
X234950000Y-101600000D02*
X237295534Y-103945534D01*
X239638680Y-119750680D02*
X239659321Y-119771321D01*
%TO.N,Net-(SW5-Pad1)*%
X208788000Y-98044000D02*
X210235800Y-98044000D01*
%TO.N,Net-(SW6-Pad1)*%
X210997800Y-101346000D02*
X210235800Y-100584000D01*
X211836000Y-101346000D02*
X210997800Y-101346000D01*
D20*
%TO.N,Net-(R1-Pad2)*%
X195774466Y-104707534D02*
G75*
G03*
X194310000Y-108243068I3535532J-3535533D01*
G01*
X202438000Y-98044000D02*
X195774466Y-104707534D01*
X202708000Y-98044000D02*
X202438000Y-98044000D01*
X202724000Y-98028000D02*
X202708000Y-98044000D01*
X202724000Y-94742000D02*
X202724000Y-98028000D01*
X202028427Y-94742001D02*
G75*
G03*
X200614215Y-95327787I0J-1999999D01*
G01*
X202028427Y-94742000D02*
X202724000Y-94742000D01*
X197898000Y-98044000D02*
X200614214Y-95327786D01*
%TO.N,Net-(D9-Pad2)*%
X199897999Y-98899786D02*
G75*
G02*
X199605106Y-99606892I-999993J-3D01*
G01*
X199605107Y-99606893D02*
X198628000Y-100584000D01*
X199898000Y-98044000D02*
X199898000Y-98899786D01*
%TO.N,Net-(D8-Pad2)*%
X202515786Y-99821999D02*
G75*
G03*
X203222892Y-99529106I3J999993D01*
G01*
X204708000Y-98044000D02*
X203222893Y-99529107D01*
X202515786Y-99822000D02*
X202184000Y-99822000D01*
%TO.N,Net-(D10-Pad2)*%
X207096973Y-123022973D02*
X207772000Y-123698000D01*
X206804080Y-118714134D02*
X206804080Y-122315866D01*
X207756000Y-117348000D02*
X207096973Y-118007027D01*
%TO.N,Net-(D11-Pad2)*%
X212625359Y-120903999D02*
G75*
G03*
X214746679Y-120025319I3J2999993D01*
G01*
X214746680Y-120025320D02*
X215900000Y-118872000D01*
X207756000Y-120904000D02*
X212625359Y-120904000D01*
%TO.N,Net-(R1-Pad2)*%
X205756000Y-117348000D02*
X205756000Y-120904000D01*
%TO.N,Net-(R10-Pad2)*%
X240162680Y-101462680D02*
G75*
G03*
X238041359Y-100584000I-2121323J-2121325D01*
G01*
X240808000Y-113792000D02*
X240808000Y-117856000D01*
X240808000Y-109982000D02*
X240808000Y-113792000D01*
X240808000Y-105918000D02*
X240808000Y-109982000D01*
X240808000Y-102108000D02*
X240808000Y-105918000D01*
X240162680Y-101462680D02*
X240808000Y-102108000D01*
X229616000Y-100584000D02*
X238041359Y-100584000D01*
D19*
%TO.N,+3V3*%
X207224932Y-114300000D02*
G75*
G03*
X210760466Y-112835534I1J4999998D01*
G01*
X212852000Y-108672932D02*
G75*
G02*
X211387534Y-112208466I-4999998J-1D01*
G01*
X207224932Y-114300000D02*
X195580000Y-114300000D01*
X211387534Y-112208466D02*
X210760466Y-112835534D01*
X212852000Y-79248000D02*
X212852000Y-108672932D01*
%TO.N,+BATT*%
X210378427Y-108711999D02*
G75*
G02*
X208964215Y-108126213I0J1999999D01*
G01*
X204347573Y-104338001D02*
G75*
G02*
X205761786Y-104923788I0J-1999999D01*
G01*
%TO.N,+3V3*%
X212852000Y-65542741D02*
G75*
G03*
X211973321Y-63421421I-2999998J1D01*
G01*
%TO.N,Net-(D1-Pad1)*%
X213373320Y-57201420D02*
G75*
G02*
X214252000Y-59322741I-2121325J-2121323D01*
G01*
X214252000Y-108712000D02*
X214252000Y-59322741D01*
X213373320Y-57201420D02*
X211035900Y-54864000D01*
X211035900Y-54864000D02*
X210235800Y-54864000D01*
%TO.N,+3V3*%
X212852000Y-65542741D02*
X212852000Y-79248000D01*
X211035900Y-62484000D02*
X211973321Y-63421421D01*
X210235800Y-62484000D02*
X211035900Y-62484000D01*
D21*
%TO.N,/SDA*%
X229616000Y-65024000D02*
X230416100Y-65024000D01*
D19*
%TO.N,+BATT*%
X210378427Y-108712000D02*
X211452000Y-108712000D01*
X205761787Y-104923787D02*
X208964214Y-108126214D01*
X201914000Y-104338000D02*
X204347573Y-104338000D01*
%TD*%
%TA.AperFunction,Conductor*%
%TO.N,GND*%
G36*
X227395120Y-51247784D02*
G01*
X227463224Y-51267840D01*
X227509675Y-51321532D01*
X227519723Y-51391814D01*
X227517602Y-51402932D01*
X227516828Y-51406187D01*
X227514055Y-51413584D01*
X227507300Y-51475766D01*
X227507300Y-53172234D01*
X227514055Y-53234416D01*
X227565185Y-53370805D01*
X227652539Y-53487361D01*
X227659718Y-53492741D01*
X227660297Y-53493175D01*
X227660727Y-53493750D01*
X227666069Y-53499092D01*
X227665298Y-53499863D01*
X227702811Y-53550035D01*
X227707835Y-53620854D01*
X227673774Y-53683146D01*
X227660300Y-53694823D01*
X227652539Y-53700639D01*
X227565185Y-53817195D01*
X227514055Y-53953584D01*
X227507300Y-54015766D01*
X227507300Y-55712234D01*
X227514055Y-55774416D01*
X227565185Y-55910805D01*
X227652539Y-56027361D01*
X227659719Y-56032742D01*
X227660709Y-56033484D01*
X227661444Y-56034467D01*
X227666069Y-56039092D01*
X227665402Y-56039759D01*
X227703226Y-56090342D01*
X227708253Y-56161161D01*
X227674195Y-56223455D01*
X227660714Y-56235137D01*
X227660075Y-56235616D01*
X227647515Y-56248176D01*
X227571014Y-56350251D01*
X227562476Y-56365846D01*
X227517322Y-56486294D01*
X227513695Y-56501549D01*
X227508169Y-56552414D01*
X227507800Y-56559228D01*
X227507800Y-57131885D01*
X227512275Y-57147124D01*
X227513665Y-57148329D01*
X227521348Y-57150000D01*
X231706084Y-57150000D01*
X231721323Y-57145525D01*
X231722528Y-57144135D01*
X231724199Y-57136452D01*
X231724199Y-56559231D01*
X231723829Y-56552410D01*
X231718305Y-56501548D01*
X231714679Y-56486296D01*
X231669524Y-56365846D01*
X231660986Y-56350251D01*
X231584485Y-56248176D01*
X231571925Y-56235616D01*
X231571286Y-56235137D01*
X231570812Y-56234503D01*
X231565574Y-56229265D01*
X231566330Y-56228509D01*
X231528772Y-56178277D01*
X231523748Y-56107458D01*
X231557809Y-56045165D01*
X231571291Y-56033484D01*
X231572281Y-56032742D01*
X231579461Y-56027361D01*
X231666815Y-55910805D01*
X231717945Y-55774416D01*
X231724700Y-55712234D01*
X231724700Y-55625500D01*
X231744702Y-55557379D01*
X231798358Y-55510886D01*
X231850700Y-55499500D01*
X233062405Y-55499500D01*
X233078851Y-55500578D01*
X233098323Y-55503142D01*
X233098327Y-55503142D01*
X233105854Y-55504133D01*
X233117856Y-55502808D01*
X233129202Y-55501556D01*
X233147973Y-55500892D01*
X233528502Y-55515843D01*
X233538365Y-55516619D01*
X233946840Y-55564965D01*
X233956611Y-55566513D01*
X234162281Y-55607423D01*
X234360033Y-55646759D01*
X234369634Y-55649064D01*
X234581504Y-55708817D01*
X234765510Y-55760712D01*
X234774919Y-55763769D01*
X235160819Y-55906135D01*
X235169959Y-55909921D01*
X235319002Y-55978631D01*
X235543500Y-56082126D01*
X235552305Y-56086613D01*
X235911186Y-56287596D01*
X235919622Y-56292765D01*
X236261621Y-56521282D01*
X236269610Y-56527086D01*
X236514694Y-56720295D01*
X236592633Y-56781737D01*
X236600156Y-56788162D01*
X236874229Y-57041512D01*
X236888661Y-57057331D01*
X236897816Y-57069262D01*
X236917082Y-57084697D01*
X236925359Y-57091328D01*
X236935674Y-57100567D01*
X237981987Y-58146880D01*
X238016013Y-58209192D01*
X238010948Y-58280007D01*
X237968401Y-58336843D01*
X237951086Y-58347730D01*
X237881207Y-58384107D01*
X237877074Y-58387210D01*
X237877071Y-58387212D01*
X237706700Y-58515130D01*
X237702565Y-58518235D01*
X237644028Y-58579491D01*
X237621883Y-58602664D01*
X237560359Y-58638094D01*
X237489446Y-58634637D01*
X237431660Y-58593391D01*
X237412807Y-58559843D01*
X237371367Y-58449303D01*
X237368215Y-58440895D01*
X237280861Y-58324339D01*
X237164305Y-58236985D01*
X237027916Y-58185855D01*
X236965734Y-58179100D01*
X235169466Y-58179100D01*
X235107284Y-58185855D01*
X234970895Y-58236985D01*
X234854339Y-58324339D01*
X234766985Y-58440895D01*
X234715855Y-58577284D01*
X234709100Y-58639466D01*
X234709100Y-60032955D01*
X234689098Y-60101076D01*
X234635442Y-60147569D01*
X234623601Y-60152268D01*
X234481745Y-60200421D01*
X234481735Y-60200425D01*
X234477841Y-60201747D01*
X234474148Y-60203568D01*
X234474146Y-60203569D01*
X234286275Y-60296216D01*
X234286270Y-60296219D01*
X234282571Y-60298043D01*
X234101541Y-60419004D01*
X234098436Y-60421727D01*
X233972158Y-60532471D01*
X233964732Y-60538501D01*
X233946898Y-60551891D01*
X233943951Y-60554776D01*
X233943946Y-60554781D01*
X233939882Y-60558761D01*
X233936936Y-60561646D01*
X233934393Y-60564889D01*
X233934386Y-60564897D01*
X233916687Y-60587469D01*
X233906629Y-60598817D01*
X232821362Y-61684085D01*
X231939795Y-62565652D01*
X231877483Y-62599677D01*
X231806668Y-62594613D01*
X231749832Y-62552066D01*
X231725021Y-62485546D01*
X231724700Y-62476557D01*
X231724700Y-61635766D01*
X231717945Y-61573584D01*
X231666815Y-61437195D01*
X231579461Y-61320639D01*
X231571702Y-61314824D01*
X231571273Y-61314250D01*
X231565931Y-61308908D01*
X231566702Y-61308137D01*
X231529189Y-61257965D01*
X231524165Y-61187146D01*
X231558226Y-61124854D01*
X231571703Y-61113175D01*
X231572282Y-61112741D01*
X231579461Y-61107361D01*
X231666815Y-60990805D01*
X231717945Y-60854416D01*
X231724700Y-60792234D01*
X231724700Y-59095766D01*
X231717945Y-59033584D01*
X231666815Y-58897195D01*
X231579461Y-58780639D01*
X231571291Y-58774516D01*
X231570556Y-58773533D01*
X231565931Y-58768908D01*
X231566598Y-58768241D01*
X231528774Y-58717658D01*
X231523747Y-58646839D01*
X231557805Y-58584545D01*
X231571286Y-58572863D01*
X231571925Y-58572384D01*
X231584485Y-58559824D01*
X231660986Y-58457749D01*
X231669524Y-58442154D01*
X231714678Y-58321706D01*
X231718305Y-58306451D01*
X231723831Y-58255586D01*
X231724200Y-58248772D01*
X231724200Y-57676115D01*
X231719725Y-57660876D01*
X231718335Y-57659671D01*
X231710652Y-57658000D01*
X227525916Y-57658000D01*
X227510677Y-57662475D01*
X227509472Y-57663865D01*
X227507801Y-57671548D01*
X227507801Y-58248769D01*
X227508171Y-58255590D01*
X227513695Y-58306452D01*
X227517321Y-58321704D01*
X227562476Y-58442154D01*
X227571014Y-58457749D01*
X227647515Y-58559824D01*
X227660075Y-58572384D01*
X227660714Y-58572863D01*
X227661188Y-58573497D01*
X227666426Y-58578735D01*
X227665670Y-58579491D01*
X227703228Y-58629723D01*
X227708252Y-58700542D01*
X227674191Y-58762835D01*
X227660710Y-58774515D01*
X227652539Y-58780639D01*
X227565185Y-58897195D01*
X227514055Y-59033584D01*
X227507300Y-59095766D01*
X227507300Y-60792234D01*
X227514055Y-60854416D01*
X227565185Y-60990805D01*
X227652539Y-61107361D01*
X227659718Y-61112741D01*
X227660297Y-61113175D01*
X227660727Y-61113750D01*
X227666069Y-61119092D01*
X227665298Y-61119863D01*
X227702811Y-61170035D01*
X227707835Y-61240854D01*
X227673774Y-61303146D01*
X227660300Y-61314823D01*
X227652539Y-61320639D01*
X227565185Y-61437195D01*
X227514055Y-61573584D01*
X227507300Y-61635766D01*
X227507300Y-63332234D01*
X227514055Y-63394416D01*
X227565185Y-63530805D01*
X227652539Y-63647361D01*
X227659718Y-63652741D01*
X227660297Y-63653175D01*
X227660727Y-63653750D01*
X227666069Y-63659092D01*
X227665298Y-63659863D01*
X227702811Y-63710035D01*
X227707835Y-63780854D01*
X227673774Y-63843146D01*
X227660300Y-63854823D01*
X227652539Y-63860639D01*
X227565185Y-63977195D01*
X227514055Y-64113584D01*
X227507300Y-64175766D01*
X227507300Y-65872234D01*
X227514055Y-65934416D01*
X227565185Y-66070805D01*
X227652539Y-66187361D01*
X227659718Y-66192741D01*
X227660297Y-66193175D01*
X227660727Y-66193750D01*
X227666069Y-66199092D01*
X227665298Y-66199863D01*
X227702811Y-66250035D01*
X227707835Y-66320854D01*
X227673774Y-66383146D01*
X227660300Y-66394823D01*
X227652539Y-66400639D01*
X227565185Y-66517195D01*
X227514055Y-66653584D01*
X227507300Y-66715766D01*
X227507300Y-68412234D01*
X227514055Y-68474416D01*
X227565185Y-68610805D01*
X227652539Y-68727361D01*
X227659719Y-68732742D01*
X227660709Y-68733484D01*
X227661444Y-68734467D01*
X227666069Y-68739092D01*
X227665402Y-68739759D01*
X227703226Y-68790342D01*
X227708253Y-68861161D01*
X227674195Y-68923455D01*
X227660714Y-68935137D01*
X227660075Y-68935616D01*
X227647515Y-68948176D01*
X227571014Y-69050251D01*
X227562476Y-69065846D01*
X227517322Y-69186294D01*
X227513695Y-69201549D01*
X227508169Y-69252414D01*
X227507800Y-69259228D01*
X227507800Y-69831885D01*
X227512275Y-69847124D01*
X227513665Y-69848329D01*
X227521348Y-69850000D01*
X231706084Y-69850000D01*
X231721323Y-69845525D01*
X231722528Y-69844135D01*
X231724199Y-69836452D01*
X231724199Y-69259231D01*
X231723829Y-69252410D01*
X231718305Y-69201548D01*
X231714679Y-69186296D01*
X231669524Y-69065846D01*
X231660986Y-69050251D01*
X231584485Y-68948176D01*
X231571925Y-68935616D01*
X231571286Y-68935137D01*
X231570812Y-68934503D01*
X231565574Y-68929265D01*
X231566330Y-68928509D01*
X231528772Y-68878277D01*
X231523748Y-68807458D01*
X231557809Y-68745165D01*
X231571291Y-68733484D01*
X231572281Y-68732742D01*
X231579461Y-68727361D01*
X231666815Y-68610805D01*
X231717945Y-68474416D01*
X231724700Y-68412234D01*
X231724700Y-68241306D01*
X231744702Y-68173185D01*
X231798358Y-68126692D01*
X231828328Y-68117308D01*
X232019484Y-68082820D01*
X232052698Y-68076827D01*
X232513708Y-67959162D01*
X232515835Y-67958454D01*
X232515842Y-67958452D01*
X232963022Y-67809615D01*
X232963024Y-67809614D01*
X232965149Y-67808907D01*
X233311720Y-67665353D01*
X233402655Y-67627687D01*
X233402661Y-67627684D01*
X233404721Y-67626831D01*
X233830184Y-67413859D01*
X234239370Y-67171078D01*
X234241218Y-67169795D01*
X234628357Y-66900999D01*
X234628361Y-66900996D01*
X234630193Y-66899724D01*
X235000662Y-66601181D01*
X235327227Y-66297139D01*
X235332953Y-66292349D01*
X235332928Y-66292320D01*
X235336060Y-66289631D01*
X235339358Y-66287154D01*
X235349319Y-66277399D01*
X235351861Y-66274157D01*
X235351870Y-66274147D01*
X235369568Y-66251576D01*
X235379626Y-66240228D01*
X238184348Y-63435506D01*
X238246660Y-63401480D01*
X238298564Y-63401131D01*
X238441126Y-63430136D01*
X238441134Y-63430137D01*
X238446197Y-63431167D01*
X238564526Y-63435506D01*
X238664273Y-63439164D01*
X238664277Y-63439164D01*
X238669437Y-63439353D01*
X238674557Y-63438697D01*
X238674559Y-63438697D01*
X238885888Y-63411625D01*
X238885889Y-63411625D01*
X238891016Y-63410968D01*
X238904209Y-63407010D01*
X239100029Y-63348261D01*
X239100034Y-63348259D01*
X239104984Y-63346774D01*
X239305594Y-63248496D01*
X239487460Y-63118773D01*
X239645696Y-62961089D01*
X239695798Y-62891365D01*
X239776053Y-62779677D01*
X239777376Y-62780628D01*
X239824245Y-62737457D01*
X239894180Y-62725225D01*
X239959626Y-62752744D01*
X239987475Y-62784594D01*
X240047587Y-62882688D01*
X240193850Y-63051538D01*
X240365726Y-63194232D01*
X240558600Y-63306938D01*
X240767292Y-63386630D01*
X240772360Y-63387661D01*
X240772363Y-63387662D01*
X240841928Y-63401815D01*
X240986197Y-63431167D01*
X240991372Y-63431357D01*
X240991374Y-63431357D01*
X241204273Y-63439164D01*
X241204277Y-63439164D01*
X241209437Y-63439353D01*
X241214557Y-63438697D01*
X241214559Y-63438697D01*
X241425888Y-63411625D01*
X241425889Y-63411625D01*
X241431016Y-63410968D01*
X241444209Y-63407010D01*
X241640029Y-63348261D01*
X241640034Y-63348259D01*
X241644984Y-63346774D01*
X241845594Y-63248496D01*
X242027460Y-63118773D01*
X242185696Y-62961089D01*
X242235798Y-62891365D01*
X242313035Y-62783877D01*
X242316053Y-62779677D01*
X242330144Y-62751167D01*
X242412736Y-62584053D01*
X242412737Y-62584051D01*
X242415030Y-62579411D01*
X242479970Y-62365669D01*
X242509129Y-62144190D01*
X242510756Y-62077600D01*
X242492452Y-61854961D01*
X242438031Y-61638302D01*
X242348954Y-61433440D01*
X242272499Y-61315259D01*
X242230422Y-61250217D01*
X242230420Y-61250214D01*
X242227614Y-61245877D01*
X242077270Y-61080651D01*
X242073219Y-61077452D01*
X242073215Y-61077448D01*
X241906014Y-60945400D01*
X241906010Y-60945398D01*
X241901959Y-60942198D01*
X241860653Y-60919396D01*
X241810684Y-60868964D01*
X241795912Y-60799521D01*
X241821028Y-60733116D01*
X241848380Y-60706509D01*
X241892203Y-60675250D01*
X242027460Y-60578773D01*
X242185696Y-60421089D01*
X242316053Y-60239677D01*
X242335455Y-60200421D01*
X242412736Y-60044053D01*
X242412737Y-60044051D01*
X242415030Y-60039411D01*
X242479970Y-59825669D01*
X242509129Y-59604190D01*
X242510756Y-59537600D01*
X242492452Y-59314961D01*
X242438031Y-59098302D01*
X242348954Y-58893440D01*
X242264462Y-58762835D01*
X242230422Y-58710217D01*
X242230420Y-58710214D01*
X242227614Y-58705877D01*
X242077270Y-58540651D01*
X242073219Y-58537452D01*
X242073215Y-58537448D01*
X241906014Y-58405400D01*
X241906010Y-58405398D01*
X241901959Y-58402198D01*
X241706389Y-58294238D01*
X241701520Y-58292514D01*
X241701516Y-58292512D01*
X241500687Y-58221395D01*
X241500683Y-58221394D01*
X241495812Y-58219669D01*
X241490719Y-58218762D01*
X241490716Y-58218761D01*
X241280973Y-58181400D01*
X241280967Y-58181399D01*
X241275884Y-58180494D01*
X241202052Y-58179592D01*
X241057681Y-58177828D01*
X241057679Y-58177828D01*
X241052511Y-58177765D01*
X240905227Y-58200303D01*
X240836800Y-58210773D01*
X240836797Y-58210774D01*
X240831691Y-58211555D01*
X240826784Y-58213159D01*
X240826771Y-58213162D01*
X240821261Y-58214963D01*
X240750297Y-58217112D01*
X240693025Y-58184292D01*
X236356733Y-53848000D01*
X238416526Y-53848000D01*
X238436391Y-54100403D01*
X238437545Y-54105210D01*
X238437546Y-54105216D01*
X238470190Y-54241186D01*
X238495495Y-54346591D01*
X238497388Y-54351162D01*
X238497389Y-54351164D01*
X238587151Y-54567868D01*
X238592384Y-54580502D01*
X238724672Y-54796376D01*
X238889102Y-54988898D01*
X239081624Y-55153328D01*
X239297498Y-55285616D01*
X239302068Y-55287509D01*
X239302072Y-55287511D01*
X239526836Y-55380611D01*
X239531409Y-55382505D01*
X239616032Y-55402821D01*
X239772784Y-55440454D01*
X239772790Y-55440455D01*
X239777597Y-55441609D01*
X239877416Y-55449465D01*
X239964345Y-55456307D01*
X239964352Y-55456307D01*
X239966801Y-55456500D01*
X240093199Y-55456500D01*
X240095648Y-55456307D01*
X240095655Y-55456307D01*
X240182584Y-55449465D01*
X240282403Y-55441609D01*
X240287210Y-55440455D01*
X240287216Y-55440454D01*
X240443968Y-55402821D01*
X240528591Y-55382505D01*
X240533164Y-55380611D01*
X240757928Y-55287511D01*
X240757932Y-55287509D01*
X240762502Y-55285616D01*
X240978376Y-55153328D01*
X241170898Y-54988898D01*
X241335328Y-54796376D01*
X241467616Y-54580502D01*
X241472850Y-54567868D01*
X241562611Y-54351164D01*
X241562612Y-54351162D01*
X241564505Y-54346591D01*
X241589810Y-54241186D01*
X241622454Y-54105216D01*
X241622455Y-54105210D01*
X241623609Y-54100403D01*
X241643474Y-53848000D01*
X241623609Y-53595597D01*
X241600626Y-53499863D01*
X241571367Y-53377991D01*
X241564505Y-53349409D01*
X241519938Y-53241815D01*
X241469511Y-53120072D01*
X241469509Y-53120068D01*
X241467616Y-53115498D01*
X241462260Y-53106757D01*
X241456790Y-53097832D01*
X241335328Y-52899624D01*
X241170898Y-52707102D01*
X240978376Y-52542672D01*
X240762502Y-52410384D01*
X240757932Y-52408491D01*
X240757928Y-52408489D01*
X240533164Y-52315389D01*
X240533162Y-52315388D01*
X240528591Y-52313495D01*
X240411116Y-52285292D01*
X240287216Y-52255546D01*
X240287210Y-52255545D01*
X240282403Y-52254391D01*
X240182584Y-52246535D01*
X240095655Y-52239693D01*
X240095648Y-52239693D01*
X240093199Y-52239500D01*
X239966801Y-52239500D01*
X239964352Y-52239693D01*
X239964345Y-52239693D01*
X239877416Y-52246535D01*
X239777597Y-52254391D01*
X239772790Y-52255545D01*
X239772784Y-52255546D01*
X239648884Y-52285292D01*
X239531409Y-52313495D01*
X239526838Y-52315388D01*
X239526836Y-52315389D01*
X239302072Y-52408489D01*
X239302068Y-52408491D01*
X239297498Y-52410384D01*
X239081624Y-52542672D01*
X238889102Y-52707102D01*
X238724672Y-52899624D01*
X238603210Y-53097832D01*
X238597741Y-53106757D01*
X238592384Y-53115498D01*
X238590491Y-53120068D01*
X238590489Y-53120072D01*
X238540062Y-53241815D01*
X238495495Y-53349409D01*
X238488633Y-53377991D01*
X238459375Y-53499863D01*
X238436391Y-53595597D01*
X238416526Y-53848000D01*
X236356733Y-53848000D01*
X236179012Y-53670279D01*
X236167347Y-53656837D01*
X236166201Y-53655311D01*
X236153408Y-53638272D01*
X236144027Y-53628693D01*
X236140780Y-53626147D01*
X236138309Y-53623934D01*
X236136515Y-53622296D01*
X236102669Y-53590784D01*
X235796819Y-53306027D01*
X235707956Y-53234416D01*
X235429503Y-53010025D01*
X235427762Y-53008622D01*
X235396300Y-52986777D01*
X235040277Y-52739586D01*
X235040275Y-52739585D01*
X235038429Y-52738303D01*
X234630804Y-52496448D01*
X234464036Y-52412970D01*
X234208968Y-52285292D01*
X234208954Y-52285285D01*
X234206963Y-52284289D01*
X234204902Y-52283435D01*
X234204897Y-52283433D01*
X233771137Y-52103763D01*
X233771127Y-52103759D01*
X233769067Y-52102906D01*
X233319348Y-51953225D01*
X232860096Y-51836008D01*
X232857902Y-51835612D01*
X232857892Y-51835610D01*
X232395875Y-51752253D01*
X232395868Y-51752252D01*
X232393651Y-51751852D01*
X232391412Y-51751611D01*
X232391403Y-51751610D01*
X231924637Y-51701427D01*
X231924627Y-51701426D01*
X231922392Y-51701186D01*
X231863507Y-51699083D01*
X231846203Y-51698465D01*
X231778839Y-51676044D01*
X231734291Y-51620763D01*
X231724700Y-51572545D01*
X231724700Y-51475766D01*
X231717945Y-51413584D01*
X231715231Y-51406344D01*
X231718929Y-51335519D01*
X231760375Y-51277876D01*
X231826406Y-51251790D01*
X231837909Y-51251273D01*
X242296033Y-51259485D01*
X242364138Y-51279541D01*
X242410589Y-51333233D01*
X242420735Y-51368143D01*
X242449136Y-51572545D01*
X242601003Y-52665532D01*
X242601248Y-52667398D01*
X242850768Y-54683622D01*
X242850999Y-54685620D01*
X243118269Y-57170002D01*
X243119504Y-57181485D01*
X243119756Y-57184080D01*
X243353306Y-59886634D01*
X243360556Y-59970523D01*
X243360749Y-59973055D01*
X243365140Y-60039461D01*
X243455839Y-61411122D01*
X243455962Y-61413251D01*
X243526712Y-62853130D01*
X243526812Y-62855708D01*
X243567330Y-64271008D01*
X243567381Y-64274188D01*
X243571995Y-65640306D01*
X243571945Y-65644318D01*
X243535164Y-66936057D01*
X243534908Y-66941258D01*
X243455317Y-68079780D01*
X243453072Y-68092107D01*
X243453478Y-68092168D01*
X243452151Y-68101046D01*
X243449579Y-68109646D01*
X243449524Y-68118621D01*
X243449524Y-68118622D01*
X243449383Y-68141713D01*
X243448234Y-68157936D01*
X243291026Y-69312925D01*
X243289719Y-69320698D01*
X243029542Y-70618580D01*
X243028283Y-70624192D01*
X242681512Y-72020098D01*
X242680387Y-72024315D01*
X242263297Y-73485039D01*
X242261891Y-73489629D01*
X241272687Y-76512717D01*
X241271196Y-76517009D01*
X240185033Y-79471448D01*
X240183891Y-79474438D01*
X239123535Y-82147043D01*
X239122641Y-82149236D01*
X238277342Y-84168241D01*
X238212713Y-84322607D01*
X238211871Y-84324571D01*
X237936738Y-84951289D01*
X237362564Y-86259187D01*
X237359010Y-86266203D01*
X237354920Y-86271401D01*
X237350683Y-86281948D01*
X237339498Y-86303507D01*
X237338204Y-86305503D01*
X237338202Y-86305508D01*
X237333319Y-86313041D01*
X237322427Y-86349463D01*
X237320941Y-86354000D01*
X237319399Y-86357511D01*
X237318197Y-86361831D01*
X237316691Y-86366055D01*
X237316566Y-86366010D01*
X237314712Y-86371481D01*
X237300672Y-86406426D01*
X237299798Y-86415358D01*
X237299565Y-86417738D01*
X237294882Y-86441565D01*
X237291625Y-86452455D01*
X237291595Y-86457420D01*
X237290265Y-86462198D01*
X237290382Y-86471177D01*
X237290382Y-86471179D01*
X237290757Y-86499841D01*
X237290169Y-86513756D01*
X237286500Y-86551249D01*
X237288168Y-86560065D01*
X237288168Y-86560073D01*
X237288612Y-86562420D01*
X237290805Y-86586600D01*
X237290790Y-86588993D01*
X237290791Y-86588999D01*
X237290736Y-86597966D01*
X237292100Y-86602739D01*
X237292165Y-86607700D01*
X237300011Y-86633285D01*
X237303203Y-86643694D01*
X237306545Y-86657217D01*
X237313546Y-86694228D01*
X237317622Y-86702223D01*
X237318711Y-86704360D01*
X237327600Y-86726949D01*
X237330724Y-86737879D01*
X237333370Y-86742073D01*
X237334826Y-86746820D01*
X237339759Y-86754316D01*
X237339761Y-86754320D01*
X237355525Y-86778273D01*
X237362529Y-86790316D01*
X237379634Y-86823870D01*
X237387432Y-86832142D01*
X237402306Y-86851331D01*
X237408372Y-86860945D01*
X237412093Y-86864231D01*
X237414820Y-86868375D01*
X237443527Y-86892765D01*
X237451268Y-86900116D01*
X237452985Y-86901677D01*
X237456329Y-86905224D01*
X237460177Y-86908213D01*
X237471289Y-86916845D01*
X237477399Y-86921908D01*
X237517440Y-86957270D01*
X237521930Y-86959378D01*
X237525714Y-86962593D01*
X237533902Y-86966247D01*
X237544011Y-86973332D01*
X237554449Y-86981440D01*
X238771921Y-87927127D01*
X238773394Y-87928290D01*
X239538616Y-88542047D01*
X240135488Y-89020776D01*
X240137169Y-89022147D01*
X241770050Y-90378668D01*
X241771564Y-90379947D01*
X242104741Y-90666158D01*
X242636319Y-91122803D01*
X242637640Y-91123954D01*
X243510077Y-91894747D01*
X243511652Y-91896163D01*
X244370245Y-92680813D01*
X244372153Y-92682593D01*
X245196471Y-93467859D01*
X245198814Y-93470149D01*
X245425680Y-93697866D01*
X245968152Y-94242372D01*
X245971118Y-94245452D01*
X246664354Y-94990195D01*
X246668181Y-94994499D01*
X247267524Y-95700489D01*
X247271156Y-95704973D01*
X247522932Y-96030672D01*
X247525854Y-96034607D01*
X247743497Y-96340001D01*
X247748329Y-96347306D01*
X248318553Y-97278209D01*
X248389505Y-97394040D01*
X248394716Y-97403422D01*
X248458029Y-97529817D01*
X248961081Y-98534090D01*
X248964953Y-98542593D01*
X249462383Y-99752011D01*
X249465245Y-99759666D01*
X249895300Y-101034589D01*
X249897407Y-101041481D01*
X250262022Y-102368562D01*
X250263564Y-102374792D01*
X250425308Y-103107772D01*
X250558542Y-103711553D01*
X250564931Y-103740508D01*
X250566046Y-103746175D01*
X250734488Y-104720121D01*
X250806616Y-105137173D01*
X250807408Y-105142402D01*
X250845470Y-105435181D01*
X250988425Y-106534814D01*
X250989772Y-106545178D01*
X250990307Y-106550042D01*
X251117197Y-107951186D01*
X251117530Y-107955795D01*
X251191785Y-109342040D01*
X251191944Y-109346492D01*
X251210235Y-110359279D01*
X251216465Y-110704259D01*
X251216468Y-110708661D01*
X251194251Y-112024636D01*
X251194097Y-112029086D01*
X251161419Y-112654306D01*
X251128615Y-113281948D01*
X251128208Y-113289728D01*
X251127883Y-113294332D01*
X251021496Y-114486018D01*
X251020953Y-114490979D01*
X250954989Y-115000500D01*
X250877415Y-115599695D01*
X250876571Y-115605245D01*
X250832332Y-115857957D01*
X250705546Y-116582209D01*
X250703120Y-116596065D01*
X250699725Y-116610439D01*
X250689443Y-116644817D01*
X250689388Y-116653792D01*
X250689388Y-116653794D01*
X250689347Y-116660487D01*
X250687166Y-116683069D01*
X250335240Y-118548885D01*
X250333842Y-118555356D01*
X250333763Y-118555682D01*
X250332252Y-118560298D01*
X250331469Y-118565096D01*
X250331468Y-118565100D01*
X250327134Y-118591660D01*
X250326604Y-118594676D01*
X250321285Y-118622872D01*
X250321087Y-118627350D01*
X250320884Y-118629105D01*
X250320076Y-118634903D01*
X250220749Y-119243504D01*
X250049406Y-120293361D01*
X250036843Y-120370335D01*
X250035629Y-120376731D01*
X250035420Y-120377698D01*
X250034023Y-120382366D01*
X250033361Y-120387196D01*
X250029746Y-120413562D01*
X250029275Y-120416704D01*
X250024698Y-120444750D01*
X250024611Y-120449235D01*
X250024388Y-120451685D01*
X250023738Y-120457388D01*
X249814222Y-121985655D01*
X249806144Y-122044575D01*
X249805114Y-122050894D01*
X249804803Y-122052537D01*
X249803531Y-122057237D01*
X249802997Y-122062078D01*
X249802997Y-122062079D01*
X249800114Y-122088228D01*
X249799705Y-122091534D01*
X249796495Y-122114945D01*
X249796494Y-122114960D01*
X249795887Y-122119388D01*
X249795914Y-122123863D01*
X249795705Y-122127070D01*
X249795213Y-122132682D01*
X249636190Y-123575015D01*
X249635346Y-123581243D01*
X249634969Y-123583586D01*
X249633827Y-123588313D01*
X249633426Y-123593164D01*
X249631282Y-123619105D01*
X249630955Y-123622499D01*
X249627902Y-123650187D01*
X249628048Y-123654676D01*
X249627896Y-123658604D01*
X249627562Y-123664116D01*
X249520035Y-124965036D01*
X249519376Y-124971175D01*
X249518973Y-124974219D01*
X249517963Y-124978990D01*
X249517699Y-124983858D01*
X249516305Y-125009551D01*
X249516062Y-125013105D01*
X249513794Y-125040541D01*
X249514062Y-125045014D01*
X249514011Y-125049499D01*
X249513835Y-125049497D01*
X249513839Y-125054988D01*
X249496593Y-125372818D01*
X249459592Y-126054724D01*
X249450731Y-126218020D01*
X249450257Y-126224060D01*
X249449866Y-126227866D01*
X249448996Y-126232662D01*
X249448874Y-126237532D01*
X249448236Y-126262982D01*
X249448091Y-126266649D01*
X249447077Y-126285343D01*
X249446616Y-126293845D01*
X249447010Y-126298314D01*
X249447086Y-126302788D01*
X249446923Y-126302791D01*
X249447098Y-126308444D01*
X249421327Y-127337411D01*
X249421039Y-127343313D01*
X249420707Y-127347897D01*
X249419982Y-127352714D01*
X249420007Y-127357583D01*
X249420006Y-127357590D01*
X249420133Y-127382773D01*
X249420096Y-127386529D01*
X249419421Y-127413481D01*
X249419945Y-127417930D01*
X249420151Y-127422411D01*
X249420004Y-127422418D01*
X249420362Y-127428237D01*
X249422368Y-127827126D01*
X249424905Y-128331445D01*
X249424230Y-128345119D01*
X249424228Y-128345136D01*
X249424228Y-128345147D01*
X249423723Y-128349993D01*
X249423970Y-128354865D01*
X249424994Y-128375071D01*
X249425154Y-128380814D01*
X249425265Y-128402831D01*
X249426099Y-128408451D01*
X249427300Y-128420546D01*
X249450030Y-128868914D01*
X249503830Y-129930184D01*
X249503896Y-129941481D01*
X249503465Y-129952519D01*
X249504025Y-129957349D01*
X249504025Y-129957354D01*
X249505657Y-129971433D01*
X249506333Y-129979561D01*
X249506914Y-129991021D01*
X249506915Y-129991032D01*
X249507142Y-129995504D01*
X249507999Y-129999893D01*
X249508000Y-129999900D01*
X249509414Y-130007139D01*
X249510912Y-130016784D01*
X249622701Y-130981402D01*
X249610674Y-131051372D01*
X249562728Y-131103733D01*
X249494084Y-131121860D01*
X249466212Y-131117950D01*
X248115987Y-130771361D01*
X247410910Y-130590375D01*
X247407231Y-130589371D01*
X244220439Y-129667054D01*
X244217542Y-129666178D01*
X242378105Y-129085588D01*
X242375699Y-129084801D01*
X240433914Y-128428722D01*
X240431074Y-128427725D01*
X239843965Y-128213599D01*
X238438232Y-127700912D01*
X238434904Y-127699643D01*
X236440646Y-126906457D01*
X236436560Y-126904748D01*
X234490734Y-126049843D01*
X234485704Y-126047500D01*
X232638466Y-125136030D01*
X232632117Y-125132668D01*
X232483760Y-125048621D01*
X230928539Y-124167564D01*
X230922711Y-124164051D01*
X230150114Y-123669407D01*
X230145562Y-123666352D01*
X229425182Y-123159504D01*
X229420035Y-123155682D01*
X229410350Y-123148098D01*
X229001335Y-122827834D01*
X228762821Y-122641074D01*
X228756984Y-122636213D01*
X228169284Y-122115783D01*
X228162748Y-122109562D01*
X227650713Y-121585784D01*
X227643473Y-121577710D01*
X227217333Y-121059245D01*
X227208112Y-121046475D01*
X227195098Y-121025849D01*
X227195098Y-121025848D01*
X227190307Y-121018256D01*
X227183580Y-121012315D01*
X227182850Y-121011457D01*
X227166628Y-120993905D01*
X226391286Y-119962875D01*
X226389691Y-119960605D01*
X226388424Y-119958303D01*
X226366733Y-119930209D01*
X226365762Y-119928935D01*
X226348915Y-119906532D01*
X226346223Y-119902952D01*
X226344362Y-119901097D01*
X226342555Y-119898892D01*
X226035362Y-119501012D01*
X225637055Y-118985119D01*
X225635159Y-118982498D01*
X225633694Y-118979922D01*
X225611867Y-118952475D01*
X225610810Y-118951126D01*
X225591262Y-118925807D01*
X225589145Y-118923750D01*
X225587008Y-118921214D01*
X224964442Y-118138331D01*
X224962149Y-118135261D01*
X224960443Y-118132372D01*
X224938519Y-118105708D01*
X224937344Y-118104255D01*
X224917817Y-118079699D01*
X224915386Y-118077404D01*
X224912821Y-118074453D01*
X224368829Y-117412837D01*
X224366007Y-117409192D01*
X224364002Y-117405939D01*
X224342152Y-117380356D01*
X224340638Y-117378549D01*
X224335190Y-117371924D01*
X224321243Y-117354961D01*
X224318432Y-117352393D01*
X224315235Y-117348842D01*
X223845592Y-116798976D01*
X223842026Y-116794557D01*
X223839641Y-116790870D01*
X223817828Y-116766425D01*
X223816074Y-116764415D01*
X223799766Y-116745321D01*
X223799759Y-116745314D01*
X223796850Y-116741908D01*
X223793569Y-116739021D01*
X223789526Y-116734709D01*
X223558838Y-116476191D01*
X223390067Y-116287060D01*
X223385854Y-116282085D01*
X223385301Y-116281396D01*
X223382551Y-116277373D01*
X223360962Y-116254382D01*
X223358804Y-116252025D01*
X223342863Y-116234161D01*
X223339887Y-116230826D01*
X223336464Y-116227943D01*
X223334753Y-116226280D01*
X223330717Y-116222175D01*
X223326704Y-116217901D01*
X222997611Y-115867451D01*
X222993655Y-115863035D01*
X222990658Y-115859526D01*
X222987789Y-115855588D01*
X222966566Y-115834309D01*
X222963959Y-115831616D01*
X222945508Y-115811967D01*
X222942006Y-115809166D01*
X222938714Y-115806126D01*
X222938813Y-115806019D01*
X222934458Y-115802117D01*
X222904459Y-115772039D01*
X222661243Y-115528184D01*
X222656594Y-115522936D01*
X222656527Y-115522998D01*
X222653238Y-115519417D01*
X222650230Y-115515588D01*
X222646673Y-115512270D01*
X222646665Y-115512262D01*
X222629694Y-115496435D01*
X222626419Y-115493269D01*
X222611897Y-115478709D01*
X222611896Y-115478708D01*
X222608738Y-115475542D01*
X222605163Y-115472855D01*
X222601771Y-115469907D01*
X222601781Y-115469895D01*
X222596385Y-115465373D01*
X222528053Y-115401647D01*
X222376939Y-115260718D01*
X222368439Y-115251865D01*
X222367623Y-115251052D01*
X222364453Y-115247364D01*
X222344998Y-115230764D01*
X222340869Y-115227081D01*
X222324400Y-115211722D01*
X222320130Y-115208749D01*
X222310354Y-115201203D01*
X222181341Y-115091118D01*
X222139136Y-115055106D01*
X222130009Y-115046496D01*
X222127946Y-115044346D01*
X222124577Y-115040835D01*
X222106923Y-115027371D01*
X222101568Y-115023050D01*
X222087022Y-115010638D01*
X222079726Y-115006021D01*
X222070692Y-114999736D01*
X221945542Y-114904283D01*
X221941508Y-114901206D01*
X221933281Y-114894359D01*
X221923991Y-114885932D01*
X221909302Y-114876261D01*
X221902181Y-114871210D01*
X221894233Y-114865148D01*
X221894224Y-114865142D01*
X221890659Y-114862423D01*
X221886743Y-114860236D01*
X221886734Y-114860230D01*
X221879011Y-114855917D01*
X221871163Y-114851151D01*
X221766159Y-114782019D01*
X221764049Y-114780599D01*
X221739487Y-114763707D01*
X221739476Y-114763701D01*
X221735472Y-114760947D01*
X221731086Y-114758839D01*
X221730490Y-114758494D01*
X221730193Y-114758339D01*
X221728652Y-114757325D01*
X221693743Y-114740891D01*
X221692954Y-114740515D01*
X221592561Y-114692271D01*
X221573924Y-114681251D01*
X221572561Y-114680278D01*
X221559023Y-114670612D01*
X221531487Y-114661009D01*
X221523665Y-114658281D01*
X221518446Y-114656123D01*
X221518386Y-114656274D01*
X221514219Y-114654625D01*
X221510175Y-114652681D01*
X221505896Y-114651330D01*
X221505890Y-114651328D01*
X221484947Y-114644718D01*
X221481391Y-114643537D01*
X221474039Y-114640973D01*
X221458049Y-114635396D01*
X221458040Y-114635394D01*
X221453453Y-114633794D01*
X221448668Y-114632918D01*
X221444748Y-114631882D01*
X221439013Y-114630221D01*
X221406549Y-114619975D01*
X221397579Y-114619784D01*
X221397577Y-114619784D01*
X221385110Y-114619519D01*
X221368468Y-114618057D01*
X221367292Y-114617874D01*
X221366844Y-114617805D01*
X221362891Y-114617126D01*
X221301232Y-114605522D01*
X221292304Y-114606404D01*
X221292301Y-114606404D01*
X221272220Y-114608388D01*
X221254939Y-114608903D01*
X221245288Y-114608528D01*
X221225813Y-114607771D01*
X221217110Y-114609953D01*
X221217108Y-114609953D01*
X221200568Y-114614100D01*
X221182314Y-114617272D01*
X221156423Y-114619830D01*
X221148231Y-114623130D01*
X221146929Y-114623383D01*
X221144728Y-114623974D01*
X221143477Y-114624408D01*
X221134732Y-114625660D01*
X221126564Y-114629374D01*
X221126560Y-114629375D01*
X221120907Y-114631945D01*
X221099393Y-114639463D01*
X221097238Y-114640003D01*
X221084666Y-114643155D01*
X221076926Y-114647691D01*
X221076924Y-114647692D01*
X221074563Y-114649076D01*
X221062214Y-114656314D01*
X221045603Y-114664473D01*
X221021448Y-114674204D01*
X221014511Y-114679671D01*
X221013334Y-114680278D01*
X221011392Y-114681461D01*
X221010308Y-114682232D01*
X221002267Y-114685888D01*
X220995469Y-114691745D01*
X220995468Y-114691746D01*
X220990761Y-114695802D01*
X220972227Y-114709052D01*
X220966869Y-114712192D01*
X220966865Y-114712195D01*
X220959124Y-114716732D01*
X220952968Y-114723259D01*
X220952964Y-114723262D01*
X220935446Y-114741835D01*
X220934697Y-114742575D01*
X220933636Y-114743411D01*
X220930955Y-114746296D01*
X220930849Y-114746409D01*
X220929684Y-114747531D01*
X220929181Y-114748028D01*
X220928869Y-114748316D01*
X220920819Y-114756067D01*
X220898833Y-114775012D01*
X220892030Y-114780874D01*
X220887147Y-114788408D01*
X220887143Y-114788412D01*
X220883766Y-114793622D01*
X220869700Y-114811537D01*
X220859278Y-114822587D01*
X220858527Y-114824058D01*
X220857526Y-114825292D01*
X220651916Y-115046496D01*
X220370629Y-115349117D01*
X220344861Y-115376839D01*
X220343900Y-115377861D01*
X219700581Y-116054209D01*
X219699807Y-116055014D01*
X218863756Y-116914141D01*
X218862635Y-116915277D01*
X218782053Y-116995834D01*
X217871863Y-117905740D01*
X217870777Y-117906812D01*
X217331274Y-118433245D01*
X217330423Y-118434068D01*
X217003317Y-118747300D01*
X216940282Y-118779968D01*
X216869593Y-118773370D01*
X216813692Y-118729602D01*
X216793793Y-118684460D01*
X216793542Y-118682072D01*
X216783277Y-118650478D01*
X216736569Y-118506729D01*
X216734527Y-118500444D01*
X216639040Y-118335056D01*
X216511253Y-118193134D01*
X216408867Y-118118746D01*
X216362094Y-118084763D01*
X216362093Y-118084762D01*
X216356752Y-118080882D01*
X216350724Y-118078198D01*
X216350722Y-118078197D01*
X216188319Y-118005891D01*
X216188318Y-118005891D01*
X216182288Y-118003206D01*
X216087420Y-117983041D01*
X216001944Y-117964872D01*
X216001939Y-117964872D01*
X215995487Y-117963500D01*
X215804513Y-117963500D01*
X215798061Y-117964872D01*
X215798056Y-117964872D01*
X215712580Y-117983041D01*
X215617712Y-118003206D01*
X215611682Y-118005891D01*
X215611681Y-118005891D01*
X215449278Y-118078197D01*
X215449276Y-118078198D01*
X215443248Y-118080882D01*
X215437907Y-118084762D01*
X215437906Y-118084763D01*
X215391133Y-118118746D01*
X215288747Y-118193134D01*
X215160960Y-118335056D01*
X215065473Y-118500444D01*
X215006458Y-118682072D01*
X215005768Y-118688633D01*
X215005768Y-118688635D01*
X214999968Y-118743821D01*
X214993885Y-118801703D01*
X214993644Y-118803993D01*
X214966631Y-118869650D01*
X214957429Y-118879918D01*
X214316003Y-119521344D01*
X214303612Y-119532211D01*
X214296429Y-119537723D01*
X214280876Y-119549657D01*
X214267761Y-119566028D01*
X214253391Y-119581193D01*
X214120934Y-119699565D01*
X214089038Y-119728069D01*
X214077992Y-119736878D01*
X214056211Y-119752332D01*
X213875606Y-119880477D01*
X213863643Y-119887994D01*
X213776800Y-119935991D01*
X213646446Y-120008035D01*
X213633724Y-120014162D01*
X213569262Y-120040863D01*
X213404454Y-120109128D01*
X213391117Y-120113795D01*
X213152657Y-120182494D01*
X213138882Y-120185638D01*
X213016557Y-120206422D01*
X212894227Y-120227207D01*
X212880195Y-120228788D01*
X212667680Y-120240722D01*
X212644177Y-120239842D01*
X212632332Y-120238283D01*
X212598464Y-120242022D01*
X212595592Y-120242339D01*
X212581766Y-120243100D01*
X208926056Y-120243100D01*
X208857935Y-120223098D01*
X208811442Y-120169442D01*
X208806533Y-120156977D01*
X208799870Y-120137007D01*
X208799869Y-120137005D01*
X208797550Y-120130054D01*
X208704478Y-119979652D01*
X208686382Y-119961587D01*
X208584483Y-119859866D01*
X208579303Y-119854695D01*
X208523910Y-119820550D01*
X208434968Y-119765725D01*
X208434966Y-119765724D01*
X208428738Y-119761885D01*
X208334558Y-119730647D01*
X208267389Y-119708368D01*
X208267387Y-119708368D01*
X208260861Y-119706203D01*
X208254025Y-119705503D01*
X208254022Y-119705502D01*
X208200671Y-119700036D01*
X208156400Y-119695500D01*
X207590980Y-119695500D01*
X207522859Y-119675498D01*
X207476366Y-119621842D01*
X207464980Y-119569500D01*
X207464980Y-118765951D01*
X207466058Y-118749505D01*
X207468806Y-118728635D01*
X207468806Y-118728631D01*
X207469797Y-118721104D01*
X207468854Y-118712562D01*
X207469171Y-118682307D01*
X207471310Y-118666055D01*
X207500030Y-118601130D01*
X207559293Y-118562036D01*
X207596232Y-118556500D01*
X208156400Y-118556500D01*
X208159646Y-118556163D01*
X208159650Y-118556163D01*
X208255308Y-118546238D01*
X208255312Y-118546237D01*
X208262166Y-118545526D01*
X208268702Y-118543345D01*
X208268704Y-118543345D01*
X208422998Y-118491868D01*
X208429946Y-118489550D01*
X208580348Y-118396478D01*
X208705305Y-118271303D01*
X208709146Y-118265072D01*
X208794275Y-118126968D01*
X208794276Y-118126966D01*
X208798115Y-118120738D01*
X208836208Y-118005891D01*
X208851632Y-117959389D01*
X208851632Y-117959387D01*
X208853797Y-117952861D01*
X208864500Y-117848400D01*
X208864500Y-116847600D01*
X208863318Y-116836209D01*
X208854238Y-116748692D01*
X208854237Y-116748688D01*
X208853526Y-116741834D01*
X208851247Y-116735001D01*
X208799868Y-116581002D01*
X208797550Y-116574054D01*
X208704478Y-116423652D01*
X208707186Y-116421976D01*
X208685885Y-116369376D01*
X208699044Y-116299610D01*
X208747832Y-116248033D01*
X208811266Y-116230900D01*
X209200988Y-116230900D01*
X209218742Y-116232157D01*
X209242990Y-116235608D01*
X209249435Y-116235675D01*
X209252800Y-116235711D01*
X209252804Y-116235711D01*
X209256932Y-116235754D01*
X209261029Y-116235258D01*
X209265152Y-116235031D01*
X209265154Y-116235061D01*
X209267997Y-116234833D01*
X209439795Y-116228083D01*
X209701424Y-116217804D01*
X209703869Y-116217515D01*
X209703877Y-116217514D01*
X209974357Y-116185500D01*
X210143175Y-116165519D01*
X210579463Y-116078736D01*
X210581838Y-116078066D01*
X210581843Y-116078065D01*
X210717680Y-116039755D01*
X211007596Y-115957990D01*
X211424936Y-115804025D01*
X211427761Y-115802723D01*
X211627038Y-115710855D01*
X211828910Y-115617791D01*
X212217027Y-115400435D01*
X212494877Y-115214781D01*
X212584828Y-115154678D01*
X212584832Y-115154675D01*
X212586893Y-115153298D01*
X212852762Y-114943704D01*
X212934281Y-114879440D01*
X212934286Y-114879436D01*
X212936229Y-114877904D01*
X212938049Y-114876222D01*
X213241572Y-114595648D01*
X213246851Y-114591245D01*
X213246828Y-114591219D01*
X213249970Y-114588521D01*
X213253264Y-114586048D01*
X213263225Y-114576293D01*
X213283470Y-114550474D01*
X213293528Y-114539126D01*
X215195087Y-112637567D01*
X215208529Y-112625902D01*
X215224814Y-112613675D01*
X215224817Y-112613673D01*
X215228118Y-112611194D01*
X215231062Y-112608311D01*
X215231070Y-112608304D01*
X215235131Y-112604326D01*
X215238079Y-112601439D01*
X215244303Y-112593502D01*
X215246077Y-112591240D01*
X215252329Y-112583869D01*
X215451233Y-112366802D01*
X215453084Y-112364782D01*
X215487411Y-112320047D01*
X215555422Y-112231412D01*
X215647690Y-112111166D01*
X215819453Y-111841553D01*
X215967063Y-111557997D01*
X216089398Y-111262654D01*
X216092179Y-111253836D01*
X216184698Y-110960403D01*
X216184699Y-110960398D01*
X216185527Y-110957773D01*
X216208939Y-110852166D01*
X216254120Y-110648368D01*
X216254121Y-110648363D01*
X216254717Y-110645674D01*
X216296444Y-110328732D01*
X216308701Y-110047990D01*
X216309838Y-110035736D01*
X216311027Y-110027381D01*
X216311608Y-110023301D01*
X216311754Y-110009359D01*
X216307813Y-109976792D01*
X216306900Y-109961655D01*
X216306900Y-103373278D01*
X216326902Y-103305157D01*
X216380558Y-103258664D01*
X216450832Y-103248560D01*
X216462048Y-103250696D01*
X216468087Y-103252132D01*
X216475484Y-103254905D01*
X216483336Y-103255758D01*
X216506580Y-103258283D01*
X216537666Y-103261660D01*
X217932500Y-103261660D01*
X218000621Y-103281662D01*
X218047114Y-103335318D01*
X218058500Y-103387660D01*
X218058500Y-105217697D01*
X218038498Y-105285818D01*
X218026136Y-105302007D01*
X217970649Y-105363632D01*
X217954960Y-105381056D01*
X217941822Y-105403812D01*
X217867561Y-105532436D01*
X217859473Y-105546444D01*
X217800458Y-105728072D01*
X217799768Y-105734633D01*
X217799768Y-105734635D01*
X217787479Y-105851562D01*
X217780496Y-105918000D01*
X217781186Y-105924565D01*
X217797355Y-106078401D01*
X217800458Y-106107928D01*
X217859473Y-106289556D01*
X217862776Y-106295278D01*
X217862777Y-106295279D01*
X217869036Y-106306120D01*
X217954960Y-106454944D01*
X217959378Y-106459851D01*
X217959379Y-106459852D01*
X218076686Y-106590135D01*
X218082747Y-106596866D01*
X218161539Y-106654112D01*
X218215810Y-106693542D01*
X218237248Y-106709118D01*
X218243276Y-106711802D01*
X218243278Y-106711803D01*
X218392333Y-106778166D01*
X218411712Y-106786794D01*
X218505113Y-106806647D01*
X218592056Y-106825128D01*
X218592061Y-106825128D01*
X218598513Y-106826500D01*
X218789487Y-106826500D01*
X218795939Y-106825128D01*
X218795944Y-106825128D01*
X218882887Y-106806647D01*
X218976288Y-106786794D01*
X218995667Y-106778166D01*
X219144722Y-106711803D01*
X219144724Y-106711802D01*
X219150752Y-106709118D01*
X219172191Y-106693542D01*
X219226461Y-106654112D01*
X219305253Y-106596866D01*
X219311314Y-106590135D01*
X219428621Y-106459852D01*
X219428622Y-106459851D01*
X219433040Y-106454944D01*
X219518964Y-106306120D01*
X219525223Y-106295279D01*
X219525224Y-106295278D01*
X219528527Y-106289556D01*
X219587542Y-106107928D01*
X219590646Y-106078401D01*
X219606814Y-105924565D01*
X219607504Y-105918000D01*
X219600521Y-105851562D01*
X219588232Y-105734635D01*
X219588232Y-105734633D01*
X219587542Y-105728072D01*
X219528527Y-105546444D01*
X219520440Y-105532436D01*
X219446178Y-105403812D01*
X219433040Y-105381056D01*
X219417352Y-105363632D01*
X219361864Y-105302007D01*
X219331146Y-105238000D01*
X219329500Y-105217697D01*
X219329500Y-103387160D01*
X219349502Y-103319039D01*
X219403158Y-103272546D01*
X219455500Y-103261160D01*
X219653785Y-103261160D01*
X219669024Y-103256685D01*
X219670229Y-103255295D01*
X219671900Y-103247612D01*
X219671900Y-103243044D01*
X220179900Y-103243044D01*
X220184375Y-103258283D01*
X220185765Y-103259488D01*
X220193448Y-103261159D01*
X220770669Y-103261159D01*
X220777490Y-103260789D01*
X220828352Y-103255265D01*
X220843604Y-103251639D01*
X220964054Y-103206484D01*
X220979649Y-103197946D01*
X221081724Y-103121445D01*
X221094284Y-103108885D01*
X221094763Y-103108246D01*
X221095397Y-103107772D01*
X221100635Y-103102534D01*
X221101391Y-103103290D01*
X221151623Y-103065732D01*
X221222442Y-103060708D01*
X221284735Y-103094769D01*
X221296412Y-103108246D01*
X221302539Y-103116421D01*
X221419095Y-103203775D01*
X221555484Y-103254905D01*
X221617666Y-103261660D01*
X223314134Y-103261660D01*
X223376316Y-103254905D01*
X223512705Y-103203775D01*
X223629261Y-103116421D01*
X223716615Y-102999865D01*
X223767745Y-102863476D01*
X223774500Y-102801294D01*
X223774500Y-99504626D01*
X223767745Y-99442444D01*
X223716615Y-99306055D01*
X223629261Y-99189499D01*
X223512705Y-99102145D01*
X223376316Y-99051015D01*
X223314134Y-99044260D01*
X221617666Y-99044260D01*
X221555484Y-99051015D01*
X221419095Y-99102145D01*
X221302539Y-99189499D01*
X221297158Y-99196679D01*
X221296416Y-99197669D01*
X221295433Y-99198404D01*
X221290808Y-99203029D01*
X221290141Y-99202362D01*
X221239558Y-99240186D01*
X221168739Y-99245213D01*
X221106445Y-99211155D01*
X221094763Y-99197674D01*
X221094284Y-99197035D01*
X221081724Y-99184475D01*
X220979649Y-99107974D01*
X220964054Y-99099436D01*
X220843606Y-99054282D01*
X220828351Y-99050655D01*
X220777486Y-99045129D01*
X220770672Y-99044760D01*
X220198015Y-99044760D01*
X220182776Y-99049235D01*
X220181571Y-99050625D01*
X220179900Y-99058308D01*
X220179900Y-103243044D01*
X219671900Y-103243044D01*
X219671900Y-99062876D01*
X219667425Y-99047637D01*
X219641730Y-99025372D01*
X219642639Y-99024323D01*
X219632113Y-99018574D01*
X219598095Y-98956257D01*
X219595909Y-98916319D01*
X219598084Y-98895631D01*
X219606271Y-98817730D01*
X219633284Y-98752073D01*
X219691506Y-98711443D01*
X219731581Y-98704900D01*
X224315632Y-98704900D01*
X224383753Y-98724902D01*
X224430246Y-98778558D01*
X224440350Y-98848832D01*
X224409268Y-98915210D01*
X224327619Y-99005891D01*
X224304960Y-99031056D01*
X224209473Y-99196444D01*
X224150458Y-99378072D01*
X224149768Y-99384633D01*
X224149768Y-99384635D01*
X224142064Y-99457937D01*
X224130496Y-99568000D01*
X224131186Y-99574565D01*
X224147772Y-99732369D01*
X224150458Y-99757928D01*
X224209473Y-99939556D01*
X224212776Y-99945278D01*
X224212777Y-99945279D01*
X224244292Y-99999865D01*
X224304960Y-100104944D01*
X224309378Y-100109851D01*
X224309379Y-100109852D01*
X224376136Y-100183993D01*
X224406854Y-100248000D01*
X224408500Y-100268303D01*
X224408500Y-103675635D01*
X224407422Y-103692081D01*
X224403867Y-103719084D01*
X224404709Y-103726708D01*
X224404392Y-103756982D01*
X224401452Y-103779314D01*
X224398244Y-103803680D01*
X224389731Y-103835450D01*
X224366014Y-103892709D01*
X224349567Y-103921196D01*
X224323543Y-103955111D01*
X224311741Y-103968429D01*
X224309238Y-103970880D01*
X224303206Y-103975509D01*
X224289288Y-103992882D01*
X224281144Y-104003047D01*
X224271905Y-104013362D01*
X223906995Y-104378272D01*
X223894603Y-104389140D01*
X223879018Y-104401099D01*
X223872991Y-104405724D01*
X223868190Y-104411717D01*
X223846558Y-104432900D01*
X223809198Y-104461567D01*
X223780712Y-104478013D01*
X223723448Y-104501732D01*
X223691678Y-104510245D01*
X223649302Y-104515824D01*
X223631537Y-104516895D01*
X223628020Y-104516858D01*
X223620491Y-104515867D01*
X223612945Y-104516700D01*
X223612942Y-104516700D01*
X223585419Y-104519739D01*
X223571592Y-104520500D01*
X222448399Y-104520500D01*
X222380278Y-104500498D01*
X222363092Y-104485891D01*
X222362580Y-104486460D01*
X222357668Y-104482037D01*
X222353253Y-104477134D01*
X222286687Y-104428771D01*
X222204094Y-104368763D01*
X222204093Y-104368762D01*
X222198752Y-104364882D01*
X222192724Y-104362198D01*
X222192722Y-104362197D01*
X222030319Y-104289891D01*
X222030318Y-104289891D01*
X222024288Y-104287206D01*
X221917748Y-104264560D01*
X221843944Y-104248872D01*
X221843939Y-104248872D01*
X221837487Y-104247500D01*
X221646513Y-104247500D01*
X221640061Y-104248872D01*
X221640056Y-104248872D01*
X221566252Y-104264560D01*
X221459712Y-104287206D01*
X221453682Y-104289891D01*
X221453681Y-104289891D01*
X221291278Y-104362197D01*
X221291276Y-104362198D01*
X221285248Y-104364882D01*
X221279907Y-104368762D01*
X221279906Y-104368763D01*
X221251860Y-104389140D01*
X221130747Y-104477134D01*
X221126326Y-104482044D01*
X221126325Y-104482045D01*
X221011011Y-104610115D01*
X221002960Y-104619056D01*
X220907473Y-104784444D01*
X220848458Y-104966072D01*
X220847768Y-104972633D01*
X220847768Y-104972635D01*
X220832728Y-105115737D01*
X220828496Y-105156000D01*
X220829186Y-105162565D01*
X220843507Y-105298818D01*
X220848458Y-105345928D01*
X220907473Y-105527556D01*
X221002960Y-105692944D01*
X221007375Y-105697847D01*
X221007379Y-105697852D01*
X221095707Y-105795950D01*
X221130747Y-105834866D01*
X221153727Y-105851562D01*
X221254207Y-105924565D01*
X221285248Y-105947118D01*
X221291276Y-105949802D01*
X221291278Y-105949803D01*
X221389588Y-105993573D01*
X221459712Y-106024794D01*
X221553113Y-106044647D01*
X221640056Y-106063128D01*
X221640061Y-106063128D01*
X221646513Y-106064500D01*
X221837487Y-106064500D01*
X221843939Y-106063128D01*
X221843944Y-106063128D01*
X221930887Y-106044647D01*
X222024288Y-106024794D01*
X222094412Y-105993573D01*
X222192722Y-105949803D01*
X222192724Y-105949802D01*
X222198752Y-105947118D01*
X222229794Y-105924565D01*
X222331671Y-105850546D01*
X222353253Y-105834866D01*
X222357668Y-105829963D01*
X222362580Y-105825540D01*
X222364221Y-105827362D01*
X222415210Y-105795950D01*
X222448399Y-105791500D01*
X223559641Y-105791500D01*
X223577395Y-105792757D01*
X223600378Y-105796028D01*
X223606357Y-105796090D01*
X223609658Y-105796125D01*
X223609659Y-105796125D01*
X223613785Y-105796168D01*
X223617872Y-105795673D01*
X223617881Y-105795673D01*
X223631251Y-105794055D01*
X223638144Y-105793413D01*
X223823604Y-105781257D01*
X223823608Y-105781256D01*
X223827719Y-105780987D01*
X223831759Y-105780183D01*
X223831762Y-105780183D01*
X224033947Y-105739966D01*
X224033953Y-105739964D01*
X224037992Y-105739161D01*
X224041896Y-105737836D01*
X224041899Y-105737835D01*
X224237101Y-105671573D01*
X224237102Y-105671572D01*
X224241007Y-105670247D01*
X224433291Y-105575424D01*
X224504931Y-105527556D01*
X224608121Y-105458607D01*
X224608126Y-105458603D01*
X224611552Y-105456314D01*
X224614646Y-105453600D01*
X224614652Y-105453596D01*
X224700106Y-105378654D01*
X224705957Y-105373827D01*
X224706665Y-105373278D01*
X224713491Y-105369241D01*
X224729464Y-105353268D01*
X224735483Y-105347630D01*
X224740432Y-105343290D01*
X224747855Y-105337263D01*
X224760677Y-105327636D01*
X224760680Y-105327634D01*
X224763981Y-105325155D01*
X224773560Y-105315774D01*
X224792856Y-105291165D01*
X224802915Y-105279817D01*
X225162183Y-104920549D01*
X225175625Y-104908884D01*
X225177136Y-104907749D01*
X225194194Y-104894942D01*
X225203773Y-104885561D01*
X225214622Y-104871725D01*
X225219043Y-104866394D01*
X225341593Y-104726652D01*
X225344312Y-104723552D01*
X225414135Y-104619056D01*
X225461129Y-104548724D01*
X225463423Y-104545291D01*
X225467799Y-104536419D01*
X225532250Y-104405724D01*
X225558247Y-104353007D01*
X225567711Y-104325128D01*
X225625835Y-104153899D01*
X225625836Y-104153896D01*
X225627161Y-104149992D01*
X225631172Y-104129831D01*
X225668183Y-103943761D01*
X225668183Y-103943758D01*
X225668987Y-103939718D01*
X225675801Y-103835759D01*
X225676688Y-103822231D01*
X225677411Y-103814685D01*
X225677530Y-103813742D01*
X225679500Y-103806068D01*
X225679500Y-103783434D01*
X225679770Y-103775193D01*
X225680196Y-103768694D01*
X225681183Y-103759183D01*
X225683447Y-103743275D01*
X225683447Y-103743271D01*
X225684028Y-103739191D01*
X225684168Y-103725784D01*
X225680413Y-103694753D01*
X225679500Y-103679618D01*
X225679500Y-100268303D01*
X225699502Y-100200182D01*
X225711864Y-100183993D01*
X225778621Y-100109852D01*
X225778622Y-100109851D01*
X225783040Y-100104944D01*
X225843708Y-99999865D01*
X225875223Y-99945279D01*
X225875224Y-99945278D01*
X225878527Y-99939556D01*
X225937542Y-99757928D01*
X225940229Y-99732369D01*
X225956814Y-99574565D01*
X225957504Y-99568000D01*
X225945936Y-99457937D01*
X225938232Y-99384635D01*
X225938232Y-99384633D01*
X225937542Y-99378072D01*
X225878527Y-99196444D01*
X225783040Y-99031056D01*
X225760382Y-99005891D01*
X225678732Y-98915210D01*
X225648014Y-98851203D01*
X225656779Y-98780749D01*
X225702242Y-98726218D01*
X225772368Y-98704900D01*
X227381300Y-98704900D01*
X227449421Y-98724902D01*
X227495914Y-98778558D01*
X227507300Y-98830900D01*
X227507300Y-98892234D01*
X227514055Y-98954416D01*
X227565185Y-99090805D01*
X227652539Y-99207361D01*
X227659718Y-99212741D01*
X227660297Y-99213175D01*
X227660727Y-99213750D01*
X227666069Y-99219092D01*
X227665298Y-99219863D01*
X227702811Y-99270035D01*
X227707835Y-99340854D01*
X227673774Y-99403146D01*
X227660300Y-99414823D01*
X227652539Y-99420639D01*
X227565185Y-99537195D01*
X227514055Y-99673584D01*
X227507300Y-99735766D01*
X227507300Y-101432234D01*
X227514055Y-101494416D01*
X227565185Y-101630805D01*
X227652539Y-101747361D01*
X227769095Y-101834715D01*
X227905484Y-101885845D01*
X227967666Y-101892600D01*
X231264334Y-101892600D01*
X231326516Y-101885845D01*
X231462905Y-101834715D01*
X231579461Y-101747361D01*
X231666815Y-101630805D01*
X231717945Y-101494416D01*
X231724700Y-101432234D01*
X231724700Y-101370900D01*
X231744702Y-101302779D01*
X231798358Y-101256286D01*
X231850700Y-101244900D01*
X233936702Y-101244900D01*
X234004823Y-101264902D01*
X234051316Y-101318558D01*
X234061420Y-101388832D01*
X234059458Y-101397246D01*
X234059871Y-101397334D01*
X234058498Y-101403795D01*
X234056458Y-101410072D01*
X234055768Y-101416633D01*
X234055768Y-101416635D01*
X234044974Y-101519338D01*
X234036496Y-101600000D01*
X234037186Y-101606565D01*
X234052550Y-101752742D01*
X234056458Y-101789928D01*
X234115473Y-101971556D01*
X234118776Y-101977278D01*
X234118777Y-101977279D01*
X234123232Y-101984995D01*
X234210960Y-102136944D01*
X234215378Y-102141851D01*
X234215379Y-102141852D01*
X234307753Y-102244444D01*
X234338747Y-102278866D01*
X234369882Y-102301487D01*
X234464017Y-102369880D01*
X234493248Y-102391118D01*
X234499276Y-102393802D01*
X234499278Y-102393803D01*
X234586497Y-102432635D01*
X234667712Y-102468794D01*
X234761113Y-102488647D01*
X234848056Y-102507128D01*
X234848061Y-102507128D01*
X234854513Y-102508500D01*
X234907578Y-102508500D01*
X234975699Y-102528502D01*
X234996673Y-102545405D01*
X235908342Y-103457075D01*
X236810698Y-104359431D01*
X236821566Y-104371822D01*
X236838151Y-104393436D01*
X236844080Y-104398186D01*
X236855690Y-104407487D01*
X236869807Y-104420697D01*
X237056809Y-104624774D01*
X237099680Y-104671560D01*
X237106746Y-104679980D01*
X237331844Y-104973335D01*
X237338148Y-104982339D01*
X237536811Y-105294177D01*
X237542307Y-105303696D01*
X237585555Y-105386774D01*
X237684712Y-105577250D01*
X237713040Y-105631668D01*
X237717683Y-105641624D01*
X237859186Y-105983243D01*
X237862945Y-105993573D01*
X237974128Y-106346205D01*
X237976973Y-106356821D01*
X238057003Y-106717808D01*
X238058912Y-106728634D01*
X238107174Y-107095223D01*
X238108132Y-107106173D01*
X238122645Y-107438595D01*
X238121688Y-107460530D01*
X238119867Y-107474364D01*
X238122150Y-107495042D01*
X238123739Y-107509436D01*
X238124500Y-107523263D01*
X238124500Y-117575215D01*
X238123243Y-117592969D01*
X238119972Y-117615952D01*
X238119832Y-117629359D01*
X238120240Y-117632735D01*
X238120103Y-117633320D01*
X238120310Y-117633310D01*
X238136672Y-117966355D01*
X238137643Y-117986130D01*
X238140176Y-118003206D01*
X238186164Y-118313225D01*
X238190056Y-118339465D01*
X238190807Y-118342464D01*
X238190808Y-118342468D01*
X238226684Y-118485694D01*
X238276849Y-118685962D01*
X238277886Y-118688859D01*
X238277888Y-118688867D01*
X238323295Y-118815770D01*
X238397186Y-119022283D01*
X238398507Y-119025075D01*
X238543760Y-119332187D01*
X238549909Y-119345189D01*
X238733548Y-119651570D01*
X238735391Y-119654055D01*
X238939805Y-119929676D01*
X238946332Y-119938477D01*
X239126269Y-120137007D01*
X239167492Y-120182489D01*
X239172217Y-120188212D01*
X239174150Y-120190463D01*
X239176631Y-120193768D01*
X239179521Y-120196719D01*
X239179523Y-120196721D01*
X239183127Y-120200401D01*
X239183132Y-120200405D01*
X239186013Y-120203347D01*
X239188424Y-120205238D01*
X239196835Y-120213826D01*
X239197273Y-120214409D01*
X239206654Y-120223988D01*
X239209336Y-120226092D01*
X239209650Y-120226598D01*
X239209788Y-120226446D01*
X239471523Y-120463669D01*
X239474009Y-120465513D01*
X239474013Y-120465516D01*
X239492898Y-120479522D01*
X239758430Y-120676453D01*
X239761071Y-120678036D01*
X239761080Y-120678042D01*
X240041645Y-120846206D01*
X240064812Y-120860092D01*
X240387718Y-121012815D01*
X240500453Y-121053152D01*
X240721134Y-121132113D01*
X240721142Y-121132115D01*
X240724039Y-121133152D01*
X240895722Y-121176156D01*
X241067532Y-121219193D01*
X241067536Y-121219194D01*
X241070535Y-121219945D01*
X241073597Y-121220399D01*
X241073601Y-121220400D01*
X241232320Y-121243943D01*
X241423870Y-121272357D01*
X241426954Y-121272509D01*
X241426959Y-121272509D01*
X241546586Y-121278386D01*
X241752818Y-121288517D01*
X241760164Y-121289219D01*
X241763143Y-121289446D01*
X241767234Y-121290028D01*
X241775527Y-121290115D01*
X241776520Y-121290125D01*
X241776521Y-121290125D01*
X241780641Y-121290168D01*
X241784730Y-121289673D01*
X241784733Y-121289673D01*
X241798836Y-121287966D01*
X241811672Y-121286413D01*
X241826807Y-121285500D01*
X247451601Y-121285500D01*
X247519722Y-121305502D01*
X247536908Y-121320109D01*
X247537420Y-121319540D01*
X247542332Y-121323963D01*
X247546747Y-121328866D01*
X247568329Y-121344546D01*
X247657792Y-121409545D01*
X247701248Y-121441118D01*
X247707276Y-121443802D01*
X247707278Y-121443803D01*
X247862869Y-121513076D01*
X247875712Y-121518794D01*
X247969113Y-121538647D01*
X248056056Y-121557128D01*
X248056061Y-121557128D01*
X248062513Y-121558500D01*
X248253487Y-121558500D01*
X248259939Y-121557128D01*
X248259944Y-121557128D01*
X248346887Y-121538647D01*
X248440288Y-121518794D01*
X248453131Y-121513076D01*
X248608722Y-121443803D01*
X248608724Y-121443802D01*
X248614752Y-121441118D01*
X248769253Y-121328866D01*
X248804223Y-121290028D01*
X248892621Y-121191852D01*
X248892622Y-121191851D01*
X248897040Y-121186944D01*
X248992527Y-121021556D01*
X249051542Y-120839928D01*
X249053081Y-120825290D01*
X249070814Y-120656565D01*
X249071504Y-120650000D01*
X249062676Y-120566003D01*
X249052232Y-120466635D01*
X249052232Y-120466633D01*
X249051542Y-120460072D01*
X248992527Y-120278444D01*
X248970766Y-120240752D01*
X248932018Y-120173640D01*
X248897040Y-120113056D01*
X248886026Y-120100823D01*
X248773675Y-119976045D01*
X248773674Y-119976044D01*
X248769253Y-119971134D01*
X248642585Y-119879104D01*
X248620094Y-119862763D01*
X248620093Y-119862762D01*
X248614752Y-119858882D01*
X248608724Y-119856198D01*
X248608722Y-119856197D01*
X248446319Y-119783891D01*
X248446318Y-119783891D01*
X248440288Y-119781206D01*
X248338551Y-119759581D01*
X248259944Y-119742872D01*
X248259939Y-119742872D01*
X248253487Y-119741500D01*
X248062513Y-119741500D01*
X248056061Y-119742872D01*
X248056056Y-119742872D01*
X247977449Y-119759581D01*
X247875712Y-119781206D01*
X247869682Y-119783891D01*
X247869681Y-119783891D01*
X247707278Y-119856197D01*
X247707276Y-119856198D01*
X247701248Y-119858882D01*
X247695907Y-119862762D01*
X247695906Y-119862763D01*
X247640591Y-119902952D01*
X247546747Y-119971134D01*
X247542332Y-119976037D01*
X247537420Y-119980460D01*
X247535779Y-119978638D01*
X247484790Y-120010050D01*
X247451601Y-120014500D01*
X245502954Y-120014500D01*
X245434833Y-119994498D01*
X245388340Y-119940842D01*
X245378236Y-119870568D01*
X245393835Y-119825500D01*
X245401567Y-119812109D01*
X245436527Y-119751556D01*
X245495542Y-119569928D01*
X245500035Y-119527185D01*
X245514814Y-119386565D01*
X245515504Y-119380000D01*
X245506088Y-119290414D01*
X245496232Y-119196635D01*
X245496232Y-119196633D01*
X245495542Y-119190072D01*
X245436527Y-119008444D01*
X245417856Y-118976104D01*
X245369940Y-118893113D01*
X245341040Y-118843056D01*
X245311727Y-118810500D01*
X245269864Y-118764007D01*
X245239146Y-118700000D01*
X245237500Y-118679697D01*
X245237500Y-116882785D01*
X245238757Y-116865031D01*
X245241447Y-116846128D01*
X245242028Y-116842048D01*
X245242168Y-116828641D01*
X245241760Y-116825265D01*
X245241897Y-116824680D01*
X245241690Y-116824690D01*
X245224509Y-116474959D01*
X245224509Y-116474954D01*
X245224357Y-116471870D01*
X245198669Y-116298695D01*
X245172400Y-116121601D01*
X245172399Y-116121597D01*
X245171945Y-116118535D01*
X245167356Y-116100212D01*
X245100418Y-115832984D01*
X245085152Y-115772039D01*
X245079197Y-115755394D01*
X245015313Y-115576852D01*
X244964815Y-115435718D01*
X244839218Y-115170166D01*
X244813408Y-115115594D01*
X244813406Y-115115591D01*
X244812092Y-115112812D01*
X244796763Y-115087237D01*
X244630042Y-114809080D01*
X244630036Y-114809071D01*
X244628453Y-114806430D01*
X244609499Y-114780874D01*
X244417516Y-114522013D01*
X244417513Y-114522009D01*
X244415669Y-114519523D01*
X244194485Y-114275484D01*
X244189777Y-114269781D01*
X244187850Y-114267537D01*
X244185369Y-114264233D01*
X244175988Y-114254654D01*
X244151389Y-114235366D01*
X244140040Y-114225307D01*
X243953405Y-114038672D01*
X243919379Y-113976360D01*
X243916500Y-113949577D01*
X243916500Y-113291600D01*
X243916163Y-113288350D01*
X243906238Y-113192692D01*
X243906237Y-113192688D01*
X243905526Y-113185834D01*
X243890395Y-113140479D01*
X243851868Y-113025002D01*
X243849550Y-113018054D01*
X243756478Y-112867652D01*
X243631303Y-112742695D01*
X243528489Y-112679319D01*
X243486968Y-112653725D01*
X243486966Y-112653724D01*
X243480738Y-112649885D01*
X243364088Y-112611194D01*
X243319389Y-112596368D01*
X243319387Y-112596368D01*
X243312861Y-112594203D01*
X243306025Y-112593503D01*
X243306022Y-112593502D01*
X243262969Y-112589091D01*
X243208400Y-112583500D01*
X242407600Y-112583500D01*
X242404354Y-112583837D01*
X242404350Y-112583837D01*
X242308692Y-112593762D01*
X242308688Y-112593763D01*
X242301834Y-112594474D01*
X242295298Y-112596655D01*
X242295296Y-112596655D01*
X242207633Y-112625902D01*
X242134054Y-112650450D01*
X241983652Y-112743522D01*
X241978479Y-112748704D01*
X241897216Y-112830109D01*
X241834934Y-112864188D01*
X241764114Y-112859185D01*
X241719025Y-112830264D01*
X241636483Y-112747866D01*
X241631303Y-112742695D01*
X241528784Y-112679501D01*
X241481291Y-112626728D01*
X241468900Y-112572241D01*
X241468900Y-111201825D01*
X241488902Y-111133704D01*
X241528596Y-111094682D01*
X241632348Y-111030478D01*
X241718784Y-110943891D01*
X241781066Y-110909812D01*
X241851886Y-110914815D01*
X241896976Y-110943736D01*
X241984697Y-111031305D01*
X241990927Y-111035145D01*
X241990928Y-111035146D01*
X242128090Y-111119694D01*
X242135262Y-111124115D01*
X242205079Y-111147272D01*
X242296611Y-111177632D01*
X242296613Y-111177632D01*
X242303139Y-111179797D01*
X242309975Y-111180497D01*
X242309978Y-111180498D01*
X242353031Y-111184909D01*
X242407600Y-111190500D01*
X243208400Y-111190500D01*
X243211646Y-111190163D01*
X243211650Y-111190163D01*
X243307308Y-111180238D01*
X243307312Y-111180237D01*
X243314166Y-111179526D01*
X243320702Y-111177345D01*
X243320704Y-111177345D01*
X243468485Y-111128041D01*
X243481946Y-111123550D01*
X243632348Y-111030478D01*
X243757305Y-110905303D01*
X243766430Y-110890500D01*
X243846275Y-110760968D01*
X243846276Y-110760966D01*
X243850115Y-110754738D01*
X243853184Y-110745485D01*
X243867000Y-110703832D01*
X243907432Y-110645472D01*
X243972996Y-110618236D01*
X243986593Y-110617500D01*
X246943601Y-110617500D01*
X247011722Y-110637502D01*
X247028908Y-110652109D01*
X247029420Y-110651540D01*
X247034332Y-110655963D01*
X247038747Y-110660866D01*
X247050421Y-110669348D01*
X247178188Y-110762176D01*
X247193248Y-110773118D01*
X247199276Y-110775802D01*
X247199278Y-110775803D01*
X247361681Y-110848109D01*
X247367712Y-110850794D01*
X247461112Y-110870647D01*
X247548056Y-110889128D01*
X247548061Y-110889128D01*
X247554513Y-110890500D01*
X247745487Y-110890500D01*
X247751939Y-110889128D01*
X247751944Y-110889128D01*
X247838888Y-110870647D01*
X247932288Y-110850794D01*
X247938319Y-110848109D01*
X248100722Y-110775803D01*
X248100724Y-110775802D01*
X248106752Y-110773118D01*
X248121813Y-110762176D01*
X248201528Y-110704259D01*
X248261253Y-110660866D01*
X248314663Y-110601548D01*
X248384621Y-110523852D01*
X248384622Y-110523851D01*
X248389040Y-110518944D01*
X248484527Y-110353556D01*
X248543542Y-110171928D01*
X248548231Y-110127320D01*
X248562814Y-109988565D01*
X248563504Y-109982000D01*
X248551548Y-109868243D01*
X248544232Y-109798635D01*
X248544232Y-109798633D01*
X248543542Y-109792072D01*
X248484527Y-109610444D01*
X248469909Y-109585124D01*
X248408684Y-109479081D01*
X248389040Y-109445056D01*
X248371109Y-109425141D01*
X248265675Y-109308045D01*
X248265674Y-109308044D01*
X248261253Y-109303134D01*
X248162157Y-109231136D01*
X248112094Y-109194763D01*
X248112093Y-109194762D01*
X248106752Y-109190882D01*
X248100724Y-109188198D01*
X248100722Y-109188197D01*
X247938319Y-109115891D01*
X247938318Y-109115891D01*
X247932288Y-109113206D01*
X247838887Y-109093353D01*
X247751944Y-109074872D01*
X247751939Y-109074872D01*
X247745487Y-109073500D01*
X247554513Y-109073500D01*
X247548061Y-109074872D01*
X247548056Y-109074872D01*
X247461113Y-109093353D01*
X247367712Y-109113206D01*
X247361682Y-109115891D01*
X247361681Y-109115891D01*
X247199278Y-109188197D01*
X247199276Y-109188198D01*
X247193248Y-109190882D01*
X247187907Y-109194762D01*
X247187906Y-109194763D01*
X247082414Y-109271408D01*
X247038747Y-109303134D01*
X247034332Y-109308037D01*
X247029420Y-109312460D01*
X247027779Y-109310638D01*
X246976790Y-109342050D01*
X246943601Y-109346500D01*
X243986530Y-109346500D01*
X243918409Y-109326498D01*
X243871916Y-109272842D01*
X243867006Y-109260376D01*
X243851868Y-109215002D01*
X243849550Y-109208054D01*
X243756478Y-109057652D01*
X243631303Y-108932695D01*
X243528489Y-108869319D01*
X243486968Y-108843725D01*
X243486966Y-108843724D01*
X243480738Y-108839885D01*
X243320254Y-108786655D01*
X243319389Y-108786368D01*
X243319387Y-108786368D01*
X243312861Y-108784203D01*
X243306025Y-108783503D01*
X243306022Y-108783502D01*
X243262969Y-108779091D01*
X243208400Y-108773500D01*
X242407600Y-108773500D01*
X242404354Y-108773837D01*
X242404350Y-108773837D01*
X242308692Y-108783762D01*
X242308688Y-108783763D01*
X242301834Y-108784474D01*
X242295298Y-108786655D01*
X242295296Y-108786655D01*
X242205157Y-108816728D01*
X242134054Y-108840450D01*
X241983652Y-108933522D01*
X241978479Y-108938704D01*
X241897216Y-109020109D01*
X241834934Y-109054188D01*
X241764114Y-109049185D01*
X241719025Y-109020264D01*
X241636483Y-108937866D01*
X241631303Y-108932695D01*
X241528784Y-108869501D01*
X241481291Y-108816728D01*
X241468900Y-108762241D01*
X241468900Y-107381924D01*
X241488902Y-107313803D01*
X241528597Y-107274780D01*
X241610120Y-107224332D01*
X241616348Y-107220478D01*
X241702784Y-107133891D01*
X241765066Y-107099812D01*
X241835886Y-107104815D01*
X241880976Y-107133736D01*
X241968697Y-107221305D01*
X241974927Y-107225145D01*
X241974928Y-107225146D01*
X242112090Y-107309694D01*
X242119262Y-107314115D01*
X242147099Y-107323348D01*
X242280611Y-107367632D01*
X242280613Y-107367632D01*
X242287139Y-107369797D01*
X242293975Y-107370497D01*
X242293978Y-107370498D01*
X242337031Y-107374909D01*
X242391600Y-107380500D01*
X243192400Y-107380500D01*
X243195646Y-107380163D01*
X243195650Y-107380163D01*
X243291308Y-107370238D01*
X243291312Y-107370237D01*
X243298166Y-107369526D01*
X243304702Y-107367345D01*
X243304704Y-107367345D01*
X243436806Y-107323272D01*
X243465946Y-107313550D01*
X243616348Y-107220478D01*
X243741305Y-107095303D01*
X243745146Y-107089072D01*
X243830275Y-106950968D01*
X243830276Y-106950966D01*
X243834115Y-106944738D01*
X243851181Y-106893287D01*
X243891611Y-106834929D01*
X243957175Y-106807692D01*
X243964590Y-106807108D01*
X244221040Y-106794509D01*
X244221044Y-106794509D01*
X244224130Y-106794357D01*
X244427032Y-106764259D01*
X244574399Y-106742399D01*
X244574403Y-106742398D01*
X244577465Y-106741944D01*
X244580464Y-106741193D01*
X244580468Y-106741192D01*
X244752293Y-106698152D01*
X244923962Y-106655151D01*
X244926859Y-106654114D01*
X244926867Y-106654112D01*
X245089279Y-106596000D01*
X245260283Y-106534814D01*
X245583189Y-106382091D01*
X245889570Y-106198452D01*
X246127342Y-106022109D01*
X246173991Y-105987512D01*
X246173994Y-105987509D01*
X246176477Y-105985668D01*
X246420489Y-105764508D01*
X246426212Y-105759783D01*
X246428463Y-105757850D01*
X246431768Y-105755369D01*
X246441347Y-105745987D01*
X246460643Y-105721378D01*
X246470702Y-105710030D01*
X248619327Y-103561405D01*
X248681639Y-103527379D01*
X248708422Y-103524500D01*
X248761487Y-103524500D01*
X248767939Y-103523128D01*
X248767944Y-103523128D01*
X248868084Y-103501842D01*
X248948288Y-103484794D01*
X248954319Y-103482109D01*
X249116722Y-103409803D01*
X249116724Y-103409802D01*
X249122752Y-103407118D01*
X249137813Y-103396176D01*
X249212702Y-103341765D01*
X249277253Y-103294866D01*
X249307936Y-103260789D01*
X249400621Y-103157852D01*
X249400622Y-103157851D01*
X249405040Y-103152944D01*
X249463314Y-103052010D01*
X249497223Y-102993279D01*
X249497224Y-102993278D01*
X249500527Y-102987556D01*
X249559542Y-102805928D01*
X249561469Y-102787600D01*
X249578814Y-102622565D01*
X249579504Y-102616000D01*
X249570308Y-102528502D01*
X249560232Y-102432635D01*
X249560232Y-102432633D01*
X249559542Y-102426072D01*
X249500527Y-102244444D01*
X249405040Y-102079056D01*
X249390716Y-102063147D01*
X249281675Y-101942045D01*
X249281674Y-101942044D01*
X249277253Y-101937134D01*
X249140624Y-101837867D01*
X249128094Y-101828763D01*
X249128093Y-101828762D01*
X249122752Y-101824882D01*
X249116724Y-101822198D01*
X249116722Y-101822197D01*
X248954319Y-101749891D01*
X248954318Y-101749891D01*
X248948288Y-101747206D01*
X248854887Y-101727353D01*
X248767944Y-101708872D01*
X248767939Y-101708872D01*
X248761487Y-101707500D01*
X248570513Y-101707500D01*
X248564061Y-101708872D01*
X248564056Y-101708872D01*
X248477113Y-101727353D01*
X248383712Y-101747206D01*
X248377682Y-101749891D01*
X248377681Y-101749891D01*
X248215278Y-101822197D01*
X248215276Y-101822198D01*
X248209248Y-101824882D01*
X248203907Y-101828762D01*
X248203906Y-101828763D01*
X248191376Y-101837867D01*
X248054747Y-101937134D01*
X248050326Y-101942044D01*
X248050325Y-101942045D01*
X247941285Y-102063147D01*
X247926960Y-102079056D01*
X247831473Y-102244444D01*
X247772458Y-102426072D01*
X247771768Y-102432633D01*
X247771768Y-102432635D01*
X247755425Y-102588132D01*
X247728412Y-102653789D01*
X247719210Y-102664057D01*
X245574782Y-104808485D01*
X245562390Y-104819353D01*
X245546805Y-104831312D01*
X245540778Y-104835937D01*
X245536028Y-104841866D01*
X245528414Y-104851369D01*
X245514041Y-104866538D01*
X245346879Y-105015923D01*
X245335832Y-105024733D01*
X245131113Y-105169989D01*
X245119148Y-105177506D01*
X244899474Y-105298915D01*
X244886750Y-105305044D01*
X244654829Y-105401109D01*
X244641515Y-105405768D01*
X244475535Y-105453586D01*
X244400309Y-105475258D01*
X244386534Y-105478402D01*
X244320410Y-105489637D01*
X244139071Y-105520448D01*
X244125038Y-105522029D01*
X244079153Y-105524606D01*
X243975632Y-105530419D01*
X243906497Y-105514268D01*
X243857068Y-105463303D01*
X243849043Y-105444493D01*
X243835868Y-105405002D01*
X243833550Y-105398054D01*
X243740478Y-105247652D01*
X243615303Y-105122695D01*
X243579296Y-105100500D01*
X243470968Y-105033725D01*
X243470966Y-105033724D01*
X243464738Y-105029885D01*
X243384995Y-105003436D01*
X243303389Y-104976368D01*
X243303387Y-104976368D01*
X243296861Y-104974203D01*
X243290025Y-104973503D01*
X243290022Y-104973502D01*
X243246969Y-104969091D01*
X243192400Y-104963500D01*
X242391600Y-104963500D01*
X242388354Y-104963837D01*
X242388350Y-104963837D01*
X242292692Y-104973762D01*
X242292688Y-104973763D01*
X242285834Y-104974474D01*
X242279298Y-104976655D01*
X242279296Y-104976655D01*
X242161597Y-105015923D01*
X242118054Y-105030450D01*
X241967652Y-105123522D01*
X241892305Y-105199001D01*
X241881216Y-105210109D01*
X241818934Y-105244188D01*
X241748114Y-105239185D01*
X241703025Y-105210264D01*
X241620483Y-105127866D01*
X241615303Y-105122695D01*
X241583388Y-105103022D01*
X241528784Y-105069364D01*
X241481291Y-105016592D01*
X241468900Y-104962104D01*
X241468900Y-103835825D01*
X241488902Y-103767704D01*
X241528596Y-103728682D01*
X241632348Y-103664478D01*
X241718784Y-103577891D01*
X241781066Y-103543812D01*
X241851886Y-103548815D01*
X241896975Y-103577736D01*
X241916785Y-103597511D01*
X241984697Y-103665305D01*
X241990927Y-103669145D01*
X241990928Y-103669146D01*
X242128090Y-103753694D01*
X242135262Y-103758115D01*
X242205079Y-103781272D01*
X242296611Y-103811632D01*
X242296613Y-103811632D01*
X242303139Y-103813797D01*
X242309975Y-103814497D01*
X242309978Y-103814498D01*
X242346893Y-103818280D01*
X242407600Y-103824500D01*
X243208400Y-103824500D01*
X243211646Y-103824163D01*
X243211650Y-103824163D01*
X243307308Y-103814238D01*
X243307312Y-103814237D01*
X243314166Y-103813526D01*
X243320702Y-103811345D01*
X243320704Y-103811345D01*
X243468485Y-103762041D01*
X243481946Y-103757550D01*
X243632348Y-103664478D01*
X243757305Y-103539303D01*
X243761146Y-103533072D01*
X243846275Y-103394968D01*
X243846276Y-103394966D01*
X243850115Y-103388738D01*
X243892387Y-103261291D01*
X243903632Y-103227389D01*
X243903632Y-103227387D01*
X243905797Y-103220861D01*
X243908100Y-103198389D01*
X243912756Y-103152944D01*
X243916500Y-103116400D01*
X243916500Y-102115600D01*
X243914141Y-102092862D01*
X243906238Y-102016692D01*
X243906237Y-102016688D01*
X243905526Y-102009834D01*
X243896591Y-101983051D01*
X243851868Y-101849002D01*
X243849550Y-101842054D01*
X243756478Y-101691652D01*
X243631303Y-101566695D01*
X243613455Y-101555693D01*
X243503384Y-101487844D01*
X243455890Y-101435071D01*
X243443500Y-101380584D01*
X243443500Y-95460073D01*
X243463502Y-95391952D01*
X243475864Y-95375763D01*
X243558621Y-95283852D01*
X243558625Y-95283847D01*
X243563040Y-95278944D01*
X243658527Y-95113556D01*
X243717542Y-94931928D01*
X243721508Y-94894199D01*
X243736814Y-94748565D01*
X243737504Y-94742000D01*
X243728805Y-94659231D01*
X243718232Y-94558635D01*
X243718232Y-94558633D01*
X243717542Y-94552072D01*
X243658527Y-94370444D01*
X243640651Y-94339481D01*
X243602037Y-94272600D01*
X243563040Y-94205056D01*
X243549792Y-94190342D01*
X243439675Y-94068045D01*
X243439674Y-94068044D01*
X243435253Y-94063134D01*
X243336157Y-93991136D01*
X243286094Y-93954763D01*
X243286093Y-93954762D01*
X243280752Y-93950882D01*
X243274724Y-93948198D01*
X243274722Y-93948197D01*
X243112319Y-93875891D01*
X243112318Y-93875891D01*
X243106288Y-93873206D01*
X243012888Y-93853353D01*
X242925944Y-93834872D01*
X242925939Y-93834872D01*
X242919487Y-93833500D01*
X242728513Y-93833500D01*
X242722061Y-93834872D01*
X242722056Y-93834872D01*
X242635112Y-93853353D01*
X242541712Y-93873206D01*
X242535682Y-93875891D01*
X242535681Y-93875891D01*
X242373278Y-93948197D01*
X242373276Y-93948198D01*
X242367248Y-93950882D01*
X242361907Y-93954762D01*
X242361906Y-93954763D01*
X242311843Y-93991136D01*
X242212747Y-94063134D01*
X242208326Y-94068044D01*
X242208325Y-94068045D01*
X242098209Y-94190342D01*
X242084960Y-94205056D01*
X242045963Y-94272600D01*
X242007350Y-94339481D01*
X241989473Y-94370444D01*
X241930458Y-94552072D01*
X241929768Y-94558633D01*
X241929768Y-94558635D01*
X241919195Y-94659231D01*
X241910496Y-94742000D01*
X241911186Y-94748565D01*
X241926493Y-94894199D01*
X241930458Y-94931928D01*
X241989473Y-95113556D01*
X242084960Y-95278944D01*
X242140137Y-95340224D01*
X242170853Y-95404230D01*
X242172500Y-95424533D01*
X242172500Y-101380457D01*
X242152498Y-101448578D01*
X242112804Y-101487600D01*
X241983652Y-101567522D01*
X241978479Y-101572704D01*
X241897216Y-101654109D01*
X241834934Y-101688188D01*
X241764114Y-101683185D01*
X241719025Y-101654264D01*
X241636483Y-101571866D01*
X241631303Y-101566695D01*
X241613455Y-101555693D01*
X241486968Y-101477725D01*
X241486966Y-101477724D01*
X241480738Y-101473885D01*
X241363717Y-101435071D01*
X241319389Y-101420368D01*
X241319387Y-101420368D01*
X241312861Y-101418203D01*
X241306025Y-101417503D01*
X241306022Y-101417502D01*
X241262969Y-101413091D01*
X241208400Y-101407500D01*
X241094345Y-101407500D01*
X241026224Y-101387498D01*
X241005250Y-101370596D01*
X240669566Y-101034913D01*
X240657901Y-101021470D01*
X240643194Y-101001882D01*
X240640311Y-100998938D01*
X240640304Y-100998930D01*
X240636326Y-100994869D01*
X240633439Y-100991921D01*
X240628975Y-100988420D01*
X240623240Y-100983923D01*
X240615869Y-100977671D01*
X240400372Y-100780206D01*
X240396782Y-100776916D01*
X240394620Y-100775257D01*
X240394614Y-100775252D01*
X240281046Y-100688109D01*
X240143166Y-100582310D01*
X239873553Y-100410547D01*
X239589997Y-100262937D01*
X239294654Y-100140602D01*
X239292034Y-100139776D01*
X239292026Y-100139773D01*
X238992403Y-100045302D01*
X238992398Y-100045301D01*
X238989773Y-100044473D01*
X238892959Y-100023010D01*
X238680368Y-99975880D01*
X238680363Y-99975879D01*
X238677674Y-99975283D01*
X238406306Y-99939556D01*
X238363467Y-99933916D01*
X238363465Y-99933916D01*
X238360732Y-99933556D01*
X238079990Y-99921299D01*
X238067742Y-99920163D01*
X238055301Y-99918392D01*
X238047967Y-99918315D01*
X238045479Y-99918289D01*
X238045477Y-99918289D01*
X238041359Y-99918246D01*
X238037271Y-99918741D01*
X238037266Y-99918741D01*
X238008792Y-99922187D01*
X237993655Y-99923100D01*
X231850700Y-99923100D01*
X231782579Y-99903098D01*
X231736086Y-99849442D01*
X231724700Y-99797100D01*
X231724700Y-99735766D01*
X231717945Y-99673584D01*
X231666815Y-99537195D01*
X231579461Y-99420639D01*
X231571702Y-99414824D01*
X231571273Y-99414250D01*
X231565931Y-99408908D01*
X231566702Y-99408137D01*
X231529189Y-99357965D01*
X231524165Y-99287146D01*
X231558226Y-99224854D01*
X231571703Y-99213175D01*
X231572282Y-99212741D01*
X231579461Y-99207361D01*
X231666815Y-99090805D01*
X231717945Y-98954416D01*
X231724700Y-98892234D01*
X231724700Y-97195766D01*
X231717945Y-97133584D01*
X231666815Y-96997195D01*
X231579461Y-96880639D01*
X231571291Y-96874516D01*
X231570556Y-96873533D01*
X231565931Y-96868908D01*
X231566598Y-96868241D01*
X231528774Y-96817658D01*
X231523747Y-96746839D01*
X231557805Y-96684545D01*
X231571286Y-96672863D01*
X231571925Y-96672384D01*
X231584485Y-96659824D01*
X231660986Y-96557749D01*
X231669524Y-96542154D01*
X231714678Y-96421706D01*
X231718305Y-96406451D01*
X231723831Y-96355586D01*
X231724200Y-96348772D01*
X231724200Y-95776115D01*
X231719725Y-95760876D01*
X231718335Y-95759671D01*
X231710652Y-95758000D01*
X227525916Y-95758000D01*
X227510677Y-95762475D01*
X227509472Y-95763865D01*
X227507801Y-95771548D01*
X227507801Y-96348769D01*
X227508171Y-96355590D01*
X227513695Y-96406452D01*
X227517321Y-96421704D01*
X227562476Y-96542154D01*
X227571014Y-96557749D01*
X227647515Y-96659824D01*
X227660075Y-96672384D01*
X227660714Y-96672863D01*
X227661188Y-96673497D01*
X227666426Y-96678735D01*
X227665670Y-96679491D01*
X227703228Y-96729723D01*
X227708252Y-96800542D01*
X227674191Y-96862835D01*
X227660710Y-96874515D01*
X227652539Y-96880639D01*
X227565185Y-96997195D01*
X227514055Y-97133584D01*
X227507300Y-97195766D01*
X227507300Y-97257100D01*
X227487298Y-97325221D01*
X227433642Y-97371714D01*
X227381300Y-97383100D01*
X218275109Y-97383100D01*
X218257355Y-97381843D01*
X218252083Y-97381093D01*
X218233107Y-97378392D01*
X218226425Y-97378322D01*
X218223293Y-97378289D01*
X218223290Y-97378289D01*
X218219165Y-97378246D01*
X218212979Y-97378994D01*
X218204941Y-97379705D01*
X217920769Y-97395665D01*
X217626126Y-97445727D01*
X217338940Y-97528463D01*
X217335672Y-97529817D01*
X217335671Y-97529817D01*
X217066092Y-97641480D01*
X217066087Y-97641483D01*
X217062824Y-97642834D01*
X216801249Y-97787402D01*
X216557506Y-97960347D01*
X216419044Y-98084085D01*
X216360323Y-98136561D01*
X216352018Y-98143368D01*
X216344153Y-98149273D01*
X216334192Y-98159028D01*
X216331650Y-98162270D01*
X216331649Y-98162271D01*
X216313941Y-98184855D01*
X216303882Y-98196203D01*
X215988595Y-98511490D01*
X215926283Y-98545516D01*
X215855468Y-98540451D01*
X215798632Y-98497904D01*
X215773821Y-98431384D01*
X215773500Y-98422395D01*
X215773500Y-93812234D01*
X227507300Y-93812234D01*
X227514055Y-93874416D01*
X227565185Y-94010805D01*
X227652539Y-94127361D01*
X227659719Y-94132742D01*
X227660709Y-94133484D01*
X227661444Y-94134467D01*
X227666069Y-94139092D01*
X227665402Y-94139759D01*
X227703226Y-94190342D01*
X227708253Y-94261161D01*
X227674195Y-94323455D01*
X227660714Y-94335137D01*
X227660075Y-94335616D01*
X227647515Y-94348176D01*
X227571014Y-94450251D01*
X227562476Y-94465846D01*
X227517322Y-94586294D01*
X227513695Y-94601549D01*
X227508169Y-94652414D01*
X227507800Y-94659228D01*
X227507800Y-95231885D01*
X227512275Y-95247124D01*
X227513665Y-95248329D01*
X227521348Y-95250000D01*
X231706084Y-95250000D01*
X231721323Y-95245525D01*
X231722528Y-95244135D01*
X231724199Y-95236452D01*
X231724199Y-94659231D01*
X231723829Y-94652410D01*
X231718305Y-94601548D01*
X231714679Y-94586296D01*
X231669524Y-94465846D01*
X231660986Y-94450251D01*
X231584485Y-94348176D01*
X231571925Y-94335616D01*
X231571286Y-94335137D01*
X231570812Y-94334503D01*
X231565574Y-94329265D01*
X231566330Y-94328509D01*
X231528772Y-94278277D01*
X231523748Y-94207458D01*
X231557809Y-94145165D01*
X231571291Y-94133484D01*
X231572281Y-94132742D01*
X231579461Y-94127361D01*
X231666815Y-94010805D01*
X231717945Y-93874416D01*
X231724700Y-93812234D01*
X231724700Y-92115766D01*
X231717945Y-92053584D01*
X231666815Y-91917195D01*
X231579461Y-91800639D01*
X231571702Y-91794824D01*
X231571273Y-91794250D01*
X231565931Y-91788908D01*
X231566702Y-91788137D01*
X231529189Y-91737965D01*
X231524165Y-91667146D01*
X231558226Y-91604854D01*
X231571703Y-91593175D01*
X231572282Y-91592741D01*
X231579461Y-91587361D01*
X231666815Y-91470805D01*
X231717945Y-91334416D01*
X231724700Y-91272234D01*
X231724700Y-89575766D01*
X231717945Y-89513584D01*
X231666815Y-89377195D01*
X231579461Y-89260639D01*
X231571702Y-89254824D01*
X231571273Y-89254250D01*
X231565931Y-89248908D01*
X231566702Y-89248137D01*
X231529189Y-89197965D01*
X231524165Y-89127146D01*
X231558226Y-89064854D01*
X231571703Y-89053175D01*
X231572282Y-89052741D01*
X231579461Y-89047361D01*
X231666815Y-88930805D01*
X231717945Y-88794416D01*
X231724700Y-88732234D01*
X231724700Y-87035766D01*
X231717945Y-86973584D01*
X231666815Y-86837195D01*
X231579461Y-86720639D01*
X231571702Y-86714824D01*
X231571273Y-86714250D01*
X231565931Y-86708908D01*
X231566702Y-86708137D01*
X231529189Y-86657965D01*
X231524165Y-86587146D01*
X231558226Y-86524854D01*
X231571703Y-86513175D01*
X231572282Y-86512741D01*
X231579461Y-86507361D01*
X231666815Y-86390805D01*
X231717945Y-86254416D01*
X231724700Y-86192234D01*
X231724700Y-84495766D01*
X231717945Y-84433584D01*
X231666815Y-84297195D01*
X231579461Y-84180639D01*
X231571291Y-84174516D01*
X231570556Y-84173533D01*
X231565931Y-84168908D01*
X231566598Y-84168241D01*
X231528774Y-84117658D01*
X231523747Y-84046839D01*
X231557805Y-83984545D01*
X231571286Y-83972863D01*
X231571925Y-83972384D01*
X231584485Y-83959824D01*
X231660986Y-83857749D01*
X231669524Y-83842154D01*
X231714678Y-83721706D01*
X231718305Y-83706451D01*
X231723831Y-83655586D01*
X231724200Y-83648772D01*
X231724200Y-83076115D01*
X231719725Y-83060876D01*
X231718335Y-83059671D01*
X231710652Y-83058000D01*
X227525916Y-83058000D01*
X227510677Y-83062475D01*
X227509472Y-83063865D01*
X227507801Y-83071548D01*
X227507801Y-83648769D01*
X227508171Y-83655590D01*
X227513695Y-83706452D01*
X227517321Y-83721704D01*
X227562476Y-83842154D01*
X227571014Y-83857749D01*
X227647515Y-83959824D01*
X227660075Y-83972384D01*
X227660714Y-83972863D01*
X227661188Y-83973497D01*
X227666426Y-83978735D01*
X227665670Y-83979491D01*
X227703228Y-84029723D01*
X227708252Y-84100542D01*
X227674191Y-84162835D01*
X227660710Y-84174515D01*
X227652539Y-84180639D01*
X227565185Y-84297195D01*
X227514055Y-84433584D01*
X227507300Y-84495766D01*
X227507300Y-86192234D01*
X227514055Y-86254416D01*
X227565185Y-86390805D01*
X227652539Y-86507361D01*
X227659718Y-86512741D01*
X227660297Y-86513175D01*
X227660727Y-86513750D01*
X227666069Y-86519092D01*
X227665298Y-86519863D01*
X227702811Y-86570035D01*
X227707835Y-86640854D01*
X227673774Y-86703146D01*
X227660300Y-86714823D01*
X227652539Y-86720639D01*
X227565185Y-86837195D01*
X227514055Y-86973584D01*
X227507300Y-87035766D01*
X227507300Y-88732234D01*
X227514055Y-88794416D01*
X227565185Y-88930805D01*
X227652539Y-89047361D01*
X227659718Y-89052741D01*
X227660297Y-89053175D01*
X227660727Y-89053750D01*
X227666069Y-89059092D01*
X227665298Y-89059863D01*
X227702811Y-89110035D01*
X227707835Y-89180854D01*
X227673774Y-89243146D01*
X227660300Y-89254823D01*
X227652539Y-89260639D01*
X227565185Y-89377195D01*
X227514055Y-89513584D01*
X227507300Y-89575766D01*
X227507300Y-91272234D01*
X227514055Y-91334416D01*
X227565185Y-91470805D01*
X227652539Y-91587361D01*
X227659718Y-91592741D01*
X227660297Y-91593175D01*
X227660727Y-91593750D01*
X227666069Y-91599092D01*
X227665298Y-91599863D01*
X227702811Y-91650035D01*
X227707835Y-91720854D01*
X227673774Y-91783146D01*
X227660300Y-91794823D01*
X227652539Y-91800639D01*
X227565185Y-91917195D01*
X227514055Y-92053584D01*
X227507300Y-92115766D01*
X227507300Y-93812234D01*
X215773500Y-93812234D01*
X215773500Y-87266448D01*
X215793502Y-87198327D01*
X215838492Y-87159691D01*
X215837000Y-87157106D01*
X215842720Y-87153803D01*
X215848752Y-87151118D01*
X216003253Y-87038866D01*
X216067706Y-86967284D01*
X216126621Y-86901852D01*
X216126622Y-86901851D01*
X216131040Y-86896944D01*
X216221189Y-86740802D01*
X216223223Y-86737279D01*
X216223224Y-86737278D01*
X216226527Y-86731556D01*
X216285542Y-86549928D01*
X216288178Y-86524854D01*
X216304814Y-86366565D01*
X216305504Y-86360000D01*
X216301473Y-86321643D01*
X216286232Y-86176635D01*
X216286232Y-86176633D01*
X216285542Y-86170072D01*
X216226527Y-85988444D01*
X216131040Y-85823056D01*
X216003253Y-85681134D01*
X215848752Y-85568882D01*
X215842724Y-85566198D01*
X215842722Y-85566197D01*
X215680319Y-85493891D01*
X215680318Y-85493891D01*
X215674288Y-85491206D01*
X215579227Y-85471000D01*
X215493944Y-85452872D01*
X215493939Y-85452872D01*
X215487487Y-85451500D01*
X215296513Y-85451500D01*
X215290061Y-85452872D01*
X215290056Y-85452872D01*
X215166697Y-85479093D01*
X215095906Y-85473691D01*
X215039273Y-85430874D01*
X215014780Y-85364236D01*
X215014500Y-85355846D01*
X215014500Y-81112234D01*
X227507300Y-81112234D01*
X227514055Y-81174416D01*
X227565185Y-81310805D01*
X227652539Y-81427361D01*
X227659719Y-81432742D01*
X227660709Y-81433484D01*
X227661444Y-81434467D01*
X227666069Y-81439092D01*
X227665402Y-81439759D01*
X227703226Y-81490342D01*
X227708253Y-81561161D01*
X227674195Y-81623455D01*
X227660714Y-81635137D01*
X227660075Y-81635616D01*
X227647515Y-81648176D01*
X227571014Y-81750251D01*
X227562476Y-81765846D01*
X227517322Y-81886294D01*
X227513695Y-81901549D01*
X227508169Y-81952414D01*
X227507800Y-81959228D01*
X227507800Y-82531885D01*
X227512275Y-82547124D01*
X227513665Y-82548329D01*
X227521348Y-82550000D01*
X231706084Y-82550000D01*
X231721323Y-82545525D01*
X231722528Y-82544135D01*
X231724199Y-82536452D01*
X231724199Y-81959231D01*
X231723829Y-81952410D01*
X231718305Y-81901548D01*
X231714679Y-81886296D01*
X231669524Y-81765846D01*
X231660986Y-81750251D01*
X231584485Y-81648176D01*
X231571925Y-81635616D01*
X231571286Y-81635137D01*
X231570812Y-81634503D01*
X231565574Y-81629265D01*
X231566330Y-81628509D01*
X231528772Y-81578277D01*
X231523748Y-81507458D01*
X231557809Y-81445165D01*
X231571291Y-81433484D01*
X231572281Y-81432742D01*
X231579461Y-81427361D01*
X231666815Y-81310805D01*
X231717945Y-81174416D01*
X231724700Y-81112234D01*
X231724700Y-79415766D01*
X231717945Y-79353584D01*
X231666815Y-79217195D01*
X231579461Y-79100639D01*
X231571702Y-79094824D01*
X231571273Y-79094250D01*
X231565931Y-79088908D01*
X231566702Y-79088137D01*
X231529189Y-79037965D01*
X231524165Y-78967146D01*
X231558226Y-78904854D01*
X231571703Y-78893175D01*
X231572282Y-78892741D01*
X231579461Y-78887361D01*
X231666815Y-78770805D01*
X231717945Y-78634416D01*
X231724700Y-78572234D01*
X231724700Y-76875766D01*
X231717945Y-76813584D01*
X231666815Y-76677195D01*
X231579461Y-76560639D01*
X231571702Y-76554824D01*
X231571273Y-76554250D01*
X231565931Y-76548908D01*
X231566702Y-76548137D01*
X231529189Y-76497965D01*
X231524165Y-76427146D01*
X231558226Y-76364854D01*
X231571703Y-76353175D01*
X231572282Y-76352741D01*
X231579461Y-76347361D01*
X231666815Y-76230805D01*
X231717945Y-76094416D01*
X231724700Y-76032234D01*
X231724700Y-74335766D01*
X231717945Y-74273584D01*
X231666815Y-74137195D01*
X231579461Y-74020639D01*
X231571702Y-74014824D01*
X231571273Y-74014250D01*
X231565931Y-74008908D01*
X231566702Y-74008137D01*
X231529189Y-73957965D01*
X231524165Y-73887146D01*
X231558226Y-73824854D01*
X231571703Y-73813175D01*
X231572282Y-73812741D01*
X231579461Y-73807361D01*
X231666815Y-73690805D01*
X231717945Y-73554416D01*
X231724700Y-73492234D01*
X231724700Y-71795766D01*
X231717945Y-71733584D01*
X231666815Y-71597195D01*
X231579461Y-71480639D01*
X231571291Y-71474516D01*
X231570556Y-71473533D01*
X231565931Y-71468908D01*
X231566598Y-71468241D01*
X231528774Y-71417658D01*
X231523747Y-71346839D01*
X231557805Y-71284545D01*
X231571286Y-71272863D01*
X231571925Y-71272384D01*
X231584485Y-71259824D01*
X231660986Y-71157749D01*
X231669524Y-71142154D01*
X231714678Y-71021706D01*
X231718305Y-71006451D01*
X231723831Y-70955586D01*
X231724200Y-70948772D01*
X231724200Y-70376115D01*
X231719725Y-70360876D01*
X231718335Y-70359671D01*
X231710652Y-70358000D01*
X227525916Y-70358000D01*
X227510677Y-70362475D01*
X227509472Y-70363865D01*
X227507801Y-70371548D01*
X227507801Y-70948769D01*
X227508171Y-70955590D01*
X227513695Y-71006452D01*
X227517321Y-71021704D01*
X227562476Y-71142154D01*
X227571014Y-71157749D01*
X227647515Y-71259824D01*
X227660075Y-71272384D01*
X227660714Y-71272863D01*
X227661188Y-71273497D01*
X227666426Y-71278735D01*
X227665670Y-71279491D01*
X227703228Y-71329723D01*
X227708252Y-71400542D01*
X227674191Y-71462835D01*
X227660710Y-71474515D01*
X227652539Y-71480639D01*
X227565185Y-71597195D01*
X227514055Y-71733584D01*
X227507300Y-71795766D01*
X227507300Y-73492234D01*
X227514055Y-73554416D01*
X227565185Y-73690805D01*
X227652539Y-73807361D01*
X227659718Y-73812741D01*
X227660297Y-73813175D01*
X227660727Y-73813750D01*
X227666069Y-73819092D01*
X227665298Y-73819863D01*
X227702811Y-73870035D01*
X227707835Y-73940854D01*
X227673774Y-74003146D01*
X227660300Y-74014823D01*
X227652539Y-74020639D01*
X227565185Y-74137195D01*
X227514055Y-74273584D01*
X227507300Y-74335766D01*
X227507300Y-76032234D01*
X227514055Y-76094416D01*
X227565185Y-76230805D01*
X227652539Y-76347361D01*
X227659718Y-76352741D01*
X227660297Y-76353175D01*
X227660727Y-76353750D01*
X227666069Y-76359092D01*
X227665298Y-76359863D01*
X227702811Y-76410035D01*
X227707835Y-76480854D01*
X227673774Y-76543146D01*
X227660300Y-76554823D01*
X227652539Y-76560639D01*
X227565185Y-76677195D01*
X227514055Y-76813584D01*
X227507300Y-76875766D01*
X227507300Y-78572234D01*
X227514055Y-78634416D01*
X227565185Y-78770805D01*
X227652539Y-78887361D01*
X227659718Y-78892741D01*
X227660297Y-78893175D01*
X227660727Y-78893750D01*
X227666069Y-78899092D01*
X227665298Y-78899863D01*
X227702811Y-78950035D01*
X227707835Y-79020854D01*
X227673774Y-79083146D01*
X227660300Y-79094823D01*
X227652539Y-79100639D01*
X227565185Y-79217195D01*
X227514055Y-79353584D01*
X227507300Y-79415766D01*
X227507300Y-81112234D01*
X215014500Y-81112234D01*
X215014500Y-59385182D01*
X215015726Y-59367646D01*
X215018475Y-59348088D01*
X215018475Y-59348083D01*
X215019026Y-59344165D01*
X215019325Y-59322740D01*
X215018884Y-59318804D01*
X215018883Y-59318794D01*
X215017771Y-59308879D01*
X215017106Y-59300333D01*
X215008174Y-59095766D01*
X215003753Y-58994505D01*
X214960868Y-58668767D01*
X214943526Y-58590540D01*
X214901771Y-58402198D01*
X214889757Y-58348006D01*
X214888928Y-58345376D01*
X214791790Y-58037292D01*
X214791787Y-58037284D01*
X214790961Y-58034664D01*
X214665231Y-57731125D01*
X214513524Y-57439699D01*
X214375891Y-57223658D01*
X214338470Y-57164919D01*
X214338468Y-57164916D01*
X214336995Y-57162604D01*
X214335331Y-57160436D01*
X214335323Y-57160424D01*
X214138669Y-56904141D01*
X214136987Y-56901949D01*
X214135129Y-56899921D01*
X214135122Y-56899913D01*
X213974937Y-56725102D01*
X213973403Y-56723397D01*
X213972948Y-56722882D01*
X213972946Y-56722880D01*
X213971652Y-56721415D01*
X213971540Y-56721303D01*
X213970871Y-56719983D01*
X213970532Y-56720295D01*
X213946697Y-56694284D01*
X213938975Y-56684998D01*
X213933222Y-56677363D01*
X213933219Y-56677360D01*
X213930839Y-56674201D01*
X213915901Y-56658840D01*
X213887573Y-56636226D01*
X213877087Y-56626850D01*
X212381405Y-55131167D01*
X212347379Y-55068855D01*
X212344500Y-55042072D01*
X212344500Y-54015766D01*
X212337745Y-53953584D01*
X212286615Y-53817195D01*
X212199261Y-53700639D01*
X212191502Y-53694824D01*
X212191073Y-53694250D01*
X212185731Y-53688908D01*
X212186502Y-53688137D01*
X212148989Y-53637965D01*
X212143965Y-53567146D01*
X212178026Y-53504854D01*
X212191503Y-53493175D01*
X212192082Y-53492741D01*
X212199261Y-53487361D01*
X212286615Y-53370805D01*
X212337745Y-53234416D01*
X212344500Y-53172234D01*
X212344500Y-51475766D01*
X212337745Y-51413584D01*
X212334971Y-51406184D01*
X212333144Y-51398500D01*
X212334416Y-51398198D01*
X212329823Y-51335477D01*
X212363743Y-51273107D01*
X212425997Y-51238976D01*
X212453088Y-51236051D01*
X227395120Y-51247784D01*
G37*
%TD.AperFunction*%
%TA.AperFunction,Conductor*%
G36*
X206120895Y-88468138D02*
G01*
X206166516Y-88522537D01*
X206175292Y-88594127D01*
X206132946Y-88843358D01*
X206120956Y-89056847D01*
X206119526Y-89056767D01*
X206119756Y-89058623D01*
X206120500Y-89058623D01*
X206120500Y-89061429D01*
X206120427Y-89064044D01*
X206120500Y-89064635D01*
X206120500Y-89064968D01*
X206120340Y-89067820D01*
X206120315Y-89068016D01*
X206120302Y-89068495D01*
X206117626Y-89116136D01*
X206117180Y-89120899D01*
X206117312Y-89121225D01*
X206115867Y-89132201D01*
X206116435Y-89137349D01*
X206116348Y-89138905D01*
X206116607Y-89138905D01*
X206116971Y-89142203D01*
X206116971Y-89142204D01*
X206119739Y-89167274D01*
X206120500Y-89181101D01*
X206120500Y-101483420D01*
X206119422Y-101499866D01*
X206115867Y-101526869D01*
X206117834Y-101544685D01*
X206118324Y-101566748D01*
X206109366Y-101703431D01*
X206107215Y-101719773D01*
X206075615Y-101878635D01*
X206071349Y-101894554D01*
X206019289Y-102047919D01*
X206012982Y-102063147D01*
X205941342Y-102208418D01*
X205933101Y-102222691D01*
X205843120Y-102357357D01*
X205833088Y-102370432D01*
X205827757Y-102376511D01*
X205783850Y-102426578D01*
X205723897Y-102464605D01*
X205689118Y-102469500D01*
X205644513Y-102469500D01*
X205638061Y-102470872D01*
X205638056Y-102470872D01*
X205551112Y-102489353D01*
X205457712Y-102509206D01*
X205451682Y-102511891D01*
X205451681Y-102511891D01*
X205289278Y-102584197D01*
X205289276Y-102584198D01*
X205283248Y-102586882D01*
X205277907Y-102590762D01*
X205277906Y-102590763D01*
X205243171Y-102616000D01*
X205128747Y-102699134D01*
X205124326Y-102704044D01*
X205124325Y-102704045D01*
X205026937Y-102812206D01*
X205000960Y-102841056D01*
X204905473Y-103006444D01*
X204846458Y-103188072D01*
X204845768Y-103194633D01*
X204845768Y-103194635D01*
X204834152Y-103305157D01*
X204826496Y-103378000D01*
X204829557Y-103407118D01*
X204834950Y-103458431D01*
X204822178Y-103528269D01*
X204773676Y-103580116D01*
X204704843Y-103597511D01*
X204691152Y-103596238D01*
X204639271Y-103588543D01*
X204618672Y-103585487D01*
X204615594Y-103585336D01*
X204615586Y-103585335D01*
X204501596Y-103579736D01*
X204450134Y-103577208D01*
X204444131Y-103576605D01*
X204442461Y-103576196D01*
X204436855Y-103575848D01*
X204436854Y-103575848D01*
X204433182Y-103575620D01*
X204433172Y-103575620D01*
X204431243Y-103575500D01*
X204418473Y-103575500D01*
X204412291Y-103575348D01*
X204407183Y-103575097D01*
X204399285Y-103574709D01*
X204387936Y-103573635D01*
X204372927Y-103571526D01*
X204372925Y-103571526D01*
X204368998Y-103570974D01*
X204358285Y-103570824D01*
X204351535Y-103570730D01*
X204351530Y-103570730D01*
X204347573Y-103570675D01*
X204321185Y-103573635D01*
X204311556Y-103574715D01*
X204297511Y-103575500D01*
X203048500Y-103575500D01*
X202980379Y-103555498D01*
X202933886Y-103501842D01*
X202922500Y-103449500D01*
X202922500Y-102787600D01*
X202913321Y-102699134D01*
X202912238Y-102688692D01*
X202912237Y-102688688D01*
X202911526Y-102681834D01*
X202902170Y-102653789D01*
X202857868Y-102521002D01*
X202855550Y-102514054D01*
X202762478Y-102363652D01*
X202637303Y-102238695D01*
X202611340Y-102222691D01*
X202492968Y-102149725D01*
X202492966Y-102149724D01*
X202486738Y-102145885D01*
X202361836Y-102104457D01*
X202325389Y-102092368D01*
X202325387Y-102092368D01*
X202318861Y-102090203D01*
X202312025Y-102089503D01*
X202312022Y-102089502D01*
X202265874Y-102084774D01*
X202214400Y-102079500D01*
X201613600Y-102079500D01*
X201610354Y-102079837D01*
X201610350Y-102079837D01*
X201514692Y-102089762D01*
X201514688Y-102089763D01*
X201507834Y-102090474D01*
X201501298Y-102092655D01*
X201501296Y-102092655D01*
X201442108Y-102112402D01*
X201340054Y-102146450D01*
X201189652Y-102239522D01*
X201184479Y-102244704D01*
X201176759Y-102252437D01*
X201064695Y-102364697D01*
X201060855Y-102370927D01*
X201060854Y-102370928D01*
X201058472Y-102374792D01*
X201022818Y-102432635D01*
X201020961Y-102435647D01*
X200968189Y-102483140D01*
X200898117Y-102494564D01*
X200832994Y-102466290D01*
X200806557Y-102435834D01*
X200765937Y-102370193D01*
X200756901Y-102358792D01*
X200642171Y-102244261D01*
X200630760Y-102235249D01*
X200492757Y-102150184D01*
X200479576Y-102144037D01*
X200325290Y-102092862D01*
X200311914Y-102089995D01*
X200217562Y-102080328D01*
X200211145Y-102080000D01*
X200186115Y-102080000D01*
X200170876Y-102084475D01*
X200169671Y-102085865D01*
X200168000Y-102093548D01*
X200168000Y-106577884D01*
X200172475Y-106593123D01*
X200173865Y-106594328D01*
X200181548Y-106595999D01*
X200211095Y-106595999D01*
X200217614Y-106595662D01*
X200313206Y-106585743D01*
X200326600Y-106582851D01*
X200480784Y-106531412D01*
X200493962Y-106525239D01*
X200631807Y-106439937D01*
X200643208Y-106430901D01*
X200757739Y-106316171D01*
X200766751Y-106304760D01*
X200806451Y-106240354D01*
X200859223Y-106192861D01*
X200929294Y-106181437D01*
X200994418Y-106209711D01*
X201020854Y-106240166D01*
X201065522Y-106312348D01*
X201190697Y-106437305D01*
X201196927Y-106441145D01*
X201196928Y-106441146D01*
X201334288Y-106525816D01*
X201341262Y-106530115D01*
X201358565Y-106535854D01*
X201502611Y-106583632D01*
X201502613Y-106583632D01*
X201509139Y-106585797D01*
X201515975Y-106586497D01*
X201515978Y-106586498D01*
X201559031Y-106590909D01*
X201613600Y-106596500D01*
X202214400Y-106596500D01*
X202217646Y-106596163D01*
X202217650Y-106596163D01*
X202313308Y-106586238D01*
X202313312Y-106586237D01*
X202320166Y-106585526D01*
X202326702Y-106583345D01*
X202326704Y-106583345D01*
X202476127Y-106533493D01*
X202487946Y-106529550D01*
X202638348Y-106436478D01*
X202665004Y-106409776D01*
X202758134Y-106316483D01*
X202763305Y-106311303D01*
X202767338Y-106304760D01*
X202852275Y-106166968D01*
X202852276Y-106166966D01*
X202856115Y-106160738D01*
X202900750Y-106026166D01*
X202909632Y-105999389D01*
X202909632Y-105999387D01*
X202911797Y-105992861D01*
X202912635Y-105984689D01*
X202916909Y-105942969D01*
X202922500Y-105888400D01*
X202922500Y-105226500D01*
X202942502Y-105158379D01*
X202996158Y-105111886D01*
X203048500Y-105100500D01*
X204291335Y-105100500D01*
X204307128Y-105101494D01*
X204336859Y-105105250D01*
X204343876Y-105104562D01*
X204357419Y-105103235D01*
X204379597Y-105103022D01*
X204531276Y-105114959D01*
X204550803Y-105118052D01*
X204720345Y-105158755D01*
X204739140Y-105164863D01*
X204794562Y-105187819D01*
X204900223Y-105231585D01*
X204917839Y-105240561D01*
X205066502Y-105331661D01*
X205082495Y-105343280D01*
X205156175Y-105406209D01*
X205190097Y-105435181D01*
X205202449Y-105448130D01*
X205202456Y-105448124D01*
X205207363Y-105453170D01*
X205211683Y-105458739D01*
X205244545Y-105485732D01*
X205253664Y-105494002D01*
X208380889Y-108621227D01*
X208392422Y-108634494D01*
X208404311Y-108650272D01*
X208404322Y-108650284D01*
X208406695Y-108653434D01*
X208421633Y-108668795D01*
X208424714Y-108671255D01*
X208424731Y-108671270D01*
X208437192Y-108681217D01*
X208443198Y-108686327D01*
X208623803Y-108850017D01*
X208626289Y-108851861D01*
X208626293Y-108851864D01*
X208839329Y-109009862D01*
X208841814Y-109011705D01*
X209074624Y-109151245D01*
X209077403Y-109152559D01*
X209077406Y-109152561D01*
X209317198Y-109265975D01*
X209317207Y-109265979D01*
X209319990Y-109267295D01*
X209409313Y-109299255D01*
X209572644Y-109357696D01*
X209572652Y-109357698D01*
X209575549Y-109358735D01*
X209622961Y-109370611D01*
X209835837Y-109423934D01*
X209835841Y-109423935D01*
X209838840Y-109424686D01*
X209841902Y-109425140D01*
X209841906Y-109425141D01*
X209943075Y-109440148D01*
X210107328Y-109464513D01*
X210110412Y-109464664D01*
X210110417Y-109464665D01*
X210206969Y-109469408D01*
X210275866Y-109472792D01*
X210281869Y-109473395D01*
X210283539Y-109473804D01*
X210289145Y-109474152D01*
X210289146Y-109474152D01*
X210292818Y-109474380D01*
X210292828Y-109474380D01*
X210294757Y-109474500D01*
X210307527Y-109474500D01*
X210313709Y-109474652D01*
X210318817Y-109474903D01*
X210326715Y-109475291D01*
X210338064Y-109476365D01*
X210353073Y-109478474D01*
X210353075Y-109478474D01*
X210357002Y-109479026D01*
X210367978Y-109479179D01*
X210435812Y-109500129D01*
X210467045Y-109529600D01*
X210538739Y-109625261D01*
X210655295Y-109712615D01*
X210791684Y-109763745D01*
X210853866Y-109770500D01*
X211773010Y-109770500D01*
X211841131Y-109790502D01*
X211887624Y-109844158D01*
X211897728Y-109914432D01*
X211893178Y-109934388D01*
X211857359Y-110047994D01*
X211835604Y-110116991D01*
X211831848Y-110127312D01*
X211736250Y-110358107D01*
X211694582Y-110458701D01*
X211689940Y-110468654D01*
X211565001Y-110708661D01*
X211524325Y-110786799D01*
X211518830Y-110796317D01*
X211483250Y-110852166D01*
X211326116Y-111098817D01*
X211319812Y-111107821D01*
X211177159Y-111293731D01*
X211116133Y-111336860D01*
X211111702Y-111338300D01*
X211105246Y-111339672D01*
X211099216Y-111342357D01*
X211099215Y-111342357D01*
X210936812Y-111414663D01*
X210936810Y-111414664D01*
X210930782Y-111417348D01*
X210776281Y-111529600D01*
X210771860Y-111534510D01*
X210771859Y-111534511D01*
X210707931Y-111605511D01*
X210648494Y-111671522D01*
X210553007Y-111836910D01*
X210550965Y-111843195D01*
X210500870Y-111997370D01*
X210470133Y-112047529D01*
X210261071Y-112256592D01*
X210249199Y-112267058D01*
X210231079Y-112281113D01*
X210231076Y-112281115D01*
X210225514Y-112285430D01*
X210221048Y-112290868D01*
X210221043Y-112290872D01*
X210207693Y-112307125D01*
X210195452Y-112320047D01*
X209952800Y-112542397D01*
X209944380Y-112549463D01*
X209659821Y-112767812D01*
X209650817Y-112774116D01*
X209348319Y-112966829D01*
X209338800Y-112972324D01*
X209020654Y-113137940D01*
X209010710Y-113142578D01*
X208679312Y-113279848D01*
X208668999Y-113283601D01*
X208414777Y-113363757D01*
X208326924Y-113391457D01*
X208316307Y-113394302D01*
X207966132Y-113471933D01*
X207955323Y-113473840D01*
X207659670Y-113512763D01*
X207599709Y-113520657D01*
X207588760Y-113521615D01*
X207271515Y-113535466D01*
X207250229Y-113534592D01*
X207242636Y-113533633D01*
X207242637Y-113533633D01*
X207235646Y-113532750D01*
X207228639Y-113533437D01*
X207228636Y-113533437D01*
X207193331Y-113536899D01*
X207181036Y-113537500D01*
X196117081Y-113537500D01*
X196048960Y-113517498D01*
X196043020Y-113513436D01*
X196042094Y-113512763D01*
X196042093Y-113512762D01*
X196036752Y-113508882D01*
X196030724Y-113506198D01*
X196030722Y-113506197D01*
X195868319Y-113433891D01*
X195868318Y-113433891D01*
X195862288Y-113431206D01*
X195768887Y-113411353D01*
X195681944Y-113392872D01*
X195681939Y-113392872D01*
X195675487Y-113391500D01*
X195484513Y-113391500D01*
X195478061Y-113392872D01*
X195478056Y-113392872D01*
X195391113Y-113411353D01*
X195297712Y-113431206D01*
X195291685Y-113433889D01*
X195291677Y-113433892D01*
X195148148Y-113497795D01*
X195077781Y-113507229D01*
X195013484Y-113477122D01*
X194975671Y-113417033D01*
X194970900Y-113382688D01*
X194970900Y-111585096D01*
X196306000Y-111585096D01*
X196306337Y-111591611D01*
X196316256Y-111687203D01*
X196319150Y-111700602D01*
X196370588Y-111854783D01*
X196376762Y-111867962D01*
X196462063Y-112005807D01*
X196471099Y-112017208D01*
X196585830Y-112131739D01*
X196597241Y-112140751D01*
X196735245Y-112225818D01*
X196748423Y-112231962D01*
X196902716Y-112283139D01*
X196916081Y-112286005D01*
X197010439Y-112295672D01*
X197016855Y-112296000D01*
X197045885Y-112296000D01*
X197061124Y-112291525D01*
X197062329Y-112290135D01*
X197064000Y-112282452D01*
X197064000Y-112277885D01*
X198064000Y-112277885D01*
X198068475Y-112293124D01*
X198069865Y-112294329D01*
X198077548Y-112296000D01*
X198111096Y-112296000D01*
X198117611Y-112295663D01*
X198213203Y-112285744D01*
X198226602Y-112282850D01*
X198380783Y-112231412D01*
X198393962Y-112225238D01*
X198531807Y-112139937D01*
X198543208Y-112130901D01*
X198657739Y-112016170D01*
X198666751Y-112004759D01*
X198751818Y-111866755D01*
X198757962Y-111853577D01*
X198809139Y-111699284D01*
X198812005Y-111685919D01*
X198821672Y-111591561D01*
X198822000Y-111585145D01*
X198822000Y-111585096D01*
X203006000Y-111585096D01*
X203006337Y-111591611D01*
X203016256Y-111687203D01*
X203019150Y-111700602D01*
X203070588Y-111854783D01*
X203076762Y-111867962D01*
X203162063Y-112005807D01*
X203171099Y-112017208D01*
X203285830Y-112131739D01*
X203297241Y-112140751D01*
X203435245Y-112225818D01*
X203448423Y-112231962D01*
X203602716Y-112283139D01*
X203616081Y-112286005D01*
X203710439Y-112295672D01*
X203716855Y-112296000D01*
X203745885Y-112296000D01*
X203761124Y-112291525D01*
X203762329Y-112290135D01*
X203764000Y-112282452D01*
X203764000Y-112277885D01*
X204764000Y-112277885D01*
X204768475Y-112293124D01*
X204769865Y-112294329D01*
X204777548Y-112296000D01*
X204811096Y-112296000D01*
X204817611Y-112295663D01*
X204913203Y-112285744D01*
X204926602Y-112282850D01*
X205080783Y-112231412D01*
X205093962Y-112225238D01*
X205231807Y-112139937D01*
X205243208Y-112130901D01*
X205357739Y-112016170D01*
X205366751Y-112004759D01*
X205451818Y-111866755D01*
X205457962Y-111853577D01*
X205509139Y-111699284D01*
X205512005Y-111685919D01*
X205521672Y-111591561D01*
X205522000Y-111585145D01*
X205522000Y-110606115D01*
X205517525Y-110590876D01*
X205516135Y-110589671D01*
X205508452Y-110588000D01*
X204782115Y-110588000D01*
X204766876Y-110592475D01*
X204765671Y-110593865D01*
X204764000Y-110601548D01*
X204764000Y-112277885D01*
X203764000Y-112277885D01*
X203764000Y-110606115D01*
X203759525Y-110590876D01*
X203758135Y-110589671D01*
X203750452Y-110588000D01*
X203024115Y-110588000D01*
X203008876Y-110592475D01*
X203007671Y-110593865D01*
X203006000Y-110601548D01*
X203006000Y-111585096D01*
X198822000Y-111585096D01*
X198822000Y-110606115D01*
X198817525Y-110590876D01*
X198816135Y-110589671D01*
X198808452Y-110588000D01*
X198082115Y-110588000D01*
X198066876Y-110592475D01*
X198065671Y-110593865D01*
X198064000Y-110601548D01*
X198064000Y-112277885D01*
X197064000Y-112277885D01*
X197064000Y-110606115D01*
X197059525Y-110590876D01*
X197058135Y-110589671D01*
X197050452Y-110588000D01*
X196324115Y-110588000D01*
X196308876Y-110592475D01*
X196307671Y-110593865D01*
X196306000Y-110601548D01*
X196306000Y-111585096D01*
X194970900Y-111585096D01*
X194970900Y-109569885D01*
X196306000Y-109569885D01*
X196310475Y-109585124D01*
X196311865Y-109586329D01*
X196319548Y-109588000D01*
X197045885Y-109588000D01*
X197061124Y-109583525D01*
X197062329Y-109582135D01*
X197064000Y-109574452D01*
X197064000Y-109569885D01*
X198064000Y-109569885D01*
X198068475Y-109585124D01*
X198069865Y-109586329D01*
X198077548Y-109588000D01*
X198803885Y-109588000D01*
X198819124Y-109583525D01*
X198820329Y-109582135D01*
X198822000Y-109574452D01*
X198822000Y-109569885D01*
X203006000Y-109569885D01*
X203010475Y-109585124D01*
X203011865Y-109586329D01*
X203019548Y-109588000D01*
X203745885Y-109588000D01*
X203761124Y-109583525D01*
X203762329Y-109582135D01*
X203764000Y-109574452D01*
X203764000Y-109569885D01*
X204764000Y-109569885D01*
X204768475Y-109585124D01*
X204769865Y-109586329D01*
X204777548Y-109588000D01*
X205503885Y-109588000D01*
X205519124Y-109583525D01*
X205520329Y-109582135D01*
X205522000Y-109574452D01*
X205522000Y-108590904D01*
X205521663Y-108584389D01*
X205511744Y-108488797D01*
X205508850Y-108475398D01*
X205457412Y-108321217D01*
X205451238Y-108308038D01*
X205365937Y-108170193D01*
X205356901Y-108158792D01*
X205242170Y-108044261D01*
X205230759Y-108035249D01*
X205092755Y-107950182D01*
X205079577Y-107944038D01*
X204925284Y-107892861D01*
X204911919Y-107889995D01*
X204817561Y-107880328D01*
X204811144Y-107880000D01*
X204782115Y-107880000D01*
X204766876Y-107884475D01*
X204765671Y-107885865D01*
X204764000Y-107893548D01*
X204764000Y-109569885D01*
X203764000Y-109569885D01*
X203764000Y-107898115D01*
X203759525Y-107882876D01*
X203758135Y-107881671D01*
X203750452Y-107880000D01*
X203716904Y-107880000D01*
X203710389Y-107880337D01*
X203614797Y-107890256D01*
X203601398Y-107893150D01*
X203447217Y-107944588D01*
X203434038Y-107950762D01*
X203296193Y-108036063D01*
X203284792Y-108045099D01*
X203170261Y-108159830D01*
X203161249Y-108171241D01*
X203076182Y-108309245D01*
X203070038Y-108322423D01*
X203018861Y-108476716D01*
X203015995Y-108490081D01*
X203006328Y-108584439D01*
X203006000Y-108590856D01*
X203006000Y-109569885D01*
X198822000Y-109569885D01*
X198822000Y-108590904D01*
X198821663Y-108584389D01*
X198811744Y-108488797D01*
X198808850Y-108475398D01*
X198757412Y-108321217D01*
X198751238Y-108308038D01*
X198665937Y-108170193D01*
X198656901Y-108158792D01*
X198542170Y-108044261D01*
X198530759Y-108035249D01*
X198392755Y-107950182D01*
X198379577Y-107944038D01*
X198225284Y-107892861D01*
X198211919Y-107889995D01*
X198117561Y-107880328D01*
X198111144Y-107880000D01*
X198082115Y-107880000D01*
X198066876Y-107884475D01*
X198065671Y-107885865D01*
X198064000Y-107893548D01*
X198064000Y-109569885D01*
X197064000Y-109569885D01*
X197064000Y-107898115D01*
X197059525Y-107882876D01*
X197058135Y-107881671D01*
X197050452Y-107880000D01*
X197016904Y-107880000D01*
X197010389Y-107880337D01*
X196914797Y-107890256D01*
X196901398Y-107893150D01*
X196747217Y-107944588D01*
X196734038Y-107950762D01*
X196596193Y-108036063D01*
X196584792Y-108045099D01*
X196470261Y-108159830D01*
X196461249Y-108171241D01*
X196376182Y-108309245D01*
X196370038Y-108322423D01*
X196318861Y-108476716D01*
X196315995Y-108490081D01*
X196306328Y-108584439D01*
X196306000Y-108590856D01*
X196306000Y-109569885D01*
X194970900Y-109569885D01*
X194970900Y-108294887D01*
X194971978Y-108278441D01*
X194974726Y-108257571D01*
X194974726Y-108257567D01*
X194975717Y-108250040D01*
X194973111Y-108226434D01*
X194972470Y-108207112D01*
X194987172Y-107870386D01*
X194988130Y-107859436D01*
X194994030Y-107814620D01*
X195036104Y-107495034D01*
X195038012Y-107484217D01*
X195039579Y-107477152D01*
X195117560Y-107125397D01*
X195120405Y-107114780D01*
X195144434Y-107038571D01*
X195230927Y-106764252D01*
X195234683Y-106753930D01*
X195375341Y-106414352D01*
X195379983Y-106404399D01*
X195407546Y-106351452D01*
X195549688Y-106078400D01*
X195555183Y-106068881D01*
X195583270Y-106024794D01*
X195631044Y-105949803D01*
X195672267Y-105885095D01*
X198906001Y-105885095D01*
X198906338Y-105891614D01*
X198916257Y-105987206D01*
X198919149Y-106000600D01*
X198970588Y-106154784D01*
X198976761Y-106167962D01*
X199062063Y-106305807D01*
X199071099Y-106317208D01*
X199185829Y-106431739D01*
X199197240Y-106440751D01*
X199335243Y-106525816D01*
X199348424Y-106531963D01*
X199502710Y-106583138D01*
X199516086Y-106586005D01*
X199610438Y-106595672D01*
X199616854Y-106596000D01*
X199641885Y-106596000D01*
X199657124Y-106591525D01*
X199658329Y-106590135D01*
X199660000Y-106582452D01*
X199660000Y-104610115D01*
X199655525Y-104594876D01*
X199654135Y-104593671D01*
X199646452Y-104592000D01*
X198924116Y-104592000D01*
X198908877Y-104596475D01*
X198907672Y-104597865D01*
X198906001Y-104605548D01*
X198906001Y-105885095D01*
X195672267Y-105885095D01*
X195752658Y-105758907D01*
X195758962Y-105749903D01*
X195894604Y-105573130D01*
X195982714Y-105458304D01*
X195989777Y-105449887D01*
X195991393Y-105448124D01*
X196212224Y-105207129D01*
X196228416Y-105192292D01*
X196240269Y-105183197D01*
X196263385Y-105154344D01*
X196272624Y-105144030D01*
X198690905Y-102725749D01*
X198753217Y-102691723D01*
X198824032Y-102696788D01*
X198880868Y-102739335D01*
X198905679Y-102805855D01*
X198906000Y-102814844D01*
X198906000Y-104065885D01*
X198910475Y-104081124D01*
X198911865Y-104082329D01*
X198919548Y-104084000D01*
X199641885Y-104084000D01*
X199657124Y-104079525D01*
X199658329Y-104078135D01*
X199660000Y-104070452D01*
X199660000Y-102098116D01*
X199655525Y-102082877D01*
X199654135Y-102081672D01*
X199646452Y-102080001D01*
X199640843Y-102080001D01*
X199572722Y-102059999D01*
X199526229Y-102006343D01*
X199516125Y-101936069D01*
X199545619Y-101871489D01*
X199551748Y-101864906D01*
X201187105Y-100229549D01*
X201249417Y-100195523D01*
X201320232Y-100200588D01*
X201377068Y-100243135D01*
X201385319Y-100255643D01*
X201444960Y-100358944D01*
X201449378Y-100363851D01*
X201449379Y-100363852D01*
X201527758Y-100450901D01*
X201572747Y-100500866D01*
X201614073Y-100530891D01*
X201696207Y-100590565D01*
X201727248Y-100613118D01*
X201733276Y-100615802D01*
X201733278Y-100615803D01*
X201895681Y-100688109D01*
X201901712Y-100690794D01*
X201995112Y-100710647D01*
X202082056Y-100729128D01*
X202082061Y-100729128D01*
X202088513Y-100730500D01*
X202279487Y-100730500D01*
X202285939Y-100729128D01*
X202285944Y-100729128D01*
X202372888Y-100710647D01*
X202466288Y-100690794D01*
X202472319Y-100688109D01*
X202634722Y-100615803D01*
X202634724Y-100615802D01*
X202640752Y-100613118D01*
X202671794Y-100590565D01*
X202773671Y-100516546D01*
X202795253Y-100500866D01*
X202799675Y-100495955D01*
X202812238Y-100482003D01*
X202872685Y-100444764D01*
X202881291Y-100442736D01*
X202909971Y-100437031D01*
X202946580Y-100429749D01*
X202950486Y-100428423D01*
X202950490Y-100428422D01*
X203148848Y-100361088D01*
X203148850Y-100361087D01*
X203152748Y-100359764D01*
X203338214Y-100268303D01*
X203344314Y-100265295D01*
X203344319Y-100265292D01*
X203348018Y-100263468D01*
X203529048Y-100142507D01*
X203532153Y-100139784D01*
X203658431Y-100029040D01*
X203665857Y-100023010D01*
X203680388Y-100012100D01*
X203680389Y-100012099D01*
X203683691Y-100009620D01*
X203686638Y-100006735D01*
X203686643Y-100006730D01*
X203690707Y-100002750D01*
X203690709Y-100002748D01*
X203693653Y-99999865D01*
X203696196Y-99996622D01*
X203696203Y-99996614D01*
X203713902Y-99974042D01*
X203723960Y-99962694D01*
X204397249Y-99289405D01*
X204459561Y-99255379D01*
X204486344Y-99252500D01*
X205108400Y-99252500D01*
X205111646Y-99252163D01*
X205111650Y-99252163D01*
X205207308Y-99242238D01*
X205207312Y-99242237D01*
X205214166Y-99241526D01*
X205220702Y-99239345D01*
X205220704Y-99239345D01*
X205370109Y-99189499D01*
X205381946Y-99185550D01*
X205532348Y-99092478D01*
X205566459Y-99058308D01*
X205652134Y-98972483D01*
X205657305Y-98967303D01*
X205689416Y-98915210D01*
X205746275Y-98822968D01*
X205746276Y-98822966D01*
X205750115Y-98816738D01*
X205780139Y-98726218D01*
X205803632Y-98655389D01*
X205803632Y-98655387D01*
X205805797Y-98648861D01*
X205816500Y-98544400D01*
X205816500Y-97543600D01*
X205815070Y-97529817D01*
X205806238Y-97444692D01*
X205806237Y-97444688D01*
X205805526Y-97437834D01*
X205792444Y-97398621D01*
X205751868Y-97277002D01*
X205749550Y-97270054D01*
X205656478Y-97119652D01*
X205531303Y-96994695D01*
X205523701Y-96990009D01*
X205386968Y-96905725D01*
X205386966Y-96905724D01*
X205380738Y-96901885D01*
X205279304Y-96868241D01*
X205219389Y-96848368D01*
X205219387Y-96848368D01*
X205212861Y-96846203D01*
X205206025Y-96845503D01*
X205206022Y-96845502D01*
X205162969Y-96841091D01*
X205108400Y-96835500D01*
X204307600Y-96835500D01*
X204304354Y-96835837D01*
X204304350Y-96835837D01*
X204208692Y-96845762D01*
X204208688Y-96845763D01*
X204201834Y-96846474D01*
X204195298Y-96848655D01*
X204195296Y-96848655D01*
X204117782Y-96874516D01*
X204034054Y-96902450D01*
X203883652Y-96995522D01*
X203878479Y-97000704D01*
X203797216Y-97082109D01*
X203734934Y-97116188D01*
X203664114Y-97111185D01*
X203619025Y-97082264D01*
X203536483Y-96999866D01*
X203531303Y-96994695D01*
X203444784Y-96941364D01*
X203397291Y-96888592D01*
X203384900Y-96834104D01*
X203384900Y-95961825D01*
X203404902Y-95893704D01*
X203444596Y-95854682D01*
X203548348Y-95790478D01*
X203634784Y-95703891D01*
X203697066Y-95669812D01*
X203767886Y-95674815D01*
X203812976Y-95703736D01*
X203900697Y-95791305D01*
X203906927Y-95795145D01*
X203906928Y-95795146D01*
X204044090Y-95879694D01*
X204051262Y-95884115D01*
X204121079Y-95907272D01*
X204212611Y-95937632D01*
X204212613Y-95937632D01*
X204219139Y-95939797D01*
X204225975Y-95940497D01*
X204225978Y-95940498D01*
X204269031Y-95944909D01*
X204323600Y-95950500D01*
X205124400Y-95950500D01*
X205127646Y-95950163D01*
X205127650Y-95950163D01*
X205223308Y-95940238D01*
X205223312Y-95940237D01*
X205230166Y-95939526D01*
X205236702Y-95937345D01*
X205236704Y-95937345D01*
X205384485Y-95888041D01*
X205397946Y-95883550D01*
X205548348Y-95790478D01*
X205673305Y-95665303D01*
X205711225Y-95603786D01*
X205762275Y-95520968D01*
X205762276Y-95520966D01*
X205766115Y-95514738D01*
X205795268Y-95426843D01*
X205819632Y-95353389D01*
X205819632Y-95353387D01*
X205821797Y-95346861D01*
X205832500Y-95242400D01*
X205832500Y-94241600D01*
X205830828Y-94225485D01*
X205822238Y-94142692D01*
X205822237Y-94142688D01*
X205821526Y-94135834D01*
X205812829Y-94109764D01*
X205767868Y-93975002D01*
X205765550Y-93968054D01*
X205672478Y-93817652D01*
X205547303Y-93692695D01*
X205444784Y-93629501D01*
X205397291Y-93576728D01*
X205384900Y-93522241D01*
X205384900Y-93382094D01*
X205404902Y-93313973D01*
X205417264Y-93297783D01*
X205458621Y-93251852D01*
X205458622Y-93251851D01*
X205463040Y-93246944D01*
X205558527Y-93081556D01*
X205617542Y-92899928D01*
X205637504Y-92710000D01*
X205617542Y-92520072D01*
X205558527Y-92338444D01*
X205463040Y-92173056D01*
X205335253Y-92031134D01*
X205180752Y-91918882D01*
X205174724Y-91916198D01*
X205174722Y-91916197D01*
X205012319Y-91843891D01*
X205012318Y-91843891D01*
X205006288Y-91841206D01*
X204912888Y-91821353D01*
X204825944Y-91802872D01*
X204825939Y-91802872D01*
X204819487Y-91801500D01*
X204628513Y-91801500D01*
X204622061Y-91802872D01*
X204622056Y-91802872D01*
X204535112Y-91821353D01*
X204441712Y-91841206D01*
X204435682Y-91843891D01*
X204435681Y-91843891D01*
X204273278Y-91916197D01*
X204273276Y-91916198D01*
X204267248Y-91918882D01*
X204112747Y-92031134D01*
X203984960Y-92173056D01*
X203889473Y-92338444D01*
X203830458Y-92520072D01*
X203810496Y-92710000D01*
X203830458Y-92899928D01*
X203889473Y-93081556D01*
X203984960Y-93246944D01*
X203989378Y-93251851D01*
X203989379Y-93251852D01*
X204030736Y-93297783D01*
X204061453Y-93361791D01*
X204063100Y-93382094D01*
X204063100Y-93522175D01*
X204043098Y-93590296D01*
X204003404Y-93629318D01*
X203899652Y-93693522D01*
X203894479Y-93698704D01*
X203813216Y-93780109D01*
X203750934Y-93814188D01*
X203680114Y-93809185D01*
X203635025Y-93780264D01*
X203552483Y-93697866D01*
X203547303Y-93692695D01*
X203444489Y-93629319D01*
X203402968Y-93603725D01*
X203402966Y-93603724D01*
X203396738Y-93599885D01*
X203316995Y-93573436D01*
X203235389Y-93546368D01*
X203235387Y-93546368D01*
X203228861Y-93544203D01*
X203222025Y-93543503D01*
X203222022Y-93543502D01*
X203178460Y-93539039D01*
X203124400Y-93533500D01*
X202323600Y-93533500D01*
X202320354Y-93533837D01*
X202320350Y-93533837D01*
X202224692Y-93543762D01*
X202224688Y-93543763D01*
X202217834Y-93544474D01*
X202211298Y-93546655D01*
X202211296Y-93546655D01*
X202147270Y-93568016D01*
X202050054Y-93600450D01*
X201899652Y-93693522D01*
X201774695Y-93818697D01*
X201770855Y-93824927D01*
X201770854Y-93824928D01*
X201693215Y-93950882D01*
X201681885Y-93969262D01*
X201659121Y-94037894D01*
X201618691Y-94096254D01*
X201560634Y-94122447D01*
X201489890Y-94134467D01*
X201435389Y-94143727D01*
X201148203Y-94226464D01*
X201144935Y-94227818D01*
X201144934Y-94227818D01*
X200875355Y-94339481D01*
X200875350Y-94339484D01*
X200872087Y-94340835D01*
X200868992Y-94342545D01*
X200868991Y-94342546D01*
X200818514Y-94370444D01*
X200610513Y-94485402D01*
X200366770Y-94658347D01*
X200280509Y-94735435D01*
X200169601Y-94834548D01*
X200161302Y-94841350D01*
X200153417Y-94847271D01*
X200143455Y-94857027D01*
X200140906Y-94860277D01*
X200140904Y-94860280D01*
X200123206Y-94882851D01*
X200113148Y-94894199D01*
X198208752Y-96798595D01*
X198146440Y-96832621D01*
X198119657Y-96835500D01*
X197497600Y-96835500D01*
X197494354Y-96835837D01*
X197494350Y-96835837D01*
X197398692Y-96845762D01*
X197398688Y-96845763D01*
X197391834Y-96846474D01*
X197385298Y-96848655D01*
X197385296Y-96848655D01*
X197307782Y-96874516D01*
X197224054Y-96902450D01*
X197073652Y-96995522D01*
X196948695Y-97120697D01*
X196944855Y-97126927D01*
X196944854Y-97126928D01*
X196864615Y-97257100D01*
X196855885Y-97271262D01*
X196853581Y-97278209D01*
X196814623Y-97395665D01*
X196800203Y-97439139D01*
X196789500Y-97543600D01*
X196789500Y-98544400D01*
X196800474Y-98650166D01*
X196856450Y-98817946D01*
X196949522Y-98968348D01*
X197074697Y-99093305D01*
X197080927Y-99097145D01*
X197080928Y-99097146D01*
X197218090Y-99181694D01*
X197225262Y-99186115D01*
X197289317Y-99207361D01*
X197386611Y-99239632D01*
X197386613Y-99239632D01*
X197393139Y-99241797D01*
X197399975Y-99242497D01*
X197399978Y-99242498D01*
X197443031Y-99246909D01*
X197497600Y-99252500D01*
X198298400Y-99252500D01*
X198301646Y-99252163D01*
X198301650Y-99252163D01*
X198397308Y-99242238D01*
X198397312Y-99242237D01*
X198404166Y-99241526D01*
X198410702Y-99239345D01*
X198410704Y-99239345D01*
X198560109Y-99189499D01*
X198571946Y-99185550D01*
X198722348Y-99092478D01*
X198808784Y-99005891D01*
X198871066Y-98971812D01*
X198941886Y-98976815D01*
X198986974Y-99005736D01*
X199040165Y-99058834D01*
X199074245Y-99121116D01*
X199069242Y-99191936D01*
X199040244Y-99237102D01*
X198638752Y-99638595D01*
X198576439Y-99672620D01*
X198549656Y-99675500D01*
X198532513Y-99675500D01*
X198526061Y-99676872D01*
X198526056Y-99676872D01*
X198439112Y-99695353D01*
X198345712Y-99715206D01*
X198339682Y-99717891D01*
X198339681Y-99717891D01*
X198177278Y-99790197D01*
X198177276Y-99790198D01*
X198171248Y-99792882D01*
X198016747Y-99905134D01*
X198012326Y-99910044D01*
X198012325Y-99910045D01*
X197905182Y-100029040D01*
X197888960Y-100047056D01*
X197793473Y-100212444D01*
X197734458Y-100394072D01*
X197733768Y-100400633D01*
X197733768Y-100400635D01*
X197721245Y-100519784D01*
X197714496Y-100584000D01*
X197715186Y-100590565D01*
X197730979Y-100740823D01*
X197734458Y-100773928D01*
X197793473Y-100955556D01*
X197888960Y-101120944D01*
X197893378Y-101125851D01*
X197893379Y-101125852D01*
X198010822Y-101256286D01*
X198016747Y-101262866D01*
X198052466Y-101288817D01*
X198095818Y-101345037D01*
X198101895Y-101415773D01*
X198067499Y-101479847D01*
X195346703Y-104200644D01*
X195333261Y-104212309D01*
X195316971Y-104224540D01*
X195316964Y-104224546D01*
X195313669Y-104227020D01*
X195310728Y-104229900D01*
X195310722Y-104229905D01*
X195306660Y-104233883D01*
X195303707Y-104236775D01*
X195301158Y-104240026D01*
X195298406Y-104243099D01*
X195298384Y-104243079D01*
X195296539Y-104245245D01*
X195019179Y-104545291D01*
X195002096Y-104563771D01*
X195000564Y-104565714D01*
X195000560Y-104565719D01*
X194965561Y-104610115D01*
X194726702Y-104913107D01*
X194725325Y-104915168D01*
X194725322Y-104915172D01*
X194683546Y-104977694D01*
X194479565Y-105282973D01*
X194478354Y-105285135D01*
X194478353Y-105285137D01*
X194452711Y-105330925D01*
X194262209Y-105671090D01*
X194184919Y-105838745D01*
X194081478Y-106063128D01*
X194075975Y-106075064D01*
X193922010Y-106492404D01*
X193801264Y-106920537D01*
X193714481Y-107356825D01*
X193698767Y-107489591D01*
X193662814Y-107793358D01*
X193662196Y-107798576D01*
X193646145Y-108207112D01*
X193645871Y-108214078D01*
X193645250Y-108220926D01*
X193645285Y-108220929D01*
X193644972Y-108225053D01*
X193644392Y-108229126D01*
X193644246Y-108243068D01*
X193644741Y-108247156D01*
X193644741Y-108247161D01*
X193648187Y-108275635D01*
X193649100Y-108290772D01*
X193649100Y-116401327D01*
X193648022Y-116417773D01*
X193644283Y-116446174D01*
X193645053Y-116453146D01*
X193644660Y-116453146D01*
X193644944Y-116459656D01*
X193644944Y-116459658D01*
X193662025Y-116850866D01*
X193662413Y-116859757D01*
X193664270Y-116873863D01*
X193695434Y-117110573D01*
X193715537Y-117263274D01*
X193716134Y-117265969D01*
X193716135Y-117265972D01*
X193746344Y-117402237D01*
X193803628Y-117660625D01*
X193804453Y-117663242D01*
X193804455Y-117663249D01*
X193823968Y-117725136D01*
X193926014Y-118048786D01*
X193995537Y-118216629D01*
X194071967Y-118401146D01*
X194081766Y-118424804D01*
X194269697Y-118785816D01*
X194488377Y-119129075D01*
X194736142Y-119451969D01*
X194981356Y-119719571D01*
X194991505Y-119730647D01*
X194996062Y-119736136D01*
X194998577Y-119739066D01*
X195001059Y-119742371D01*
X195010814Y-119752332D01*
X195014055Y-119754873D01*
X195014058Y-119754876D01*
X195036634Y-119772578D01*
X195047981Y-119782635D01*
X195425544Y-120160197D01*
X195437208Y-120173639D01*
X195451913Y-120193224D01*
X195461668Y-120203186D01*
X195464904Y-120205724D01*
X195467984Y-120208483D01*
X195467968Y-120208501D01*
X195469465Y-120209770D01*
X195762031Y-120477858D01*
X195764193Y-120479517D01*
X195764199Y-120479522D01*
X195849957Y-120545326D01*
X196084925Y-120725623D01*
X196428184Y-120944303D01*
X196789196Y-121132234D01*
X197165214Y-121287986D01*
X197379964Y-121355696D01*
X197550751Y-121409545D01*
X197550758Y-121409547D01*
X197553375Y-121410372D01*
X197556060Y-121410967D01*
X197556059Y-121410967D01*
X197948028Y-121497865D01*
X197948031Y-121497866D01*
X197950726Y-121498463D01*
X197953456Y-121498822D01*
X197953465Y-121498824D01*
X198152485Y-121525025D01*
X198354243Y-121551587D01*
X198731875Y-121568074D01*
X198738939Y-121568730D01*
X198742817Y-121569025D01*
X198746912Y-121569608D01*
X198754801Y-121569691D01*
X198756734Y-121569711D01*
X198756736Y-121569711D01*
X198760854Y-121569754D01*
X198764942Y-121569259D01*
X198764947Y-121569259D01*
X198793421Y-121565813D01*
X198808558Y-121564900D01*
X204585944Y-121564900D01*
X204654065Y-121584902D01*
X204700558Y-121638558D01*
X204705467Y-121651023D01*
X204712130Y-121670993D01*
X204714450Y-121677946D01*
X204807522Y-121828348D01*
X204932697Y-121953305D01*
X204938927Y-121957145D01*
X204938928Y-121957146D01*
X205076090Y-122041694D01*
X205083262Y-122046115D01*
X205163005Y-122072564D01*
X205244611Y-122099632D01*
X205244613Y-122099632D01*
X205251139Y-122101797D01*
X205257975Y-122102497D01*
X205257978Y-122102498D01*
X205301031Y-122106909D01*
X205355600Y-122112500D01*
X206017180Y-122112500D01*
X206085301Y-122132502D01*
X206131794Y-122186158D01*
X206143180Y-122238500D01*
X206143180Y-122259921D01*
X206141923Y-122277675D01*
X206138472Y-122301923D01*
X206138326Y-122315865D01*
X206138821Y-122319953D01*
X206138821Y-122319960D01*
X206140725Y-122335693D01*
X206141367Y-122342586D01*
X206151592Y-122498577D01*
X206153856Y-122533122D01*
X206154660Y-122537162D01*
X206154660Y-122537165D01*
X206161214Y-122570115D01*
X206196331Y-122746661D01*
X206266315Y-122952829D01*
X206362611Y-123148098D01*
X206367990Y-123156148D01*
X206479847Y-123323553D01*
X206483572Y-123329128D01*
X206486286Y-123332222D01*
X206486290Y-123332228D01*
X206549939Y-123404805D01*
X206575306Y-123433730D01*
X206597053Y-123458528D01*
X206603082Y-123465954D01*
X206613981Y-123480471D01*
X206613989Y-123480480D01*
X206616459Y-123483770D01*
X206619339Y-123486711D01*
X206619344Y-123486717D01*
X206621479Y-123488897D01*
X206626214Y-123493732D01*
X206636496Y-123501794D01*
X206652033Y-123513977D01*
X206663381Y-123524035D01*
X206829429Y-123690083D01*
X206863455Y-123752395D01*
X206865644Y-123766005D01*
X206878458Y-123887928D01*
X206937473Y-124069556D01*
X206940776Y-124075278D01*
X206940777Y-124075279D01*
X206955377Y-124100567D01*
X207032960Y-124234944D01*
X207160747Y-124376866D01*
X207315248Y-124489118D01*
X207321276Y-124491802D01*
X207321278Y-124491803D01*
X207483681Y-124564109D01*
X207489712Y-124566794D01*
X207567559Y-124583341D01*
X207670056Y-124605128D01*
X207670061Y-124605128D01*
X207676513Y-124606500D01*
X207746882Y-124606500D01*
X207815003Y-124626502D01*
X207861496Y-124680158D01*
X207871600Y-124750432D01*
X207842106Y-124815012D01*
X207797546Y-124847865D01*
X206656454Y-125348987D01*
X206653396Y-125350282D01*
X204937667Y-126049853D01*
X204719400Y-126138849D01*
X204715870Y-126140227D01*
X200803289Y-127599926D01*
X200799794Y-127601171D01*
X200088156Y-127843049D01*
X197141412Y-128844614D01*
X197138938Y-128845426D01*
X195940147Y-129224637D01*
X194088364Y-129810407D01*
X194086068Y-129811109D01*
X192647067Y-130236315D01*
X192576071Y-130236437D01*
X192516279Y-130198155D01*
X192486675Y-130133625D01*
X192491359Y-130077796D01*
X192492110Y-130075964D01*
X192493239Y-130071239D01*
X192493243Y-130071228D01*
X192498267Y-130050210D01*
X192499580Y-130045178D01*
X192501511Y-130038357D01*
X192505947Y-130022693D01*
X192506545Y-130018243D01*
X192506636Y-130017807D01*
X192508848Y-130005934D01*
X192550069Y-129833474D01*
X192552219Y-129826340D01*
X192552179Y-129826329D01*
X192553494Y-129821642D01*
X192555166Y-129817073D01*
X192556113Y-129812309D01*
X192556118Y-129812292D01*
X192560521Y-129790147D01*
X192561552Y-129785433D01*
X192567199Y-129761807D01*
X192567613Y-129757332D01*
X192568124Y-129754237D01*
X192569387Y-129745545D01*
X192608917Y-129546736D01*
X192610662Y-129540061D01*
X192610561Y-129540036D01*
X192611708Y-129535305D01*
X192613216Y-129530680D01*
X192617749Y-129502721D01*
X192618544Y-129498317D01*
X192622582Y-129478008D01*
X192622583Y-129478003D01*
X192623456Y-129473610D01*
X192623698Y-129469138D01*
X192624258Y-129464687D01*
X192624287Y-129464691D01*
X192625028Y-129457821D01*
X192661817Y-129230887D01*
X192663223Y-129224637D01*
X192663062Y-129224604D01*
X192664053Y-129219839D01*
X192665408Y-129215165D01*
X192669120Y-129186262D01*
X192669718Y-129182150D01*
X192673161Y-129160913D01*
X192673162Y-129160906D01*
X192673878Y-129156487D01*
X192673961Y-129152013D01*
X192674363Y-129147535D01*
X192674445Y-129147542D01*
X192674913Y-129141154D01*
X192707899Y-128884295D01*
X192709011Y-128878459D01*
X192708799Y-128878422D01*
X192709642Y-128873635D01*
X192710856Y-128868914D01*
X192711328Y-128864064D01*
X192711330Y-128864055D01*
X192713756Y-128839152D01*
X192714182Y-128835368D01*
X192717595Y-128808797D01*
X192717530Y-128804313D01*
X192717784Y-128799839D01*
X192717917Y-128799847D01*
X192718164Y-128793905D01*
X192746369Y-128504365D01*
X192747114Y-128498260D01*
X192747586Y-128495046D01*
X192748664Y-128490297D01*
X192750761Y-128459818D01*
X192751056Y-128456258D01*
X192753285Y-128433371D01*
X192753720Y-128428908D01*
X192753517Y-128424421D01*
X192753633Y-128419951D01*
X192753809Y-128419956D01*
X192753882Y-128414428D01*
X192776162Y-128090479D01*
X192776763Y-128084111D01*
X192776962Y-128082457D01*
X192777912Y-128077685D01*
X192779227Y-128046546D01*
X192779412Y-128043216D01*
X192781033Y-128019649D01*
X192781033Y-128019647D01*
X192781341Y-128015170D01*
X192781011Y-128010690D01*
X192781003Y-128007484D01*
X192781115Y-128001857D01*
X192796350Y-127641166D01*
X192796804Y-127634556D01*
X192796834Y-127634239D01*
X192797666Y-127629450D01*
X192798225Y-127597666D01*
X192798318Y-127594565D01*
X192799338Y-127570414D01*
X192799527Y-127565939D01*
X192799079Y-127561478D01*
X192799029Y-127559739D01*
X192798995Y-127553877D01*
X192801205Y-127428244D01*
X192806015Y-127154704D01*
X192806292Y-127148536D01*
X192806979Y-127143959D01*
X192806805Y-127111638D01*
X192806822Y-127108805D01*
X192807336Y-127079577D01*
X192806778Y-127075127D01*
X192806752Y-127074635D01*
X192806573Y-127068570D01*
X192805948Y-126952279D01*
X192804211Y-126629478D01*
X192804336Y-126623897D01*
X192804889Y-126619592D01*
X192804412Y-126601786D01*
X192804010Y-126586802D01*
X192803967Y-126584105D01*
X192803831Y-126558926D01*
X192803807Y-126554440D01*
X192803171Y-126550163D01*
X192802871Y-126544374D01*
X192796326Y-126300299D01*
X192789984Y-126063842D01*
X192789993Y-126058778D01*
X192790431Y-126054724D01*
X192788873Y-126021495D01*
X192788781Y-126018996D01*
X192788094Y-125993379D01*
X192787974Y-125988900D01*
X192787292Y-125984906D01*
X192786912Y-125979670D01*
X192762367Y-125456173D01*
X192762286Y-125451548D01*
X192762626Y-125447737D01*
X192760416Y-125414111D01*
X192760286Y-125411796D01*
X192759067Y-125385788D01*
X192758858Y-125381322D01*
X192758143Y-125377584D01*
X192757704Y-125372818D01*
X192735871Y-125040541D01*
X192720383Y-124804829D01*
X192720232Y-124800612D01*
X192720489Y-124797014D01*
X192720084Y-124792158D01*
X192720084Y-124792152D01*
X192717661Y-124763102D01*
X192717496Y-124760892D01*
X192715766Y-124734563D01*
X192715472Y-124730085D01*
X192714731Y-124726573D01*
X192714254Y-124722246D01*
X192710745Y-124680158D01*
X192682439Y-124340720D01*
X192663049Y-124108202D01*
X192662844Y-124104326D01*
X192663029Y-124100947D01*
X192662545Y-124096111D01*
X192662545Y-124096104D01*
X192659615Y-124066822D01*
X192659425Y-124064749D01*
X192657198Y-124038036D01*
X192657197Y-124038029D01*
X192656825Y-124033569D01*
X192656069Y-124030274D01*
X192655560Y-124026286D01*
X192589374Y-123364694D01*
X192589127Y-123361121D01*
X192589252Y-123357929D01*
X192585273Y-123323553D01*
X192585063Y-123321607D01*
X192582363Y-123294614D01*
X192582362Y-123294611D01*
X192581917Y-123290158D01*
X192581154Y-123287067D01*
X192580626Y-123283401D01*
X192498364Y-122572678D01*
X192498085Y-122569369D01*
X192498160Y-122566356D01*
X192496961Y-122557170D01*
X192493634Y-122531696D01*
X192493409Y-122529868D01*
X192490265Y-122502703D01*
X192490265Y-122502701D01*
X192489749Y-122498246D01*
X192488983Y-122495335D01*
X192488447Y-122491977D01*
X192487591Y-122485416D01*
X192401790Y-121828348D01*
X192389020Y-121730552D01*
X192388716Y-121727472D01*
X192388747Y-121724626D01*
X192383698Y-121689710D01*
X192383465Y-121688015D01*
X192381242Y-121670993D01*
X192379313Y-121656220D01*
X192378550Y-121653482D01*
X192378010Y-121650382D01*
X192377756Y-121648620D01*
X192285615Y-121011494D01*
X192260332Y-120836669D01*
X192260015Y-120833836D01*
X192260009Y-120831144D01*
X192259248Y-120826325D01*
X192254491Y-120796203D01*
X192254245Y-120794581D01*
X192250246Y-120766925D01*
X192250245Y-120766920D01*
X192249603Y-120762481D01*
X192248844Y-120759897D01*
X192248303Y-120757020D01*
X192243082Y-120723954D01*
X192167028Y-120242364D01*
X192113401Y-119902778D01*
X192111861Y-119882355D01*
X192111936Y-119870026D01*
X192111991Y-119861052D01*
X192101561Y-119824558D01*
X192100245Y-119819471D01*
X192099607Y-119815432D01*
X192098787Y-119812770D01*
X192098182Y-119809775D01*
X192095418Y-119793684D01*
X192095182Y-119791957D01*
X192095138Y-119790146D01*
X192088582Y-119753863D01*
X192088410Y-119752888D01*
X192088315Y-119752332D01*
X192082686Y-119719571D01*
X192082131Y-119717854D01*
X192081761Y-119716120D01*
X192078855Y-119700033D01*
X192078766Y-119699411D01*
X192078746Y-119698693D01*
X192071737Y-119660640D01*
X192065400Y-119625573D01*
X192065174Y-119624895D01*
X192065035Y-119624260D01*
X192049095Y-119537723D01*
X192047012Y-119514129D01*
X192047037Y-119509987D01*
X192047092Y-119501012D01*
X192044626Y-119492383D01*
X192044625Y-119492378D01*
X192036556Y-119464145D01*
X192033495Y-119450684D01*
X191780982Y-117968619D01*
X191780293Y-117964076D01*
X191579945Y-116458452D01*
X191488991Y-115774923D01*
X191488458Y-115770249D01*
X191480657Y-115688271D01*
X191391177Y-114748028D01*
X191365375Y-114476905D01*
X191365068Y-114473053D01*
X191274558Y-113065375D01*
X191274352Y-113060981D01*
X191230420Y-111561828D01*
X191230373Y-111556834D01*
X191246620Y-109985691D01*
X191246806Y-109980026D01*
X191336726Y-108356428D01*
X191337246Y-108350013D01*
X191514187Y-106693542D01*
X191515174Y-106686296D01*
X191793208Y-105011031D01*
X191794350Y-105005048D01*
X191973507Y-104175943D01*
X191974517Y-104171637D01*
X192184575Y-103341765D01*
X192185815Y-103337225D01*
X192427340Y-102513661D01*
X192428844Y-102508886D01*
X192429199Y-102507834D01*
X192703394Y-101694063D01*
X192705193Y-101689073D01*
X193014342Y-100885277D01*
X193016480Y-100880069D01*
X193241982Y-100363852D01*
X193361763Y-100089651D01*
X193364268Y-100084267D01*
X193383939Y-100044473D01*
X193747272Y-99309435D01*
X193750189Y-99303887D01*
X194172457Y-98546905D01*
X194175811Y-98541245D01*
X194396022Y-98190826D01*
X194638988Y-97804198D01*
X194642773Y-97798524D01*
X195117760Y-97126990D01*
X195124563Y-97118341D01*
X195130875Y-97112902D01*
X195135757Y-97105370D01*
X195151538Y-97081024D01*
X195159760Y-97069759D01*
X195742080Y-96358184D01*
X195830824Y-96249741D01*
X195836636Y-96243126D01*
X196035037Y-96032608D01*
X196626501Y-95405021D01*
X196631337Y-95400161D01*
X196639965Y-95391952D01*
X197513769Y-94560527D01*
X197517804Y-94556852D01*
X197563367Y-94517118D01*
X198470477Y-93726056D01*
X198473829Y-93723234D01*
X199264220Y-93081556D01*
X199474641Y-92910726D01*
X199477524Y-92908455D01*
X200504429Y-92123260D01*
X200506898Y-92121419D01*
X201095149Y-91694000D01*
X201538166Y-91372107D01*
X201540252Y-91370625D01*
X202552119Y-90667054D01*
X202554693Y-90665312D01*
X204446100Y-89420024D01*
X204448950Y-89418203D01*
X205984672Y-88465938D01*
X206053107Y-88447038D01*
X206120895Y-88468138D01*
G37*
%TD.AperFunction*%
%TA.AperFunction,Conductor*%
G36*
X206200143Y-115082502D02*
G01*
X206246636Y-115136158D01*
X206256740Y-115206432D01*
X206227246Y-115271012D01*
X206192971Y-115298778D01*
X206166511Y-115313402D01*
X205922768Y-115486347D01*
X205775683Y-115617791D01*
X205725585Y-115662561D01*
X205717280Y-115669368D01*
X205709415Y-115675273D01*
X205699454Y-115685028D01*
X205696912Y-115688270D01*
X205696911Y-115688271D01*
X205679203Y-115710855D01*
X205669144Y-115722203D01*
X205307961Y-116083386D01*
X205301696Y-116089239D01*
X205261248Y-116124524D01*
X205256877Y-116130743D01*
X205256744Y-116130891D01*
X205202984Y-116166105D01*
X205082054Y-116206450D01*
X204931652Y-116299522D01*
X204806695Y-116424697D01*
X204802855Y-116430927D01*
X204802854Y-116430928D01*
X204724092Y-116558704D01*
X204713885Y-116575262D01*
X204658203Y-116743139D01*
X204657503Y-116749975D01*
X204657502Y-116749978D01*
X204655850Y-116766103D01*
X204647500Y-116847600D01*
X204647500Y-117848400D01*
X204647837Y-117851646D01*
X204647837Y-117851650D01*
X204653561Y-117906812D01*
X204658474Y-117954166D01*
X204660655Y-117960702D01*
X204660655Y-117960704D01*
X204698601Y-118074440D01*
X204714450Y-118121946D01*
X204807522Y-118272348D01*
X204932697Y-118397305D01*
X204938927Y-118401145D01*
X204938928Y-118401146D01*
X205035216Y-118460499D01*
X205082709Y-118513272D01*
X205095100Y-118567759D01*
X205095100Y-119684175D01*
X205075098Y-119752296D01*
X205035404Y-119791318D01*
X204931652Y-119855522D01*
X204806695Y-119980697D01*
X204802855Y-119986927D01*
X204802854Y-119986928D01*
X204727529Y-120109128D01*
X204713885Y-120131262D01*
X204705425Y-120156769D01*
X204664993Y-120215128D01*
X204599429Y-120242364D01*
X204585832Y-120243100D01*
X198812673Y-120243100D01*
X198796227Y-120242022D01*
X198775357Y-120239274D01*
X198775353Y-120239274D01*
X198767826Y-120238283D01*
X198751757Y-120240057D01*
X198745462Y-120240752D01*
X198725452Y-120241361D01*
X198612659Y-120235820D01*
X198439741Y-120227324D01*
X198427447Y-120226114D01*
X198115552Y-120179848D01*
X198103431Y-120177438D01*
X197946806Y-120138205D01*
X197797571Y-120100823D01*
X197785739Y-120097234D01*
X197488864Y-119991011D01*
X197477440Y-119986279D01*
X197231643Y-119870026D01*
X197192403Y-119851467D01*
X197181502Y-119845640D01*
X197177140Y-119843025D01*
X197027503Y-119753336D01*
X196911056Y-119683540D01*
X196900775Y-119676670D01*
X196647524Y-119488846D01*
X196637966Y-119481002D01*
X196431711Y-119294064D01*
X196416369Y-119277413D01*
X196408090Y-119266624D01*
X196379232Y-119243504D01*
X196368918Y-119234265D01*
X195985546Y-118850893D01*
X195974679Y-118838502D01*
X195961861Y-118821797D01*
X195961860Y-118821796D01*
X195957236Y-118815770D01*
X195951307Y-118811020D01*
X195951305Y-118811018D01*
X195939678Y-118801703D01*
X195925097Y-118787984D01*
X195732998Y-118576034D01*
X195725154Y-118566476D01*
X195537330Y-118313225D01*
X195530460Y-118302944D01*
X195425708Y-118128176D01*
X195368358Y-118032493D01*
X195362531Y-118021593D01*
X195344298Y-117983041D01*
X195227721Y-117736560D01*
X195222989Y-117725136D01*
X195116766Y-117428261D01*
X195113177Y-117416429D01*
X195036563Y-117110573D01*
X195034151Y-117098445D01*
X195018930Y-116995834D01*
X194987886Y-116786553D01*
X194986675Y-116774253D01*
X194986243Y-116765445D01*
X194976086Y-116558704D01*
X194973208Y-116500126D01*
X194974313Y-116476191D01*
X194975027Y-116471175D01*
X194975028Y-116471164D01*
X194975608Y-116467088D01*
X194975686Y-116459658D01*
X194975711Y-116457266D01*
X194975711Y-116457264D01*
X194975754Y-116453146D01*
X194974911Y-116446174D01*
X194971813Y-116420579D01*
X194970900Y-116405442D01*
X194970900Y-115217312D01*
X194990902Y-115149191D01*
X195044558Y-115102698D01*
X195114832Y-115092594D01*
X195148148Y-115102205D01*
X195291677Y-115166108D01*
X195291685Y-115166111D01*
X195297712Y-115168794D01*
X195359672Y-115181964D01*
X195478056Y-115207128D01*
X195478061Y-115207128D01*
X195484513Y-115208500D01*
X195675487Y-115208500D01*
X195681939Y-115207128D01*
X195681944Y-115207128D01*
X195800328Y-115181964D01*
X195862288Y-115168794D01*
X195868321Y-115166108D01*
X196030722Y-115093803D01*
X196030724Y-115093802D01*
X196036752Y-115091118D01*
X196043020Y-115086564D01*
X196043646Y-115086340D01*
X196047811Y-115083936D01*
X196048251Y-115084698D01*
X196109887Y-115062706D01*
X196117081Y-115062500D01*
X206132022Y-115062500D01*
X206200143Y-115082502D01*
G37*
%TD.AperFunction*%
%TA.AperFunction,Conductor*%
G36*
X204945112Y-51230155D02*
G01*
X208020016Y-51232569D01*
X208088120Y-51252625D01*
X208134571Y-51306317D01*
X208144619Y-51376599D01*
X208137898Y-51402797D01*
X208136630Y-51406179D01*
X208136628Y-51406186D01*
X208133855Y-51413584D01*
X208127100Y-51475766D01*
X208127100Y-53172234D01*
X208133855Y-53234416D01*
X208184985Y-53370805D01*
X208272339Y-53487361D01*
X208279518Y-53492741D01*
X208280097Y-53493175D01*
X208280527Y-53493750D01*
X208285869Y-53499092D01*
X208285098Y-53499863D01*
X208322611Y-53550035D01*
X208327635Y-53620854D01*
X208293574Y-53683146D01*
X208280100Y-53694823D01*
X208272339Y-53700639D01*
X208184985Y-53817195D01*
X208133855Y-53953584D01*
X208127100Y-54015766D01*
X208127100Y-55712234D01*
X208133855Y-55774416D01*
X208184985Y-55910805D01*
X208272339Y-56027361D01*
X208279519Y-56032742D01*
X208280509Y-56033484D01*
X208281244Y-56034467D01*
X208285869Y-56039092D01*
X208285202Y-56039759D01*
X208323026Y-56090342D01*
X208328053Y-56161161D01*
X208293995Y-56223455D01*
X208280514Y-56235137D01*
X208279875Y-56235616D01*
X208267315Y-56248176D01*
X208190814Y-56350251D01*
X208182276Y-56365846D01*
X208137122Y-56486294D01*
X208133495Y-56501549D01*
X208127969Y-56552414D01*
X208127600Y-56559228D01*
X208127600Y-57131885D01*
X208132075Y-57147124D01*
X208133465Y-57148329D01*
X208141148Y-57150000D01*
X210363800Y-57150000D01*
X210431921Y-57170002D01*
X210478414Y-57223658D01*
X210489800Y-57276000D01*
X210489800Y-57532000D01*
X210469798Y-57600121D01*
X210416142Y-57646614D01*
X210363800Y-57658000D01*
X208145716Y-57658000D01*
X208130477Y-57662475D01*
X208129272Y-57663865D01*
X208127601Y-57671548D01*
X208127601Y-58248769D01*
X208127971Y-58255590D01*
X208133495Y-58306452D01*
X208137121Y-58321704D01*
X208182276Y-58442154D01*
X208190814Y-58457749D01*
X208267315Y-58559824D01*
X208279875Y-58572384D01*
X208280514Y-58572863D01*
X208280988Y-58573497D01*
X208286226Y-58578735D01*
X208285470Y-58579491D01*
X208323028Y-58629723D01*
X208328052Y-58700542D01*
X208293991Y-58762835D01*
X208280510Y-58774515D01*
X208272339Y-58780639D01*
X208184985Y-58897195D01*
X208133855Y-59033584D01*
X208127100Y-59095766D01*
X208127100Y-60792234D01*
X208133855Y-60854416D01*
X208184985Y-60990805D01*
X208272339Y-61107361D01*
X208279518Y-61112741D01*
X208280097Y-61113175D01*
X208280527Y-61113750D01*
X208285869Y-61119092D01*
X208285098Y-61119863D01*
X208322611Y-61170035D01*
X208327635Y-61240854D01*
X208293574Y-61303146D01*
X208280100Y-61314823D01*
X208272339Y-61320639D01*
X208184985Y-61437195D01*
X208133855Y-61573584D01*
X208127100Y-61635766D01*
X208127100Y-63332234D01*
X208133855Y-63394416D01*
X208184985Y-63530805D01*
X208272339Y-63647361D01*
X208279518Y-63652741D01*
X208280097Y-63653175D01*
X208280527Y-63653750D01*
X208285869Y-63659092D01*
X208285098Y-63659863D01*
X208322611Y-63710035D01*
X208327635Y-63780854D01*
X208293574Y-63843146D01*
X208280100Y-63854823D01*
X208272339Y-63860639D01*
X208184985Y-63977195D01*
X208133855Y-64113584D01*
X208127100Y-64175766D01*
X208127100Y-65872234D01*
X208133855Y-65934416D01*
X208184985Y-66070805D01*
X208272339Y-66187361D01*
X208279518Y-66192741D01*
X208280097Y-66193175D01*
X208280527Y-66193750D01*
X208285869Y-66199092D01*
X208285098Y-66199863D01*
X208322611Y-66250035D01*
X208327635Y-66320854D01*
X208293574Y-66383146D01*
X208280100Y-66394823D01*
X208272339Y-66400639D01*
X208184985Y-66517195D01*
X208133855Y-66653584D01*
X208127100Y-66715766D01*
X208127100Y-68412234D01*
X208133855Y-68474416D01*
X208184985Y-68610805D01*
X208272339Y-68727361D01*
X208279519Y-68732742D01*
X208280509Y-68733484D01*
X208281244Y-68734467D01*
X208285869Y-68739092D01*
X208285202Y-68739759D01*
X208323026Y-68790342D01*
X208328053Y-68861161D01*
X208293995Y-68923455D01*
X208280514Y-68935137D01*
X208279875Y-68935616D01*
X208267315Y-68948176D01*
X208190814Y-69050251D01*
X208182276Y-69065846D01*
X208137122Y-69186294D01*
X208133495Y-69201549D01*
X208127969Y-69252414D01*
X208127600Y-69259228D01*
X208127600Y-69831885D01*
X208132075Y-69847124D01*
X208133465Y-69848329D01*
X208141148Y-69850000D01*
X210363800Y-69850000D01*
X210431921Y-69870002D01*
X210478414Y-69923658D01*
X210489800Y-69976000D01*
X210489800Y-70232000D01*
X210469798Y-70300121D01*
X210416142Y-70346614D01*
X210363800Y-70358000D01*
X208145716Y-70358000D01*
X208130477Y-70362475D01*
X208129272Y-70363865D01*
X208127601Y-70371548D01*
X208127601Y-70948769D01*
X208127971Y-70955590D01*
X208133495Y-71006452D01*
X208137121Y-71021704D01*
X208182276Y-71142154D01*
X208190814Y-71157749D01*
X208267315Y-71259824D01*
X208279875Y-71272384D01*
X208280514Y-71272863D01*
X208280988Y-71273497D01*
X208286226Y-71278735D01*
X208285470Y-71279491D01*
X208323028Y-71329723D01*
X208328052Y-71400542D01*
X208293991Y-71462835D01*
X208280510Y-71474515D01*
X208272339Y-71480639D01*
X208184985Y-71597195D01*
X208133855Y-71733584D01*
X208127100Y-71795766D01*
X208127100Y-73492234D01*
X208133855Y-73554416D01*
X208184985Y-73690805D01*
X208272339Y-73807361D01*
X208279518Y-73812741D01*
X208280097Y-73813175D01*
X208280527Y-73813750D01*
X208285869Y-73819092D01*
X208285098Y-73819863D01*
X208322611Y-73870035D01*
X208327635Y-73940854D01*
X208293574Y-74003146D01*
X208280100Y-74014823D01*
X208272339Y-74020639D01*
X208184985Y-74137195D01*
X208133855Y-74273584D01*
X208127100Y-74335766D01*
X208127100Y-76032234D01*
X208133855Y-76094416D01*
X208184985Y-76230805D01*
X208272339Y-76347361D01*
X208279518Y-76352741D01*
X208280097Y-76353175D01*
X208280527Y-76353750D01*
X208285869Y-76359092D01*
X208285098Y-76359863D01*
X208322611Y-76410035D01*
X208327635Y-76480854D01*
X208293574Y-76543146D01*
X208280100Y-76554823D01*
X208272339Y-76560639D01*
X208184985Y-76677195D01*
X208133855Y-76813584D01*
X208127100Y-76875766D01*
X208127100Y-78572234D01*
X208133855Y-78634416D01*
X208184985Y-78770805D01*
X208272339Y-78887361D01*
X208279518Y-78892741D01*
X208280097Y-78893175D01*
X208280527Y-78893750D01*
X208285869Y-78899092D01*
X208285098Y-78899863D01*
X208322611Y-78950035D01*
X208327635Y-79020854D01*
X208293574Y-79083146D01*
X208280100Y-79094823D01*
X208272339Y-79100639D01*
X208184985Y-79217195D01*
X208133855Y-79353584D01*
X208127100Y-79415766D01*
X208127100Y-81112234D01*
X208133855Y-81174416D01*
X208184985Y-81310805D01*
X208272339Y-81427361D01*
X208279519Y-81432742D01*
X208280509Y-81433484D01*
X208281244Y-81434467D01*
X208285869Y-81439092D01*
X208285202Y-81439759D01*
X208323026Y-81490342D01*
X208328053Y-81561161D01*
X208293995Y-81623455D01*
X208280514Y-81635137D01*
X208279875Y-81635616D01*
X208267315Y-81648176D01*
X208190814Y-81750251D01*
X208182276Y-81765846D01*
X208137122Y-81886294D01*
X208133495Y-81901549D01*
X208127969Y-81952414D01*
X208127600Y-81959228D01*
X208127600Y-82531885D01*
X208132075Y-82547124D01*
X208133465Y-82548329D01*
X208141148Y-82550000D01*
X210363800Y-82550000D01*
X210431921Y-82570002D01*
X210478414Y-82623658D01*
X210489800Y-82676000D01*
X210489800Y-82932000D01*
X210469798Y-83000121D01*
X210416142Y-83046614D01*
X210363800Y-83058000D01*
X208145716Y-83058000D01*
X208130477Y-83062475D01*
X208129272Y-83063865D01*
X208127601Y-83071548D01*
X208127601Y-83648769D01*
X208127971Y-83655590D01*
X208133495Y-83706452D01*
X208137121Y-83721704D01*
X208182276Y-83842154D01*
X208190814Y-83857749D01*
X208267315Y-83959824D01*
X208279875Y-83972384D01*
X208280514Y-83972863D01*
X208280988Y-83973497D01*
X208286226Y-83978735D01*
X208285470Y-83979491D01*
X208323028Y-84029723D01*
X208328052Y-84100542D01*
X208293991Y-84162835D01*
X208280510Y-84174515D01*
X208272339Y-84180639D01*
X208184985Y-84297195D01*
X208133855Y-84433584D01*
X208133002Y-84441440D01*
X208131921Y-84451387D01*
X208104679Y-84516949D01*
X208046316Y-84557375D01*
X207995987Y-84562819D01*
X207994487Y-84562500D01*
X207803513Y-84562500D01*
X207797061Y-84563872D01*
X207797056Y-84563872D01*
X207710112Y-84582353D01*
X207616712Y-84602206D01*
X207610682Y-84604891D01*
X207610681Y-84604891D01*
X207448278Y-84677197D01*
X207448276Y-84677198D01*
X207442248Y-84679882D01*
X207436907Y-84683762D01*
X207436906Y-84683763D01*
X207422022Y-84694577D01*
X207287747Y-84792134D01*
X207159960Y-84934056D01*
X207064473Y-85099444D01*
X207005458Y-85281072D01*
X207004768Y-85287633D01*
X207004768Y-85287635D01*
X206987401Y-85452872D01*
X206985496Y-85471000D01*
X206995502Y-85566197D01*
X206998141Y-85591306D01*
X206985369Y-85661145D01*
X206936867Y-85712991D01*
X206868034Y-85730386D01*
X206800724Y-85707805D01*
X206769680Y-85676836D01*
X206488774Y-85276388D01*
X206486614Y-85273207D01*
X206038272Y-84590688D01*
X205938375Y-84438613D01*
X205936749Y-84436072D01*
X205935200Y-84433584D01*
X205319461Y-83444948D01*
X205317733Y-83442088D01*
X205095948Y-83063865D01*
X204653369Y-82309111D01*
X204651545Y-82305893D01*
X204565797Y-82149236D01*
X203960431Y-81043272D01*
X203958516Y-81039632D01*
X203261058Y-79659826D01*
X203259055Y-79655679D01*
X202574048Y-78167818D01*
X202572540Y-78164410D01*
X202243520Y-77389466D01*
X202242498Y-77386984D01*
X201923355Y-76587697D01*
X201922316Y-76585005D01*
X201616772Y-75765784D01*
X201615738Y-75762906D01*
X201585899Y-75676557D01*
X201326303Y-74925318D01*
X201325295Y-74922273D01*
X201054475Y-74067913D01*
X201053489Y-74064649D01*
X201042913Y-74027819D01*
X200803764Y-73195063D01*
X200802812Y-73191555D01*
X200576678Y-72308384D01*
X200575774Y-72304614D01*
X200375684Y-71409396D01*
X200374852Y-71405367D01*
X200226846Y-70624192D01*
X200203248Y-70499642D01*
X200202514Y-70495364D01*
X200183471Y-70371548D01*
X200061842Y-69580753D01*
X200061224Y-69576176D01*
X200046425Y-69449049D01*
X199985237Y-68923455D01*
X199953895Y-68654231D01*
X199953423Y-68649355D01*
X199882898Y-67735366D01*
X199882527Y-67724903D01*
X199882758Y-67686995D01*
X199882813Y-67678019D01*
X199880347Y-67669389D01*
X199879794Y-67665353D01*
X199878747Y-67653702D01*
X199784451Y-65474401D01*
X199784347Y-65470838D01*
X199753579Y-63412936D01*
X199753578Y-63409234D01*
X199771785Y-62147508D01*
X199780683Y-61530887D01*
X199780796Y-61527072D01*
X199783843Y-61459281D01*
X199857370Y-59822986D01*
X199857610Y-59819032D01*
X199894303Y-59340204D01*
X199975250Y-58283850D01*
X199975632Y-58279756D01*
X199986802Y-58177828D01*
X200125928Y-56908228D01*
X200126461Y-56904018D01*
X200301015Y-55690747D01*
X200301715Y-55686420D01*
X200491163Y-54631420D01*
X200492509Y-54624914D01*
X200674761Y-53848000D01*
X201840526Y-53848000D01*
X201860391Y-54100403D01*
X201861545Y-54105210D01*
X201861546Y-54105216D01*
X201894190Y-54241186D01*
X201919495Y-54346591D01*
X201921388Y-54351162D01*
X201921389Y-54351164D01*
X202011151Y-54567868D01*
X202016384Y-54580502D01*
X202148672Y-54796376D01*
X202313102Y-54988898D01*
X202505624Y-55153328D01*
X202721498Y-55285616D01*
X202726068Y-55287509D01*
X202726072Y-55287511D01*
X202950836Y-55380611D01*
X202955409Y-55382505D01*
X203040032Y-55402821D01*
X203196784Y-55440454D01*
X203196790Y-55440455D01*
X203201597Y-55441609D01*
X203301416Y-55449465D01*
X203388345Y-55456307D01*
X203388352Y-55456307D01*
X203390801Y-55456500D01*
X203517199Y-55456500D01*
X203519648Y-55456307D01*
X203519655Y-55456307D01*
X203606584Y-55449465D01*
X203706403Y-55441609D01*
X203711210Y-55440455D01*
X203711216Y-55440454D01*
X203867968Y-55402821D01*
X203952591Y-55382505D01*
X203957164Y-55380611D01*
X204181928Y-55287511D01*
X204181932Y-55287509D01*
X204186502Y-55285616D01*
X204402376Y-55153328D01*
X204594898Y-54988898D01*
X204759328Y-54796376D01*
X204891616Y-54580502D01*
X204896850Y-54567868D01*
X204986611Y-54351164D01*
X204986612Y-54351162D01*
X204988505Y-54346591D01*
X205013810Y-54241186D01*
X205046454Y-54105216D01*
X205046455Y-54105210D01*
X205047609Y-54100403D01*
X205067474Y-53848000D01*
X205047609Y-53595597D01*
X205024626Y-53499863D01*
X204995367Y-53377991D01*
X204988505Y-53349409D01*
X204943938Y-53241815D01*
X204893511Y-53120072D01*
X204893509Y-53120068D01*
X204891616Y-53115498D01*
X204886260Y-53106757D01*
X204880790Y-53097832D01*
X204759328Y-52899624D01*
X204594898Y-52707102D01*
X204402376Y-52542672D01*
X204186502Y-52410384D01*
X204181932Y-52408491D01*
X204181928Y-52408489D01*
X203957164Y-52315389D01*
X203957162Y-52315388D01*
X203952591Y-52313495D01*
X203835116Y-52285292D01*
X203711216Y-52255546D01*
X203711210Y-52255545D01*
X203706403Y-52254391D01*
X203606584Y-52246535D01*
X203519655Y-52239693D01*
X203519648Y-52239693D01*
X203517199Y-52239500D01*
X203390801Y-52239500D01*
X203388352Y-52239693D01*
X203388345Y-52239693D01*
X203301416Y-52246535D01*
X203201597Y-52254391D01*
X203196790Y-52255545D01*
X203196784Y-52255546D01*
X203072884Y-52285292D01*
X202955409Y-52313495D01*
X202950838Y-52315388D01*
X202950836Y-52315389D01*
X202726072Y-52408489D01*
X202726068Y-52408491D01*
X202721498Y-52410384D01*
X202505624Y-52542672D01*
X202313102Y-52707102D01*
X202148672Y-52899624D01*
X202027210Y-53097832D01*
X202021741Y-53106757D01*
X202016384Y-53115498D01*
X202014491Y-53120068D01*
X202014489Y-53120072D01*
X201964062Y-53241815D01*
X201919495Y-53349409D01*
X201912633Y-53377991D01*
X201883375Y-53499863D01*
X201860391Y-53595597D01*
X201840526Y-53848000D01*
X200674761Y-53848000D01*
X200833285Y-53172234D01*
X200888782Y-52935659D01*
X200891267Y-52926598D01*
X200961385Y-52703894D01*
X201247421Y-51795411D01*
X201251523Y-51784251D01*
X201265032Y-51752253D01*
X201380311Y-51479183D01*
X201454055Y-51304501D01*
X201498976Y-51249522D01*
X201570234Y-51227505D01*
X204945112Y-51230155D01*
G37*
%TD.AperFunction*%
%TA.AperFunction,Conductor*%
G36*
X234687627Y-61791293D02*
G01*
X234729117Y-61819002D01*
X234745892Y-61823600D01*
X236195600Y-61823600D01*
X236263721Y-61843602D01*
X236310214Y-61897258D01*
X236321600Y-61949600D01*
X236321600Y-63376756D01*
X236301598Y-63444877D01*
X236284695Y-63465851D01*
X234447880Y-65302667D01*
X234435489Y-65313534D01*
X234418785Y-65326351D01*
X234418783Y-65326353D01*
X234412757Y-65330977D01*
X234397252Y-65350330D01*
X234384456Y-65364066D01*
X234277905Y-65462560D01*
X234107020Y-65620524D01*
X234099497Y-65626949D01*
X234013591Y-65694672D01*
X233778041Y-65880365D01*
X233770052Y-65886169D01*
X233686772Y-65941815D01*
X233429702Y-66113584D01*
X233421266Y-66118753D01*
X233102713Y-66297152D01*
X233064145Y-66318751D01*
X233055332Y-66323242D01*
X232887445Y-66400639D01*
X232683601Y-66494612D01*
X232674461Y-66498398D01*
X232290431Y-66640074D01*
X232281022Y-66643131D01*
X232206087Y-66664265D01*
X231887065Y-66754238D01*
X231877475Y-66756541D01*
X231866633Y-66758698D01*
X231795922Y-66752371D01*
X231739854Y-66708817D01*
X231719470Y-66664265D01*
X231718798Y-66661440D01*
X231717945Y-66653584D01*
X231666815Y-66517195D01*
X231579461Y-66400639D01*
X231571702Y-66394824D01*
X231571273Y-66394250D01*
X231565931Y-66388908D01*
X231566702Y-66388137D01*
X231529189Y-66337965D01*
X231524165Y-66267146D01*
X231558226Y-66204854D01*
X231571703Y-66193175D01*
X231572282Y-66192741D01*
X231579461Y-66187361D01*
X231666815Y-66070805D01*
X231717945Y-65934416D01*
X231724700Y-65872234D01*
X231724700Y-64702244D01*
X231744702Y-64634123D01*
X231761605Y-64613149D01*
X234029188Y-62345566D01*
X234735857Y-62345566D01*
X234766165Y-62480046D01*
X234769245Y-62489875D01*
X234849370Y-62687203D01*
X234854013Y-62696394D01*
X234965294Y-62877988D01*
X234971377Y-62886299D01*
X235110813Y-63047267D01*
X235118180Y-63054483D01*
X235282034Y-63190516D01*
X235290481Y-63196431D01*
X235474356Y-63303879D01*
X235483642Y-63308329D01*
X235682601Y-63384303D01*
X235692499Y-63387179D01*
X235795850Y-63408206D01*
X235809899Y-63407010D01*
X235813600Y-63396665D01*
X235813600Y-62349715D01*
X235809125Y-62334476D01*
X235807735Y-62333271D01*
X235800052Y-62331600D01*
X234750825Y-62331600D01*
X234737294Y-62335573D01*
X234735857Y-62345566D01*
X234029188Y-62345566D01*
X234554500Y-61820254D01*
X234616812Y-61786228D01*
X234687627Y-61791293D01*
G37*
%TD.AperFunction*%
%TD*%
M02*
