M48
; DRILL file {KiCad (6.0.0)} date Fri Jan 21 17:49:18 2022
; FORMAT={-:-/ absolute / inch / decimal}
; #@! TF.CreationDate,2022-01-21T17:49:18+00:00
; #@! TF.GenerationSoftware,Kicad,Pcbnew,(6.0.0)
; #@! TF.FileFunction,Plated,1,2,PTH
FMAT,2
INCH
; #@! TA.AperFunction,Plated,PTH,ViaDrill
T1C0.0157
; #@! TA.AperFunction,Plated,PTH,ComponentDrill
T2C0.0394
%
G90
G05
T1
X7.7Y-4.5
X7.71Y-4.97
X7.82Y-3.96
X7.87Y-3.71
X7.96Y-3.93
X8.03Y-4.66
X8.06Y-3.65
X8.09Y-3.96
X8.1Y-4.07
X8.13Y-3.23
X8.16Y-4.14
X8.18Y-4.87
X8.185Y-3.365
X8.2Y-4.07
X8.23Y-4.68
X8.3223Y-4.4177
X8.33Y-3.69
X8.34Y-3.56
X8.34Y-3.76
X8.34Y-3.99
X8.35Y-4.47
X8.38Y-3.12
X8.382Y-2.392
X8.48Y-3.4
X8.5Y-4.68
X8.61Y-3.89
X8.61Y-4.17
X8.67Y-4.26
X8.69Y-3.9
X8.73Y-4.14
X8.86Y-3.92
X8.93Y-3.32
X9.25Y-4.0
X9.34Y-3.23
X9.53Y-4.61
X9.56Y-3.73
X9.63Y-4.7
X9.75Y-4.33
X9.77Y-4.75
X9.79Y-4.04
T2
X9.294Y-2.344
X9.294Y-2.444
X9.394Y-2.344
X9.394Y-2.444
X9.494Y-2.344
X9.494Y-2.444
T0
M30
