%TF.GenerationSoftware,KiCad,Pcbnew,(6.0.0)*%
%TF.CreationDate,2022-01-21T17:49:11+00:00*%
%TF.ProjectId,molly-the-mermaid,6d6f6c6c-792d-4746-9865-2d6d65726d61,rev?*%
%TF.SameCoordinates,Original*%
%TF.FileFunction,Paste,Bot*%
%TF.FilePolarity,Positive*%
%FSLAX46Y46*%
G04 Gerber Fmt 4.6, Leading zero omitted, Abs format (unit mm)*
G04 Created by KiCad (PCBNEW (6.0.0)) date 2022-01-21 17:49:11*
%MOMM*%
%LPD*%
G01*
G04 APERTURE LIST*
G04 Aperture macros list*
%AMRoundRect*
0 Rectangle with rounded corners*
0 $1 Rounding radius*
0 $2 $3 $4 $5 $6 $7 $8 $9 X,Y pos of 4 corners*
0 Add a 4 corners polygon primitive as box body*
4,1,4,$2,$3,$4,$5,$6,$7,$8,$9,$2,$3,0*
0 Add four circle primitives for the rounded corners*
1,1,$1+$1,$2,$3*
1,1,$1+$1,$4,$5*
1,1,$1+$1,$6,$7*
1,1,$1+$1,$8,$9*
0 Add four rect primitives between the rounded corners*
20,1,$1+$1,$2,$3,$4,$5,0*
20,1,$1+$1,$4,$5,$6,$7,0*
20,1,$1+$1,$6,$7,$8,$9,0*
20,1,$1+$1,$8,$9,$2,$3,0*%
G04 Aperture macros list end*
%ADD10R,1.600200X3.200400*%
%ADD11R,3.200400X1.600200*%
%ADD12RoundRect,0.250000X0.350000X0.450000X-0.350000X0.450000X-0.350000X-0.450000X0.350000X-0.450000X0*%
%ADD13R,1.100000X1.100000*%
%ADD14RoundRect,0.250000X0.250000X1.500000X-0.250000X1.500000X-0.250000X-1.500000X0.250000X-1.500000X0*%
%ADD15RoundRect,0.250001X0.499999X1.449999X-0.499999X1.449999X-0.499999X-1.449999X0.499999X-1.449999X0*%
G04 APERTURE END LIST*
D10*
%TO.C,U1*%
X217385900Y-101152960D03*
X219925900Y-101152960D03*
X222465900Y-101152960D03*
D11*
X210235800Y-52324000D03*
X210235800Y-54864000D03*
X210235800Y-57404000D03*
X210235800Y-59944000D03*
X210235800Y-62484000D03*
X210235800Y-65024000D03*
X210235800Y-67564000D03*
X210235800Y-70104000D03*
X210235800Y-72644000D03*
X210235800Y-75184000D03*
X210235800Y-77724000D03*
X210235800Y-80264000D03*
X210235800Y-82804000D03*
X210235800Y-85344000D03*
X210235800Y-87884000D03*
X210235800Y-90424000D03*
X210235800Y-92964000D03*
X210235800Y-95504000D03*
X210235800Y-98044000D03*
X210235800Y-100584000D03*
X229616000Y-100584000D03*
X229616000Y-98044000D03*
X229616000Y-95504000D03*
X229616000Y-92964000D03*
X229616000Y-90424000D03*
X229616000Y-87884000D03*
X229616000Y-85344000D03*
X229616000Y-82804000D03*
X229616000Y-80264000D03*
X229616000Y-77724000D03*
X229616000Y-75184000D03*
X229616000Y-72644000D03*
X229616000Y-70104000D03*
X229616000Y-67564000D03*
X229616000Y-65024000D03*
X229616000Y-62484000D03*
X229616000Y-59944000D03*
X229616000Y-57404000D03*
X229616000Y-54864000D03*
X229616000Y-52324000D03*
%TD*%
D12*
%TO.C,R10*%
X242808000Y-102616000D03*
X240808000Y-102616000D03*
%TD*%
%TO.C,R9*%
X242792000Y-106172000D03*
X240792000Y-106172000D03*
%TD*%
%TO.C,R8*%
X242808000Y-109982000D03*
X240808000Y-109982000D03*
%TD*%
%TO.C,R7*%
X242808000Y-113792000D03*
X240808000Y-113792000D03*
%TD*%
%TO.C,R6*%
X242808000Y-117602000D03*
X240808000Y-117602000D03*
%TD*%
%TO.C,R5*%
X207756000Y-120904000D03*
X205756000Y-120904000D03*
%TD*%
%TO.C,R4*%
X207756000Y-117348000D03*
X205756000Y-117348000D03*
%TD*%
%TO.C,R3*%
X199898000Y-98044000D03*
X197898000Y-98044000D03*
%TD*%
%TO.C,R2*%
X204708000Y-98044000D03*
X202708000Y-98044000D03*
%TD*%
%TO.C,R1*%
X204724000Y-94742000D03*
X202724000Y-94742000D03*
%TD*%
D13*
%TO.C,D1*%
X214252000Y-108712000D03*
X211452000Y-108712000D03*
%TD*%
D14*
%TO.C,Battery*%
X201914000Y-104338000D03*
X199914000Y-104338000D03*
D15*
X204264000Y-110088000D03*
X197564000Y-110088000D03*
%TD*%
M02*
