<?xml version="1.0" encoding="UTF-8" standalone="no"?>
<!DOCTYPE svg PUBLIC "-//W3C//DTD SVG 1.1//EN" "http://www.w3.org/Graphics/SVG/1.1/DTD/svg11.dtd">
<svg width="100%" height="100%" viewBox="0 0 1500 1500" version="1.1" xmlns="http://www.w3.org/2000/svg" xmlns:xlink="http://www.w3.org/1999/xlink" xml:space="preserve" xmlns:serif="http://www.serif.com/" style="fill-rule:evenodd;clip-rule:evenodd;stroke-linecap:round;stroke-linejoin:round;stroke-miterlimit:1.5;">
    <g id="Layer1">
        <path d="M415.476,226.51C415.476,226.054 409.938,237.108 414.699,245.677C422.046,258.9 433.431,267.494 448.744,265.963C459.086,264.929 468.176,249.126 468.176,239.661C468.176,238.395 467.25,229.493 465.999,229.868C465.638,229.976 464.206,269.995 482.944,271.979C502.637,274.064 515.715,255.465 514.501,237.982C514.452,237.271 514.139,230.008 512.48,230.008C510.651,230.008 515.351,245.484 516.678,247.076C527.318,259.844 540.792,271.535 558.962,267.642C571.634,264.927 572.716,252.296 573.574,241.48C573.601,241.15 573.929,235.744 573.574,235.744C573.218,235.744 573.108,235.906 573.108,236.863C573.108,261.138 591.075,270.853 615.236,269.041C619.12,268.75 622.528,266.349 624.875,263.445C629.03,258.303 631.248,249.577 631.248,242.879C631.248,222.582 627.394,253.121 640.109,264.564C667.048,288.807 704.188,238.626 689.7,232.106C688.984,231.784 687.177,245.036 687.368,246.236C688.618,254.113 697.302,270.228 706.644,271.279C725.836,273.438 752.004,240.331 743.021,232.246C739.926,229.461 740.795,240.294 740.223,244.418C738.697,255.402 749.048,263.859 759.188,265.263C771.378,266.951 800.562,249.495 791.989,234.065C791.944,233.983 791.989,234.345 791.989,234.345C791.989,234.345 791.678,252.672 797.741,258.128C824.165,281.909 863.46,247.041 849.197,234.205C845.847,231.19 846.937,242.994 846.709,247.496C846.024,261.073 851.28,273.585 868.629,268.901C881.412,265.45 894.885,257.863 898.476,243.858C898.639,243.222 900.316,236.443 900.031,236.443C897.597,236.443 899.409,241.284 899.409,243.718C899.409,261.301 903.252,266.66 919.618,267.642C930.009,268.265 944.032,259.179 945.268,248.055C945.699,244.18 950.566,236.443 946.667,236.443C946.273,236.443 942.981,242.699 942.936,242.739C931.661,252.886 955.984,285.241 975.271,265.403C979.338,261.22 975.606,261.411 969.986,261.066" style="fill:none;stroke:black;stroke-width:1px;"/>
        <path d="M395.733,296.882C392.587,291.218 408.539,303.832 413.91,300.208C422.868,294.161 428.591,283.395 432.11,275.476C432.76,274.015 432.732,270.72 432.732,270.72C432.732,270.72 432.11,275.281 432.11,277.575C432.11,290.192 444.836,305.058 457.76,306.116C472.444,307.317 481.263,293.048 485.276,281.492C485.995,279.422 487.371,270.793 487.297,270.86C475.283,281.672 502.497,298.395 508.905,300.519C520.269,304.287 539.345,304.369 546.992,293.664C550.219,289.146 548.011,284.364 548.702,279.394C549.061,276.805 549.298,269.108 548.391,271.559C540.057,294.06 585.141,307.848 599.846,302.758C609.496,299.418 611.683,284.108 609.796,275.616C609.647,274.948 609.174,273.658 609.174,273.658C609.174,273.658 608.885,279.094 609.951,281.492C615.905,294.888 643.205,311.562 657.52,300.519C660.301,298.374 662.086,294.573 662.184,290.986C663.077,258.196 666.324,302.888 688.611,305.696C703.705,307.597 715.661,295.927 715.661,281.352C715.661,281.3 715.77,273.098 715.039,273.098C713.486,273.098 715.447,276.177 715.661,277.715C717.198,288.781 722.646,302.411 735.403,304.437C752.148,307.096 773.259,285.833 764.94,270.86C764.223,269.569 763.397,275.395 763.23,276.036C761.314,283.365 761.878,290.874 768.826,295.203C782.134,303.494 815.403,296.088 818.572,278.974C818.783,277.837 820.053,273.555 818.417,272.818C814.887,271.23 817.672,280.632 818.417,284.43C820.338,294.232 831.007,303.812 841.579,303.178C864.701,301.79 862.141,265.053 864.742,282.612C870.64,322.422 929.043,286.337 911.845,270.86C911.111,270.199 910.345,286.414 911.223,288.627C917.305,303.953 923.696,304.067 938.584,305.556C946.942,306.392 953.311,292.691 955.062,286.389C955.897,283.382 956.616,274.034 956.616,277.155C956.616,294.19 959.872,293.52 975.427,300.519C978.339,301.83 986.105,297.57 982.422,295.203" style="fill:none;stroke:black;stroke-width:1px;"/>
        <path d="M389.719,337.845C386.219,337.845 398.564,339.023 399.365,337.941C405.806,329.246 406.148,325.851 407.393,314.65C407.734,311.575 411.419,305.416 408.325,305.416C407.408,305.416 409.141,317.568 409.258,318.147C412.149,332.457 423.983,338.679 437.862,336.894C449.99,335.335 461.646,330.325 463.046,316.468C463.258,314.37 462.424,310.173 462.424,310.173C462.424,310.173 462.085,314.191 462.268,316.189C466.58,363.04 515.237,369.675 519.631,325.282C520.328,318.243 521.568,310.868 523.362,317.867C525.707,327.01 542.175,334.572 550.567,333.817C559.126,333.046 574.64,333.429 580.104,325.562C583.254,321.025 583.213,317.342 583.213,311.991C583.213,310.033 584.669,304.805 583.213,306.116C571.827,316.362 613.041,349.166 634.979,338.713C649.506,331.792 655.094,330.307 653.323,314.37C653.151,312.819 652.546,309.753 652.546,309.753C652.546,309.753 652.39,312.737 652.39,314.23C652.39,324.442 662.095,335.775 672.599,335.775C678.696,335.775 685.108,334.575 690.943,332.977C699.987,330.5 707.492,322.232 705.867,311.991C705.704,310.965 705.518,306.955 704.779,306.955C702.776,306.955 709.982,328.286 712.552,330.599C724.627,341.467 752.902,320.784 742.865,307.235C742.824,307.179 742.78,307.095 742.71,307.095C741.31,307.095 742.746,309.897 742.865,311.292C743.655,320.53 749.704,330.934 759.499,332.697C778.847,336.18 803.648,328.985 803.648,305.976C803.648,304.158 801.938,300.799 801.938,300.799C801.938,300.799 801.484,305.471 801.161,307.794C798.703,325.492 813.46,331.646 828.988,332.977C835.32,333.52 842.404,333.672 846.399,328.08C850.598,322.201 850.596,306.815 850.596,306.815C850.596,306.815 849.056,319.037 852.461,323.464C874.29,351.84 905.028,317.888 894.901,308.774C894.649,308.548 894.901,309.802 894.901,310.173C894.901,326.439 914.984,340.57 930.966,335.775C934.678,334.662 943.776,316.944 940.76,314.23C939.576,313.164 938.7,309.473 940.294,309.473C940.364,309.473 939.521,312.53 939.361,313.251C937.179,323.067 942.887,331.276 951.331,335.076C961.073,339.46 984.427,324.835 978.691,314.51C977.884,313.057 977.758,309.613 977.758,309.613C977.758,309.613 973.849,324.681 977.292,330.879C978.929,333.825 983.733,333.218 980.246,332.557" style="fill:none;stroke:black;stroke-width:1px;"/>
        <path d="M387.805,378.446C404.994,378.446 420.2,385.808 426.98,357.74C427.077,357.338 429.466,346.828 427.913,346.828C427.884,346.828 430.882,359.399 431.488,360.958C437.759,377.082 444.973,383.157 463.357,380.545C474.302,378.989 485.486,368.513 488.229,358.02C488.684,356.28 487.957,343.295 487.452,343.75C479.339,351.051 509.436,390.179 537.198,370.192C548.572,362.002 549.603,351.47 546.37,339.832C546.327,339.679 546.429,338.1 546.059,338.433C543.369,340.854 544.401,349.182 544.66,352.564C546.3,373.969 564.16,374.535 582.435,373.27C594.194,372.456 607.754,371.612 612.905,359.559C614.574,355.652 615.441,343.985 612.283,346.828C594.464,362.864 636.341,378.023 651.511,372.772C658.482,370.359 680.23,354.491 677.112,347.146C670.235,330.946 680.071,368.852 697.783,375.228C741.552,390.984 729.648,348.23 732.761,345.429C732.924,345.281 732.916,346.143 732.916,346.688C732.916,357.768 732.933,371.383 747.374,373.549C752.733,374.353 758.272,373.544 763.385,372.01C772.192,369.368 784.507,351.775 778.139,342.642C774.306,337.145 780.848,360.182 785.771,365.015C803.575,382.494 831.319,366.189 831.319,344.169C831.319,340.293 831.195,351.978 831.941,355.782C833.43,363.373 841.464,369.005 848.73,370.052C860.266,371.713 865.261,366.624 871.738,357.88C873.848,355.031 873.28,343.922 872.049,347.247C866.979,360.934 877.277,374.551 891.014,375.088C902.766,375.548 929.215,353.226 920.706,345.569C917.528,342.709 918.598,354.061 919.152,358.3C920.758,370.586 931.503,379.041 944.335,377.886C965.002,376.027 965.471,340.001 963.612,348.926C962.58,353.882 961.118,358.051 963.146,362.917C971.241,382.344 992.738,354.081 985.376,355.921" style="fill:none;stroke:black;stroke-width:1px;"/>
        <path d="M389.204,387.68C390.025,387.31 388.901,388.433 389.204,390.618C390.999,403.54 394.522,420.977 410.657,420.977C430.37,420.977 437.862,401.72 437.862,386.141C437.862,384.418 439.09,389.368 439.883,390.898C441.509,394.034 442.837,397.574 445.168,400.271C453.289,409.667 461.204,414.427 473.928,415.381C491.546,416.702 508.288,410.875 511.237,392.297C511.343,391.626 512.443,382.363 511.859,382.363C511.428,382.363 513.001,393.825 513.724,395.235C519.578,406.65 537.324,412.534 549.168,407.966C553.217,406.404 575.315,384.056 565.335,379.565C562.756,378.405 564.347,396.1 566.423,398.592C574.247,407.981 593.525,409.252 604.821,408.525C611.383,408.104 622.747,406.199 626.274,399.851C627.174,398.232 635.551,374.389 633.736,374.389C628.467,374.389 637.128,396.439 639.021,398.452C649.93,410.055 672.997,406.468 685.191,399.152C686.716,398.237 701.038,381.104 696.851,381.104C694.574,381.104 695.817,385.553 695.607,387.82C694.166,403.384 711.933,412.477 726.232,410.064C747.161,406.533 758.107,384.045 751.571,381.104C749.817,380.315 750.589,384.823 750.172,386.7C748.13,395.886 754.34,401.682 760.898,406.847C771.304,415.041 789.562,407.94 797.119,398.872C799.041,396.566 799.727,392.286 800.695,389.498C802.311,384.843 800.228,379.636 799.14,385.022C795.967,400.73 812.98,410.483 827.433,406.147C836.931,403.298 847.953,389.978 847.953,380.125C847.953,374.72 846.728,380.611 848.264,386.141C854.709,409.341 896.766,406.245 896.766,381.104C896.766,378.442 895.457,386.288 895.212,388.939C894.609,395.443 895.534,402.474 902.518,405.168C913.842,409.536 932.272,408.274 938.584,396.913C939.556,395.164 940.76,391.317 940.76,391.317C940.76,391.317 951.504,410.562 959.726,408.386C967.571,406.309 975.093,400.691 980.557,394.955C983.158,392.223 981.173,386.42 983.977,386.98" style="fill:none;stroke:black;stroke-width:1px;"/>
        <path d="M390.448,447.559C387.378,447.559 385.87,448.682 388.583,450.077C405.791,458.927 426.249,433.05 417.808,425.454C416.9,424.637 415.099,427.063 419.207,440.004C422.434,450.168 435.281,462.116 446.412,459.73C460.275,456.76 476.415,450.55 476.415,433.988C476.415,430.324 474.86,418.034 474.86,427.133C474.86,431.759 476.211,438.087 478.902,441.963C487.712,454.648 527.723,452.404 534.4,438.885C537.746,432.108 535.021,416.22 535.021,416.22L535.021,419.298C535.021,429.875 536.803,439.034 544.349,446.579C556.744,458.974 584.602,457.002 596.426,445.6C601.661,440.553 601.054,434.403 600.468,427.552C599.744,419.075 600.955,428.545 603.422,435.947C606.173,444.2 615.262,449.401 623.631,448.958C635.581,448.325 654.408,441.861 655.655,427.273C655.764,425.999 657.648,411.336 656.432,411.883C653.736,413.096 656.64,426.821 657.676,428.951C665.653,445.362 678.387,451.54 696.695,452.455C715.123,453.377 735.472,436.413 727.942,416.08C727.162,413.976 728.133,420.569 728.408,422.796C729.003,427.615 730.141,431.531 732.916,435.527C738.202,443.139 755.455,445.193 764.163,444.481C772.92,443.764 776.245,436.032 776.91,428.252C777.193,424.946 777.532,415.001 777.532,418.319C777.532,429.739 779.64,445.67 791.989,450.217C805.133,455.056 822.628,451.173 829.609,439.304C832.584,434.247 833.348,427.316 833.807,421.537C834.014,418.928 832.252,411.225 832.252,413.842C832.252,478.003 894.233,429.889 875.624,413.142C875.623,413.141 875.57,413.923 875.313,414.961C873.56,422.06 871.637,431.532 874.847,438.465C885.379,461.212 931.5,436.207 920.24,415.94C919.447,414.513 920.395,419.204 920.395,420.837C920.395,426.239 920.888,431.528 921.95,436.786C924.217,448.007 937.944,449.934 947.911,451.616C957.882,453.299 965.788,431.968 965.788,425.454L965.788,418.599C965.788,418.599 965.769,422.164 965.477,423.915C963.782,434.086 964.552,440.01 972.007,446.719C983.691,457.235 999.211,443.781 992.216,444.481" style="fill:none;stroke:black;stroke-width:1px;"/>
        <path d="M392.935,491.908C392.012,491.493 395.187,494.775 396.044,495.546C399.656,498.796 404.793,499.037 409.414,498.344C419.449,496.839 428.319,484.813 429.312,474.98C429.506,473.058 429.874,472.419 430.245,474.42C433.76,493.401 446.827,499.883 465.533,499.883C484.24,499.883 491.572,485.759 490.406,468.964C490.268,466.974 488.696,463.228 488.696,463.228C488.696,463.228 488.497,466.866 488.385,468.684C487.872,476.996 494.375,485.606 501.132,489.95C516.749,499.989 538.24,498.657 553.054,487.991C558.1,484.359 560.424,461.309 560.469,464.039C560.716,479.128 556.804,504.418 592.074,497.365C602.368,495.306 615.427,491.113 619.434,480.296C620.89,476.363 620.9,470.624 618.812,466.866C617.83,465.099 616.169,459.388 616.169,461.409C616.169,472.567 617.483,487.907 630.937,491.209C639.327,493.268 650.681,490.425 658.608,487.571C664.415,485.481 670.26,482.125 673.999,477.079C676.778,473.326 680.554,460.358 679.75,462.529C677.25,469.28 682.043,481.73 686.59,486.732C697.394,498.616 728.498,492.051 740.067,483.374C741.578,482.241 754.8,458.891 749.239,458.891C749.137,458.891 746.079,461.495 744.851,462.6C737.75,468.991 767.095,495.814 775.666,498.064C792.885,502.584 817.781,472.17 805.047,460.71C802.287,458.226 805.992,468.077 806.447,471.762C808.183,485.829 819.438,489.269 832.252,490.23C851.238,491.653 847.774,452.478 851.529,471.063C852.124,474.01 853.503,477.252 855.26,479.737C863.389,491.234 878.84,491.995 890.082,484.913C897.393,480.307 896.66,448.89 898.476,461.969C899.643,470.372 903.987,477.05 911.223,482.115C915.005,484.762 921.357,486.831 925.992,487.152C934.809,487.762 944.894,485.566 949.155,476.939C950.85,473.505 949.776,461.637 949.776,465.467C949.776,482.042 959.796,498.967 980.401,494.846C982.867,494.353 987.484,492.674 984.909,493.727" style="fill:none;stroke:black;stroke-width:1px;"/>
        <path d="M405.683,510.236C404.327,510.846 404.18,515.742 404.594,518.35C411.964,564.78 468.959,533.196 460.092,509.257C459.979,508.951 458.537,512.531 458.537,514.013C458.537,518.205 460.133,523.459 463.046,526.605C471.665,535.913 483.666,541.482 496.469,537.937C499.475,537.104 505.614,532.049 507.59,529.678C509.809,527.015 519.626,508.837 515.279,508.837C514.901,508.837 515.427,516.087 515.59,516.671C519.592,531.08 536.472,539.38 550.567,538.776C559.39,538.398 574.049,532.927 576.062,522.967C576.81,519.261 574.274,500.869 574.49,504.644C575.632,524.569 617.7,544.539 633.269,527.024C637.657,522.088 635.135,507.298 635.135,507.298C635.135,507.298 640.503,522.421 646.794,526.465C652.352,530.038 659.178,530.669 665.604,531.082C680.5,532.039 697.715,531.597 701.203,514.853C701.296,514.408 702.499,505.899 701.825,505.899C698.244,505.899 708.468,529.345 711.93,531.501C720.811,537.035 744.253,530.737 753.747,526.465C758.887,524.152 765.194,517.525 766.061,512.195C769.448,491.358 769.656,527.743 790.59,531.641C793.908,532.259 797.504,532.203 800.85,531.921C814.715,530.751 825.464,524.615 829.609,510.935C829.782,510.366 831.207,505.918 830.853,505.759C828.49,504.696 829.184,510.669 828.521,513.174C826.114,522.274 832.504,534.192 842.668,533.46C852.386,532.76 862.812,529.378 868.629,521.288C871.175,517.747 871.095,513.625 871.582,509.676C871.834,507.639 871.738,501.468 871.738,503.52C871.738,554.216 921.639,523.228 921.639,507.438C921.639,505.199 919.555,500.722 921.794,500.722C922.2,500.722 921.729,505.628 921.639,506.319C920.742,513.18 916.971,523.309 925.37,526.745C937.75,531.809 959.49,530.632 965.633,516.811C965.902,516.205 968.263,509.665 967.498,508.977C965.144,506.858 965.944,515.183 965.944,518.35C965.944,528.787 971.755,524.509 979.002,527.304" style="fill:none;stroke:black;stroke-width:1px;"/>
        <path d="M419.363,574.312C419.579,573.729 419.429,574.012 419.829,573.473" style="fill:none;stroke:black;stroke-width:1px;"/>
        <path d="M413.455,573.193C416.434,570.512 425.083,583.7 434.131,579.628C445.129,574.679 446.101,559.773 446.101,549.829C446.101,548.235 444.857,545.212 444.857,545.212C444.857,545.212 443.895,548.186 444.08,549.689C446.214,566.974 455.182,573.69 471.907,575.571C483.971,576.928 495.064,559.73 493.049,548.849C492.752,547.25 491.96,544.093 491.96,544.093C491.96,544.093 491.715,545.861 491.649,546.751C490.854,557.488 497.602,570.841 506.884,576.411C519.029,583.697 539.123,578.015 547.769,567.317C551.389,562.836 553.482,556.859 552.588,551.228C552.201,548.789 553.024,542.301 551.189,543.953C531.629,561.556 561.065,578.367 574.663,581.027C594.172,584.844 614.148,571.561 614.148,550.808C614.148,549.924 613.631,541.295 613.216,541.295C612.925,541.295 612.608,541.765 612.438,541.994C598.363,560.995 624.189,576.094 641.664,573.473C651.283,572.03 681.237,546.969 671.356,538.077C671.099,537.846 671.371,548.695 671.511,549.829C672.513,557.939 675.099,563.733 682.238,568.016C695.358,575.888 720.001,568.889 725.454,554.166C727.579,548.43 727.244,542.128 728.874,536.258C729.014,535.754 729.709,534.719 729.185,534.719C727.662,534.719 728.719,543.998 728.874,544.652C731.872,557.242 742.288,572.704 758.473,567.848C770.358,564.283 768.041,565.198 777.983,557.369C782.772,553.597 784.963,533.566 784.963,539.954C784.963,545.447 789.915,557.167 793.077,561.721C812.615,589.854 863.614,549.373 849.508,536.678C846.807,534.247 846.554,543.537 846.554,547.171C846.554,555.526 859.284,572.672 868.784,570.535C879.456,568.133 886.197,562.694 889.149,552.067C890.026,548.91 888.682,546.246 888.682,543.253C888.682,541.846 890.195,538.115 889.149,539.056C877.197,549.813 899.124,567.876 909.98,567.876C919.451,567.876 934.165,560.507 936.407,551.088C937.48,546.583 940.938,534.139 937.495,537.237C935.74,538.817 933.298,547.108 933.298,550.528C933.298,572.054 966.612,565.836 958.326,564.659" style="fill:none;stroke:black;stroke-width:1px;"/>
        <path d="M438.639,615.304C445.144,612.377 457.547,626.805 469.73,610.967C473.241,606.403 475.293,597.356 474.238,591.66C473.774,589.151 471.129,582.113 471.129,584.665C471.129,598.824 476.065,626.849 496.624,622.579C507.273,620.367 514.075,611.52 515.59,600.614C516.013,597.565 513.302,589.321 515.59,591.38C519.439,594.845 509.77,615.988 533.467,621.32C555.98,626.385 567.978,614.56 567.978,594.039C567.978,590.239 566.239,593.795 567.201,597.256C577.696,635.039 643.361,598.924 624.719,582.147C623.01,580.608 620.281,587.549 620.522,589.282C621.708,597.821 624.85,609.137 633.269,612.926C649.045,620.024 704.623,601.034 685.658,583.965C684.195,582.649 684.259,587.733 684.259,589.702C684.259,594.322 685.792,597.657 689.078,600.614C698.405,609.008 705.627,613.042 718.614,611.666C725.395,610.949 729.277,608.823 734.873,606.305C737.271,605.226 741.503,593.75 742.74,591.524C743.608,589.96 745.025,574.01 745.158,577.682C746.92,626.562 824.265,590.183 809.206,576.631C807.767,575.336 811.541,594.068 811.889,595.48C814.546,606.241 837.597,609.857 846.088,607.609C856.79,604.776 868.162,597.692 868.162,585.364C868.162,583.167 865.499,578.789 867.696,578.789C869.141,578.789 866.608,581.541 866.608,582.986C866.608,591.246 873.038,600.556 880.443,603.412C895.844,609.352 913.6,582.886 908.736,578.509C908.671,578.45 906.234,583.029 905.627,584.805C903.547,590.888 903.334,597.991 908.581,602.713C930.176,622.148 966.157,594.238 955.062,585.085" style="fill:none;stroke:black;stroke-width:1px;"/>
        <path d="M458.382,629.155C460.151,625.97 458.082,636.542 459.004,640.067C461.531,649.732 470.594,660.853 481.545,658.534C491.156,656.499 497.154,645.824 496.469,636.569C496.466,636.536 495.585,625.333 495.069,625.797C487.59,632.528 505.722,659.458 522.43,652.519C533.15,648.066 537.972,634.309 536.421,623.139C536.304,622.301 536.11,620.62 536.11,620.62C536.11,620.62 535.855,623.442 536.11,624.818C537.835,634.134 539.5,643.845 549.945,646.083C558.564,647.93 577.856,645.447 584.612,639.368C587.793,636.505 590.675,632.457 590.675,628.035C590.675,626.079 589.431,620.343 589.431,622.299C589.431,640.641 610.101,654.338 628.295,650.7C636.567,649.045 649.621,643.563 653.012,635.17C654.107,632.46 654.105,627.636 653.478,624.818C653.058,622.924 651.458,617.422 651.458,619.361C651.458,632.823 653.359,653.462 669.335,658.255C683.295,662.443 705.455,655.337 715.039,644.124C720.374,637.882 715.816,619.501 715.816,619.501C715.816,619.501 716.288,624.347 716.438,626.776C717.497,643.938 728.484,652.605 745.974,651.679C765.523,650.644 778.721,643.013 785.305,625.237C788.409,616.856 779.996,626.893 783.284,635.031C788.617,648.231 820.675,649.647 830.387,640.906C837.737,634.292 846.997,627.111 843.911,616.004C843.469,614.411 842.512,611.247 842.512,611.247C842.512,611.247 842.043,615.873 841.424,618.102C838.043,630.274 846.816,643.423 860.39,642.445C878.991,641.106 894.279,631.253 894.279,612.506C894.279,611.937 894.391,610.446 893.968,610.827C887.814,616.365 899.257,659.571 931.122,639.088C934.326,637.028 943.121,633.859 939.672,630.134" style="fill:none;stroke:black;stroke-width:1px;"/>
    </g>
</svg>
