<?xml version="1.0" encoding="UTF-8" standalone="no"?>
<!DOCTYPE svg PUBLIC "-//W3C//DTD SVG 1.1//EN" "http://www.w3.org/Graphics/SVG/1.1/DTD/svg11.dtd">
<svg width="100%" height="100%" viewBox="0 0 1500 1500" version="1.1" xmlns="http://www.w3.org/2000/svg" xmlns:xlink="http://www.w3.org/1999/xlink" xml:space="preserve" xmlns:serif="http://www.serif.com/" style="fill-rule:evenodd;clip-rule:evenodd;stroke-linecap:round;stroke-linejoin:round;stroke-miterlimit:1.5;">
    <path d="M412.186,224.471L975.042,224.913C975.042,224.913 998.031,376.189 990.014,460.237C982.126,542.933 906.892,707.834 906.892,707.834C906.892,707.834 1014.99,789.582 1046.88,836.538C1097.76,911.458 1102.07,1044.06 1087.74,1115.38C1058.27,1262.04 1075.72,1319.71 1075.72,1319.71C1075.72,1319.71 820.007,1260.78 758.414,1177.88C694.907,1092.41 683.894,1093.75 683.894,1093.75C683.894,1093.75 639.609,1142.41 594.952,1180.29C521.055,1242.97 280.048,1310.1 280.048,1310.1C280.048,1310.1 306.224,1298.08 283.328,1158.71C283.063,1157.11 282.75,1155.49 282.452,1153.85C275.03,1113 246.661,951.547 325.721,846.154C372.213,784.176 493.99,716.346 493.99,716.346C493.99,716.346 396.055,592.002 388.221,454.327C378.577,284.851 412.186,224.471 412.186,224.471Z" style="fill:none;stroke:black;stroke-width:1px;"/>
</svg>
